<svg width="489" height="308" viewBox="0 0 489 308" fill="none" xmlns="http://www.w3.org/2000/svg">
<g clip-path="url(#clip0_175_927)">
<path d="M244 0L244 310" stroke="black" stroke-opacity="0.12" stroke-width="0.5" stroke-dasharray="4 4"/>
<rect x="22" y="138" width="42" height="53" fill="#F6F6F6"/>
<rect x="22.25" y="138.25" width="41.5" height="52.5" stroke="black" stroke-opacity="0.25" stroke-width="0.5"/>
<path d="M50.0129 170.963C49.9329 170.963 49.8519 170.95 49.7719 170.923C49.3789 170.79 49.1689 170.364 49.3029 169.972C49.9319 168.121 50.2499 166.112 50.2499 164C50.2499 161.105 47.8949 158.75 44.9999 158.75C43.7409 158.75 42.5219 159.205 41.5679 160.03C41.2559 160.301 40.7809 160.267 40.5099 159.953C40.2389 159.639 40.2739 159.166 40.5869 158.895C41.8129 157.834 43.3799 157.25 44.9989 157.25C48.7209 157.25 51.7489 160.278 51.7489 164C51.7489 166.276 51.4029 168.447 50.7219 170.454C50.6169 170.766 50.3259 170.963 50.0129 170.963Z" fill="#00573F"/>
<path d="M37.906 168.453C37.772 168.453 37.636 168.417 37.514 168.342C37.16 168.125 37.051 167.663 37.268 167.31C38.203 165.791 38.249 164.287 38.249 164C38.249 162.996 38.465 162.029 38.892 161.128C39.069 160.754 39.513 160.592 39.89 160.77C40.265 160.947 40.425 161.394 40.247 161.769C39.917 162.469 39.749 163.22 39.749 164C39.749 164.357 39.691 166.232 38.545 168.096C38.403 168.326 38.157 168.453 37.905 168.453H37.906Z" fill="#00573F"/>
<path d="M45.9177 172.698C45.7887 172.698 45.6577 172.665 45.5377 172.594C45.1817 172.384 45.0617 171.924 45.2717 171.567C46.2537 169.898 46.8777 168.041 47.1257 166.049C47.1767 165.637 47.5407 165.346 47.9627 165.397C48.3737 165.448 48.6647 165.822 48.6137 166.233C48.3417 168.43 47.6517 170.48 46.5647 172.327C46.4247 172.564 46.1737 172.698 45.9177 172.698Z" fill="#00573F"/>
<path d="M39.8716 170.89C39.7026 170.89 39.5336 170.834 39.3926 170.718C39.0746 170.454 39.0296 169.981 39.2926 169.662C40.5906 168.093 41.2486 166.188 41.2486 164C41.2486 161.932 42.9316 160.25 44.9986 160.25C46.8766 160.25 48.4756 161.652 48.7176 163.512C48.7706 163.923 48.4816 164.299 48.0706 164.352C47.6536 164.404 47.2836 164.115 47.2296 163.705C47.0846 162.59 46.1256 161.75 44.9996 161.75C43.7596 161.75 42.7496 162.759 42.7496 164C42.7496 166.546 41.9766 168.773 40.4496 170.618C40.3016 170.797 40.0876 170.89 39.8716 170.89Z" fill="#00573F"/>
<path d="M42.55 172.368C42.392 172.368 42.233 172.318 42.097 172.215C41.768 171.964 41.703 171.494 41.954 171.164C43.477 169.16 44.25 166.75 44.25 164C44.25 163.586 44.586 163.25 45 163.25C45.414 163.25 45.75 163.586 45.75 164C45.75 167.085 44.874 169.801 43.147 172.072C43 172.266 42.776 172.368 42.549 172.368H42.55Z" fill="#00573F"/>
<rect x="26" y="138" width="41" height="53" fill="white"/>
<rect x="26.25" y="138.25" width="40.5" height="52.5" stroke="black" stroke-opacity="0.25" stroke-width="0.5"/>
<path d="M51.0129 170.963C50.9329 170.963 50.8519 170.95 50.7719 170.923C50.3789 170.79 50.1689 170.364 50.3029 169.972C50.9319 168.121 51.2499 166.112 51.2499 164C51.2499 161.105 48.8949 158.75 45.9999 158.75C44.7409 158.75 43.5219 159.205 42.5679 160.03C42.2559 160.301 41.7809 160.267 41.5099 159.953C41.2389 159.639 41.2739 159.166 41.5869 158.895C42.8129 157.834 44.3799 157.25 45.9989 157.25C49.7209 157.25 52.7489 160.278 52.7489 164C52.7489 166.276 52.4029 168.447 51.7219 170.454C51.6169 170.766 51.3259 170.963 51.0129 170.963Z" fill="#00573F"/>
<path d="M38.906 168.453C38.772 168.453 38.636 168.417 38.514 168.342C38.16 168.125 38.051 167.663 38.268 167.31C39.203 165.791 39.249 164.287 39.249 164C39.249 162.996 39.465 162.029 39.892 161.128C40.069 160.754 40.513 160.592 40.89 160.77C41.265 160.947 41.425 161.394 41.247 161.769C40.917 162.469 40.749 163.22 40.749 164C40.749 164.357 40.691 166.232 39.545 168.096C39.403 168.326 39.157 168.453 38.905 168.453H38.906Z" fill="#00573F"/>
<path d="M46.9177 172.698C46.7887 172.698 46.6577 172.665 46.5377 172.594C46.1817 172.384 46.0617 171.924 46.2717 171.567C47.2537 169.898 47.8777 168.041 48.1257 166.049C48.1767 165.637 48.5407 165.346 48.9627 165.397C49.3737 165.448 49.6647 165.822 49.6137 166.233C49.3417 168.43 48.6517 170.48 47.5647 172.327C47.4247 172.564 47.1737 172.698 46.9177 172.698Z" fill="#00573F"/>
<path d="M40.8716 170.89C40.7026 170.89 40.5336 170.834 40.3926 170.718C40.0746 170.454 40.0296 169.981 40.2926 169.662C41.5906 168.093 42.2486 166.188 42.2486 164C42.2486 161.932 43.9316 160.25 45.9986 160.25C47.8766 160.25 49.4756 161.652 49.7176 163.512C49.7706 163.923 49.4816 164.299 49.0706 164.352C48.6536 164.404 48.2836 164.115 48.2296 163.705C48.0846 162.59 47.1256 161.75 45.9996 161.75C44.7596 161.75 43.7496 162.759 43.7496 164C43.7496 166.546 42.9766 168.773 41.4496 170.618C41.3016 170.797 41.0876 170.89 40.8716 170.89Z" fill="#00573F"/>
<path d="M43.55 172.368C43.392 172.368 43.233 172.318 43.097 172.215C42.768 171.964 42.703 171.494 42.954 171.164C44.477 169.16 45.25 166.75 45.25 164C45.25 163.586 45.586 163.25 46 163.25C46.414 163.25 46.75 163.586 46.75 164C46.75 167.085 45.874 169.801 44.147 172.072C44 172.266 43.776 172.368 43.549 172.368H43.55Z" fill="#00573F"/>
<rect x="89" y="138" width="42" height="53" fill="#F6F6F6"/>
<rect x="89.25" y="138.25" width="41.5" height="52.5" stroke="black" stroke-opacity="0.25" stroke-width="0.5"/>
<path d="M117.013 170.963C116.933 170.963 116.852 170.95 116.772 170.923C116.379 170.79 116.169 170.364 116.303 169.972C116.932 168.121 117.25 166.112 117.25 164C117.25 161.105 114.895 158.75 112 158.75C110.741 158.75 109.522 159.205 108.568 160.03C108.256 160.301 107.781 160.267 107.51 159.953C107.239 159.639 107.274 159.166 107.587 158.895C108.813 157.834 110.38 157.25 111.999 157.25C115.721 157.25 118.749 160.278 118.749 164C118.749 166.276 118.403 168.447 117.722 170.454C117.617 170.766 117.326 170.963 117.013 170.963Z" fill="#00573F"/>
<path d="M104.906 168.453C104.772 168.453 104.636 168.417 104.514 168.342C104.16 168.125 104.051 167.663 104.268 167.31C105.203 165.791 105.249 164.287 105.249 164C105.249 162.996 105.465 162.029 105.892 161.128C106.069 160.754 106.513 160.592 106.89 160.77C107.265 160.947 107.425 161.394 107.247 161.769C106.917 162.469 106.749 163.22 106.749 164C106.749 164.357 106.691 166.232 105.545 168.096C105.403 168.326 105.157 168.453 104.905 168.453H104.906Z" fill="#00573F"/>
<path d="M112.918 172.698C112.789 172.698 112.658 172.665 112.538 172.594C112.182 172.384 112.062 171.924 112.272 171.567C113.254 169.898 113.878 168.041 114.126 166.049C114.177 165.637 114.541 165.346 114.963 165.397C115.374 165.448 115.665 165.822 115.614 166.233C115.342 168.43 114.652 170.48 113.565 172.327C113.425 172.564 113.174 172.698 112.918 172.698Z" fill="#00573F"/>
<path d="M106.872 170.89C106.703 170.89 106.534 170.834 106.393 170.718C106.075 170.454 106.03 169.981 106.293 169.662C107.591 168.093 108.249 166.188 108.249 164C108.249 161.932 109.932 160.25 111.999 160.25C113.877 160.25 115.476 161.652 115.718 163.512C115.771 163.923 115.482 164.299 115.071 164.352C114.654 164.404 114.284 164.115 114.23 163.705C114.085 162.59 113.126 161.75 112 161.75C110.76 161.75 109.75 162.759 109.75 164C109.75 166.546 108.977 168.773 107.45 170.618C107.302 170.797 107.088 170.89 106.872 170.89Z" fill="#00573F"/>
<path d="M109.55 172.368C109.392 172.368 109.233 172.318 109.097 172.215C108.768 171.964 108.703 171.494 108.954 171.164C110.477 169.16 111.25 166.75 111.25 164C111.25 163.586 111.586 163.25 112 163.25C112.414 163.25 112.75 163.586 112.75 164C112.75 167.085 111.874 169.801 110.147 172.072C110 172.266 109.776 172.368 109.549 172.368H109.55Z" fill="#00573F"/>
<rect x="93" y="138" width="49" height="53" fill="white"/>
<rect x="93.25" y="138.25" width="48.5" height="52.5" stroke="black" stroke-opacity="0.25" stroke-width="0.5"/>
<path d="M126 161.75C126 160.233 124.767 159 123.25 159H112.75C111.233 159 110 160.233 110 161.75V162.5H126V161.75Z" fill="#00573F"/>
<path d="M110 168.25C110 169.767 111.233 171 112.75 171H123.25C124.767 171 126 169.767 126 168.25V164H110V168.25ZM121.75 166.5H122.75C123.164 166.5 123.5 166.836 123.5 167.25C123.5 167.664 123.164 168 122.75 168H121.75C121.336 168 121 167.664 121 167.25C121 166.836 121.336 166.5 121.75 166.5ZM113.25 166.5H116.25C116.664 166.5 117 166.836 117 167.25C117 167.664 116.664 168 116.25 168H113.25C112.836 168 112.5 167.664 112.5 167.25C112.5 166.836 112.836 166.5 113.25 166.5Z" fill="#00573F"/>
<rect x="245" y="138" width="68" height="53" fill="#F6F6F6"/>
<rect x="245.25" y="138.25" width="67.5" height="52.5" stroke="black" stroke-opacity="0.25" stroke-width="0.5"/>
<path d="M286.013 170.963C285.933 170.963 285.852 170.95 285.772 170.923C285.379 170.79 285.169 170.364 285.303 169.972C285.932 168.121 286.25 166.112 286.25 164C286.25 161.105 283.895 158.75 281 158.75C279.741 158.75 278.522 159.205 277.568 160.03C277.256 160.301 276.781 160.267 276.51 159.953C276.239 159.639 276.274 159.166 276.587 158.895C277.813 157.834 279.38 157.25 280.999 157.25C284.721 157.25 287.749 160.278 287.749 164C287.749 166.276 287.403 168.447 286.722 170.454C286.617 170.766 286.326 170.963 286.013 170.963Z" fill="#00573F"/>
<path d="M273.906 168.453C273.772 168.453 273.636 168.417 273.514 168.342C273.16 168.125 273.051 167.663 273.268 167.31C274.203 165.791 274.249 164.287 274.249 164C274.249 162.996 274.465 162.029 274.892 161.128C275.069 160.754 275.513 160.592 275.89 160.77C276.265 160.947 276.425 161.394 276.247 161.769C275.917 162.469 275.749 163.22 275.749 164C275.749 164.357 275.691 166.232 274.545 168.096C274.403 168.326 274.157 168.453 273.905 168.453H273.906Z" fill="#00573F"/>
<path d="M281.918 172.698C281.789 172.698 281.658 172.665 281.538 172.594C281.182 172.384 281.062 171.924 281.272 171.567C282.254 169.898 282.878 168.041 283.126 166.049C283.177 165.637 283.541 165.346 283.963 165.397C284.374 165.448 284.665 165.822 284.614 166.233C284.342 168.43 283.652 170.48 282.565 172.327C282.425 172.564 282.174 172.698 281.918 172.698Z" fill="#00573F"/>
<path d="M275.872 170.89C275.703 170.89 275.534 170.834 275.393 170.718C275.075 170.454 275.03 169.981 275.293 169.662C276.591 168.093 277.249 166.188 277.249 164C277.249 161.932 278.932 160.25 280.999 160.25C282.877 160.25 284.476 161.652 284.718 163.512C284.771 163.923 284.482 164.299 284.071 164.352C283.654 164.404 283.284 164.115 283.23 163.705C283.085 162.59 282.126 161.75 281 161.75C279.76 161.75 278.75 162.759 278.75 164C278.75 166.546 277.977 168.773 276.45 170.618C276.302 170.797 276.088 170.89 275.872 170.89Z" fill="#00573F"/>
<path d="M278.55 172.368C278.392 172.368 278.233 172.318 278.097 172.215C277.768 171.964 277.703 171.494 277.954 171.164C279.477 169.16 280.25 166.75 280.25 164C280.25 163.586 280.586 163.25 281 163.25C281.414 163.25 281.75 163.586 281.75 164C281.75 167.085 280.874 169.801 279.147 172.072C279 172.266 278.776 172.368 278.549 172.368H278.55Z" fill="#00573F"/>
<rect x="251" y="138" width="68" height="53" fill="white"/>
<rect x="251.25" y="138.25" width="67.5" height="52.5" stroke="black" stroke-opacity="0.25" stroke-width="0.5"/>
<path d="M289.333 165C288.781 165 288.333 164.552 288.333 164V159.667C288.333 157.829 286.837 156.333 284.999 156.333C283.162 156.333 281.666 157.829 281.666 159.667V164C281.666 164.552 281.218 165 280.666 165C280.114 165 279.666 164.552 279.666 164V159.667C279.666 156.725 282.058 154.333 284.999 154.333C287.941 154.333 290.333 156.725 290.333 159.667V164C290.333 164.552 289.885 165 289.333 165Z" fill="#00573F"/>
<path d="M290 163H280C277.977 163 276.333 164.644 276.333 166.667V172C276.333 174.023 277.977 175.667 280 175.667H290C292.022 175.667 293.666 174.023 293.666 172V166.667C293.666 164.644 292.022 163 290 163ZM286 170C286 170.552 285.552 171 285 171C284.448 171 284 170.552 284 170V168.667C284 168.115 284.448 167.667 285 167.667C285.552 167.667 286 168.115 286 168.667V170Z" fill="#00573F"/>
<rect x="427" y="153" width="69" height="38" fill="#F6F6F6"/>
<rect x="427.25" y="153.25" width="68.5" height="37.5" stroke="black" stroke-opacity="0.25" stroke-width="0.5"/>
<path d="M467.013 177.963C466.933 177.963 466.852 177.95 466.772 177.923C466.379 177.79 466.169 177.364 466.303 176.972C466.932 175.121 467.25 173.112 467.25 171C467.25 168.105 464.895 165.75 462 165.75C460.741 165.75 459.522 166.205 458.568 167.03C458.256 167.301 457.781 167.267 457.51 166.953C457.239 166.639 457.274 166.166 457.587 165.895C458.813 164.834 460.38 164.25 461.999 164.25C465.721 164.25 468.749 167.278 468.749 171C468.749 173.276 468.403 175.447 467.722 177.454C467.617 177.766 467.326 177.963 467.013 177.963Z" fill="#00573F"/>
<path d="M454.906 175.453C454.772 175.453 454.636 175.417 454.514 175.342C454.16 175.125 454.051 174.663 454.268 174.31C455.203 172.791 455.249 171.287 455.249 171C455.249 169.996 455.465 169.029 455.892 168.128C456.069 167.754 456.513 167.592 456.89 167.77C457.265 167.947 457.425 168.394 457.247 168.769C456.917 169.469 456.749 170.22 456.749 171C456.749 171.357 456.691 173.232 455.545 175.096C455.403 175.326 455.157 175.453 454.905 175.453H454.906Z" fill="#00573F"/>
<path d="M462.918 179.698C462.789 179.698 462.658 179.665 462.538 179.594C462.182 179.384 462.062 178.924 462.272 178.567C463.254 176.898 463.878 175.041 464.126 173.049C464.177 172.637 464.541 172.346 464.963 172.397C465.374 172.448 465.665 172.822 465.614 173.233C465.342 175.43 464.652 177.48 463.565 179.327C463.425 179.564 463.174 179.698 462.918 179.698Z" fill="#00573F"/>
<path d="M456.872 177.89C456.703 177.89 456.534 177.834 456.393 177.718C456.075 177.454 456.03 176.981 456.293 176.662C457.591 175.093 458.249 173.188 458.249 171C458.249 168.932 459.932 167.25 461.999 167.25C463.877 167.25 465.476 168.652 465.718 170.512C465.771 170.923 465.482 171.299 465.071 171.352C464.654 171.404 464.284 171.115 464.23 170.705C464.085 169.59 463.126 168.75 462 168.75C460.76 168.75 459.75 169.759 459.75 171C459.75 173.546 458.977 175.773 457.45 177.618C457.302 177.797 457.088 177.89 456.872 177.89Z" fill="#00573F"/>
<path d="M459.55 179.368C459.392 179.368 459.233 179.318 459.097 179.215C458.768 178.964 458.703 178.494 458.954 178.164C460.477 176.16 461.25 173.75 461.25 171C461.25 170.586 461.586 170.25 462 170.25C462.414 170.25 462.75 170.586 462.75 171C462.75 174.085 461.874 176.801 460.147 179.072C460 179.266 459.776 179.368 459.549 179.368H459.55Z" fill="#00573F"/>
<rect x="426" y="153" width="68" height="38" fill="white"/>
<rect x="426.25" y="153.25" width="67.5" height="37.5" stroke="black" stroke-opacity="0.25" stroke-width="0.5"/>
<path d="M464.333 172C463.781 172 463.333 171.552 463.333 171V166.667C463.333 164.829 461.837 163.333 459.999 163.333C458.162 163.333 456.666 164.829 456.666 166.667V171C456.666 171.552 456.218 172 455.666 172C455.114 172 454.666 171.552 454.666 171V166.667C454.666 163.725 457.058 161.333 459.999 161.333C462.941 161.333 465.333 163.725 465.333 166.667V171C465.333 171.552 464.885 172 464.333 172Z" fill="#00573F"/>
<path d="M465 170H455C452.977 170 451.333 171.644 451.333 173.667V179C451.333 181.023 452.977 182.667 455 182.667H465C467.022 182.667 468.666 181.023 468.666 179V173.667C468.666 171.644 467.022 170 465 170ZM461 177C461 177.552 460.552 178 460 178C459.448 178 459 177.552 459 177V175.667C459 175.115 459.448 174.667 460 174.667C460.552 174.667 461 175.115 461 175.667V177Z" fill="#00573F"/>
<path d="M203 35C203 33.3431 204.343 32 206 32H264C272.284 32 279 38.7157 279 47V310H203V35Z" fill="#F6F6F6"/>
<path d="M206 32.25H264C272.146 32.25 278.75 38.8538 278.75 47V309.75H203.25V35C203.25 33.4812 204.481 32.25 206 32.25Z" stroke="black" stroke-opacity="0.25" stroke-width="0.5"/>
<path d="M217 25.25C217.966 25.25 218.75 26.0335 218.75 27V32.75H215.25V27C215.25 26.0335 216.034 25.25 217 25.25Z" stroke="black" stroke-opacity="0.25" stroke-width="0.5"/>
<path d="M223 25.25C223.966 25.25 224.75 26.0335 224.75 27V32.75H221.25V27C221.25 26.0335 222.034 25.25 223 25.25Z" stroke="black" stroke-opacity="0.25" stroke-width="0.5"/>
<path d="M236 33C236 30.2386 238.239 28 241 28H247C249.761 28 252 30.2386 252 33H236Z" fill="#FAFCFB"/>
<path d="M241 28.25H247C249.54 28.25 251.614 30.2428 251.744 32.75H236.256C236.386 30.2428 238.46 28.25 241 28.25Z" stroke="black" stroke-opacity="0.25" stroke-width="0.5"/>
<path d="M142 189H-245V223H142C151.389 223 159 215.389 159 206C159 196.611 151.389 189 142 189Z" fill="#F6F6F6"/>
<path d="M142 189.25C151.251 189.25 158.75 196.749 158.75 206C158.75 215.251 151.251 222.75 142 222.75H-244.75V189.25H142Z" stroke="black" stroke-opacity="0.25" stroke-width="0.5"/>
<path d="M142 191H-245V221H142C150.284 221 157 214.284 157 206C157 197.716 150.284 191 142 191Z" fill="#FAFCFB"/>
<path d="M142 191.25C150.146 191.25 156.75 197.854 156.75 206C156.75 214.146 150.146 220.75 142 220.75H-244.75V191.25H142Z" stroke="black" stroke-opacity="0.25" stroke-width="0.5"/>
<path d="M734 189V223H347C337.611 223 330 215.389 330 206C330 196.611 337.611 189 347 189H734Z" fill="#F6F6F6"/>
<path d="M347 189.25C337.749 189.25 330.25 196.749 330.25 206C330.25 215.251 337.749 222.75 347 222.75H733.75V189.25H347Z" stroke="black" stroke-opacity="0.25" stroke-width="0.5"/>
<path d="M348 191H734V221H348C339.716 221 333 214.284 333 206C333 197.716 339.716 191 348 191Z" fill="#FAFCFB"/>
<path d="M348 191.242C339.85 191.242 333.242 197.85 333.242 206C333.242 214.15 339.85 220.758 348 220.758H733.758V191.242H348Z" stroke="black" stroke-opacity="0.25" stroke-width="0.484962"/>
<rect x="166" y="189" width="157" height="34" rx="17" fill="#F6F6F6"/>
<rect x="166.25" y="189.25" width="156.5" height="33.5" rx="16.75" stroke="black" stroke-opacity="0.25" stroke-width="0.5"/>
<rect x="168" y="191" width="153" height="30" rx="15" fill="#FAFCFB"/>
<rect x="168.25" y="191.25" width="152.5" height="29.5" rx="14.75" stroke="black" stroke-opacity="0.25" stroke-width="0.5"/>
<path d="M206 32H264C272.284 32 279 38.7157 279 47V310H206V32Z" fill="white"/>
<path d="M264 32.25C272.146 32.25 278.75 38.8538 278.75 47V309.75H206.25V32.25H264Z" stroke="black" stroke-opacity="0.25" stroke-width="0.5"/>
<circle opacity="0.25" cx="13" cy="13" r="12.75" transform="matrix(-0.866025 -0.5 -0.5 0.866025 366.518 201.242)" stroke="black" stroke-width="0.5"/>
<circle opacity="0.25" cx="4" cy="4" r="4" transform="matrix(-1 0 0 1 352.76 202)" fill="black"/>
<path d="M355.01 195.175L342.26 217.259" stroke="#BBBDBC" stroke-width="0.5"/>
<path d="M359.683 212.59L337.599 199.84" stroke="#BBBDBC" stroke-width="0.5"/>
<circle opacity="0.25" cx="13" cy="13" r="12.75" transform="matrix(-0.866025 -0.5 -0.5 0.866025 323.518 201.242)" stroke="black" stroke-width="0.5"/>
<circle opacity="0.25" cx="4" cy="4" r="4" transform="matrix(-1 0 0 1 309.76 202)" fill="black"/>
<path d="M312.01 195.175L299.26 217.259" stroke="#BBBDBC" stroke-width="0.5"/>
<path d="M316.683 212.59L294.599 199.84" stroke="#BBBDBC" stroke-width="0.5"/>
<circle opacity="0.25" cx="13" cy="13" r="12.75" transform="matrix(-0.280396 -0.959884 -0.959884 0.280396 199.882 214.834)" stroke="black" stroke-width="0.5"/>
<circle opacity="0.25" cx="4" cy="4" r="4" transform="matrix(-0.722773 -0.691086 -0.691086 0.722773 189.414 205.874)" fill="black"/>
<path d="M195.757 202.496L171.28 209.646" stroke="#BBBDBC" stroke-width="0.5"/>
<path d="M187.1 218.312L179.95 193.835" stroke="#BBBDBC" stroke-width="0.5"/>
<circle opacity="0.25" cx="13" cy="13" r="12.75" transform="matrix(0.0268223 -0.99964 -0.99964 -0.0268223 153.755 219.345)" stroke="black" stroke-width="0.5"/>
<circle opacity="0.25" cx="4" cy="4" r="4" transform="matrix(-0.476591 -0.879125 -0.879125 0.476591 146.531 207.611)" fill="black"/>
<path d="M153.604 206.336L128.113 205.652" stroke="#BBBDBC" stroke-width="0.5"/>
<path d="M140.521 218.744L141.205 193.253" stroke="#BBBDBC" stroke-width="0.5"/>
<path d="M44 185C44 181.134 47.134 178 51 178C54.866 178 58 181.134 58 185V310H44V185Z" fill="#FAFCFB"/>
<path d="M51 178.25C54.7279 178.25 57.75 181.272 57.75 185V309.75H44.25V185L44.2588 184.652C44.4397 181.086 47.3887 178.25 51 178.25Z" stroke="black" stroke-opacity="0.25" stroke-width="0.5"/>
<path d="M438 216V304" stroke="black" stroke-width="0.5"/>
<path d="M445 185C445 181.134 441.866 178 438 178C434.134 178 431 181.134 431 185V310H445V185Z" fill="#FAFCFB"/>
<path d="M438 178.25C434.272 178.25 431.25 181.272 431.25 185V309.75H444.75V185L444.741 184.652C444.56 181.086 441.611 178.25 438 178.25Z" stroke="black" stroke-opacity="0.25" stroke-width="0.5"/>
<path opacity="0.1" d="M239.12 149.383L239.12 147.463L246 147.463L246 149.383L245.44 149.383L245.44 148.103L239.68 148.103L239.68 149.383L239.12 149.383ZM241.808 156.705L242.736 156.705L245.68 159.169L245.68 160.017L241.808 156.705ZM240 156.097L245.68 156.097L245.68 156.785L240 156.785L240 156.097ZM240 159.249L242.88 157.265L243.376 157.745L240 160.097L240 159.249ZM239.872 162.814C239.872 162.366 239.987 161.985 240.216 161.67C240.445 161.361 240.781 161.123 241.224 160.958C241.667 160.798 242.203 160.718 242.832 160.718C243.472 160.718 244.013 160.798 244.456 160.958C244.899 161.123 245.235 161.361 245.464 161.67C245.693 161.985 245.808 162.366 245.808 162.814C245.808 163.262 245.693 163.641 245.464 163.95C245.235 164.265 244.899 164.502 244.456 164.662C244.013 164.827 243.472 164.91 242.832 164.91C242.203 164.91 241.667 164.827 241.224 164.662C240.781 164.502 240.445 164.265 240.216 163.95C239.987 163.641 239.872 163.262 239.872 162.814ZM240.544 162.814C240.544 163.107 240.629 163.355 240.8 163.558C240.976 163.766 241.235 163.923 241.576 164.03C241.917 164.137 242.336 164.19 242.832 164.19C243.328 164.19 243.747 164.137 244.088 164.03C244.435 163.923 244.696 163.766 244.872 163.558C245.048 163.355 245.136 163.107 245.136 162.814C245.136 162.521 245.048 162.27 244.872 162.062C244.696 161.859 244.435 161.705 244.088 161.598C243.747 161.491 243.328 161.438 242.832 161.438C242.336 161.438 241.917 161.491 241.576 161.598C241.235 161.705 240.976 161.859 240.8 162.062C240.629 162.27 240.544 162.521 240.544 162.814ZM240 165.771L245.68 165.771L245.68 166.747L240.784 168.763L245.68 168.763L245.68 169.451L240 169.451L240 168.475L244.896 166.459L240 166.459L240 165.771ZM240 172.064L245.008 172.064L245.008 170.328L245.68 170.328L245.68 174.488L245.008 174.488L245.008 172.752L240 172.752L240 172.064ZM240 175.525L245.68 175.525L245.68 178.981L245.008 178.981L245.008 176.213L243.176 176.213L243.176 178.885L242.52 178.885L242.52 176.213L240.672 176.213L240.672 179.045L240 179.045L240 175.525ZM240 180.002L242.856 181.57L245.68 180.034L245.68 180.834L243.4 182.01L245.68 183.186L245.68 183.97L242.848 182.434L240 184.002L240 183.202L242.312 181.994L240 180.786L240 180.002ZM240 186.454L245.008 186.454L245.008 184.718L245.68 184.718L245.68 188.878L245.008 188.878L245.008 187.142L240 187.142L240 186.454ZM239.872 196.48C239.872 196.08 239.955 195.726 240.12 195.416C240.285 195.107 240.512 194.859 240.8 194.672C241.093 194.486 241.432 194.376 241.816 194.344L241.864 195.064C241.581 195.102 241.341 195.182 241.144 195.304C240.947 195.432 240.797 195.595 240.696 195.792C240.595 195.995 240.544 196.23 240.544 196.496C240.544 196.763 240.576 196.987 240.64 197.168C240.709 197.35 240.808 197.486 240.936 197.576C241.069 197.672 241.227 197.72 241.408 197.72C241.589 197.72 241.747 197.678 241.88 197.592C242.019 197.512 242.147 197.358 242.264 197.128C242.381 196.904 242.501 196.571 242.624 196.128C242.736 195.734 242.859 195.414 242.992 195.168C243.125 194.928 243.288 194.752 243.48 194.64C243.672 194.534 243.909 194.48 244.192 194.48C244.512 194.48 244.792 194.555 245.032 194.704C245.277 194.859 245.467 195.078 245.6 195.36C245.739 195.643 245.808 195.979 245.808 196.368C245.808 196.758 245.728 197.091 245.568 197.368C245.413 197.646 245.2 197.864 244.928 198.024C244.656 198.19 244.347 198.294 244 198.336L243.952 197.616C244.181 197.584 244.384 197.518 244.56 197.416C244.741 197.315 244.883 197.176 244.984 197C245.085 196.824 245.136 196.608 245.136 196.352C245.136 196 245.051 195.72 244.88 195.512C244.715 195.304 244.496 195.2 244.224 195.2C244.048 195.2 243.901 195.238 243.784 195.312C243.672 195.392 243.571 195.531 243.48 195.728C243.395 195.926 243.301 196.203 243.2 196.56C243.072 197.024 242.928 197.392 242.768 197.664C242.608 197.942 242.416 198.139 242.192 198.256C241.973 198.379 241.707 198.44 241.392 198.44C241.093 198.44 240.829 198.358 240.6 198.192C240.371 198.027 240.192 197.798 240.064 197.504C239.936 197.211 239.872 196.87 239.872 196.48ZM240 199.509L245.68 199.509L245.68 200.853C245.68 201.344 245.568 201.77 245.344 202.133C245.125 202.501 244.803 202.784 244.376 202.981C243.955 203.184 243.44 203.285 242.832 203.285C242.224 203.285 241.709 203.184 241.288 202.981C240.867 202.784 240.547 202.501 240.328 202.133C240.109 201.77 240 201.344 240 200.853L240 199.509ZM240.672 200.197L240.672 200.813C240.672 201.368 240.851 201.797 241.208 202.101C241.571 202.41 242.112 202.565 242.832 202.565C243.552 202.565 244.093 202.41 244.456 202.101C244.824 201.797 245.008 201.368 245.008 200.813L245.008 200.197L240.672 200.197ZM241.808 204.674L242.736 204.674L245.68 207.138L245.68 207.986L241.808 204.674ZM240 204.066L245.68 204.066L245.68 204.754L240 204.754L240 204.066ZM240 207.218L242.88 205.234L243.376 205.714L240 208.066L240 207.218ZM239.12 214.62L239.68 214.62L239.68 215.9L245.44 215.9L245.44 214.62L246 214.62L246 216.54L239.12 216.54L239.12 214.62Z" fill="black"/>
<circle opacity="0.25" cx="3" cy="3" r="2.75" transform="matrix(-1 0 0 1 441 203)" stroke="black" stroke-width="0.5"/>
<circle opacity="0.25" cx="3" cy="3" r="2.75" transform="matrix(-1 0 0 1 54 203)" stroke="black" stroke-width="0.5"/>
</g>
<defs>
<clipPath id="clip0_175_927">
<rect width="489" height="308" fill="white"/>
</clipPath>
</defs>
</svg>
