<svg width="979" height="173" viewBox="0 0 979 173" fill="none" xmlns="http://www.w3.org/2000/svg">
<mask id="path-1-outside-1_326_21" maskUnits="userSpaceOnUse" x="23" y="18" width="942" height="139" fill="black">
<rect fill="white" x="23" y="18" width="942" height="139"/>
<path d="M23.6864 153V22.4236H59.7329V74.1024L99.6415 22.4236H140.47L94.6759 80.7232L143.044 153H103.136L71.1353 104.08L59.7329 118.057V153H23.6864ZM222.064 155.943C208.332 155.943 196.5 153.184 186.569 147.667C176.638 142.149 169.037 134.302 163.764 124.126C158.492 113.95 155.856 101.873 155.856 87.8957C155.856 73.9185 158.492 61.8417 163.764 51.6653C169.037 41.3664 176.638 33.4582 186.569 27.9409C196.5 22.301 208.332 19.481 222.064 19.481C235.919 19.481 247.75 22.301 257.559 27.9409C267.49 33.4582 275.092 41.3664 280.364 51.6653C285.636 61.8417 288.272 73.9185 288.272 87.8957C288.272 101.873 285.636 113.95 280.364 124.126C275.092 134.302 267.49 142.149 257.559 147.667C247.75 153.184 235.919 155.943 222.064 155.943ZM222.064 127.069C228.194 127.069 233.405 125.536 237.696 122.471C242.11 119.406 245.482 114.992 247.811 109.229C250.141 103.344 251.306 96.233 251.306 87.8957C251.306 79.5584 250.141 72.4472 247.811 66.5621C245.482 60.677 242.11 56.2018 237.696 53.1366C233.405 49.9488 228.194 48.355 222.064 48.355C215.934 48.355 210.662 49.9488 206.248 53.1366C201.956 56.2018 198.646 60.677 196.317 66.5621C193.987 72.4472 192.822 79.5584 192.822 87.8957C192.822 96.233 193.987 103.344 196.317 109.229C198.646 114.992 201.956 119.406 206.248 122.471C210.662 125.536 215.934 127.069 222.064 127.069ZM314.797 153V22.4236H351.211L394.798 95.9878V22.4236H430.844V153H394.43L350.843 83.114V153H314.797ZM489.576 153V51.2975H451.507V22.4236H563.876V51.2975H525.807V153H489.576ZM586.33 153V22.4236H683.067V51.2975H622.377V73.1829H680.86V101.873H622.377V124.126H684.538V153H586.33ZM704.362 153L749.788 87.5279L704.73 22.4236H746.294L771.121 60.6769L794.846 22.4236H836.778L791.903 87.1601L837.145 153H795.582L770.754 114.011L746.294 153H704.362ZM889.603 153V51.2975H851.533V22.4236H963.903V51.2975H925.833V153H889.603Z"/>
</mask>
<path d="M23.6864 153H23.1864V153.5H23.6864V153ZM23.6864 22.4236V21.9236H23.1864V22.4236H23.6864ZM59.7329 22.4236H60.2329V21.9236H59.7329V22.4236ZM59.7329 74.1024H59.2329V75.5679L60.1286 74.408L59.7329 74.1024ZM99.6415 22.4236V21.9236H99.3959L99.2457 22.118L99.6415 22.4236ZM140.47 22.4236L140.863 22.7324L141.498 21.9236H140.47V22.4236ZM94.6759 80.7232L94.2827 80.4143L94.0585 80.6997L94.2603 81.0013L94.6759 80.7232ZM143.044 153V153.5H143.981L143.46 152.722L143.044 153ZM103.136 153L102.717 153.274L102.865 153.5H103.136V153ZM71.1353 104.08L71.5538 103.806L71.1798 103.234L70.7479 103.764L71.1353 104.08ZM59.7329 118.057L59.3455 117.741L59.2329 117.879V118.057H59.7329ZM59.7329 153V153.5H60.2329V153H59.7329ZM23.6864 153H24.1864V22.4236H23.6864H23.1864V153H23.6864ZM23.6864 22.4236V22.9236H59.7329V22.4236V21.9236H23.6864V22.4236ZM59.7329 22.4236H59.2329V74.1024H59.7329H60.2329V22.4236H59.7329ZM59.7329 74.1024L60.1286 74.408L100.037 22.7292L99.6415 22.4236L99.2457 22.118L59.3372 73.7968L59.7329 74.1024ZM99.6415 22.4236V22.9236H140.47V22.4236V21.9236H99.6415V22.4236ZM140.47 22.4236L140.076 22.1147L94.2827 80.4143L94.6759 80.7232L95.0691 81.0321L140.863 22.7324L140.47 22.4236ZM94.6759 80.7232L94.2603 81.0013L142.629 153.278L143.044 153L143.46 152.722L95.0914 80.4451L94.6759 80.7232ZM143.044 153V152.5H103.136V153V153.5H143.044V153ZM103.136 153L103.554 152.726L71.5538 103.806L71.1353 104.08L70.7169 104.354L102.717 153.274L103.136 153ZM71.1353 104.08L70.7479 103.764L59.3455 117.741L59.7329 118.057L60.1203 118.373L71.5228 104.396L71.1353 104.08ZM59.7329 118.057H59.2329V153H59.7329H60.2329V118.057H59.7329ZM59.7329 153V152.5H23.6864V153V153.5H59.7329V153ZM186.569 147.667L186.812 147.23L186.569 147.667ZM163.764 124.126L164.208 123.896L163.764 124.126ZM163.764 51.6653L164.208 51.8953L164.209 51.8932L163.764 51.6653ZM186.569 27.9409L186.812 28.378L186.816 28.3757L186.569 27.9409ZM257.559 27.9409L257.309 28.3744L257.316 28.378L257.559 27.9409ZM280.364 51.6653L279.919 51.8932L279.92 51.8953L280.364 51.6653ZM280.364 124.126L279.92 123.896L280.364 124.126ZM257.559 147.667L257.316 147.23L257.314 147.231L257.559 147.667ZM237.696 122.471L237.411 122.06L237.406 122.064L237.696 122.471ZM247.811 109.229L248.275 109.417L248.276 109.413L247.811 109.229ZM247.811 66.5621L248.276 66.3781L247.811 66.5621ZM237.696 53.1366L237.398 53.538L237.405 53.5428L237.411 53.5473L237.696 53.1366ZM206.248 53.1366L206.538 53.5435L206.54 53.542L206.248 53.1366ZM196.317 66.5621L196.781 66.7461L196.317 66.5621ZM196.317 109.229L195.852 109.413L195.853 109.417L196.317 109.229ZM206.248 122.471L205.957 122.878L205.963 122.882L206.248 122.471ZM222.064 155.943V155.443C208.399 155.443 196.655 152.698 186.812 147.23L186.569 147.667L186.326 148.104C196.346 153.67 208.265 156.443 222.064 156.443V155.943ZM186.569 147.667L186.812 147.23C176.968 141.76 169.436 133.986 164.208 123.896L163.764 124.126L163.32 124.356C168.637 134.619 176.309 142.538 186.326 148.104L186.569 147.667ZM163.764 124.126L164.208 123.896C158.98 113.805 156.356 101.81 156.356 87.8957H155.856H155.356C155.356 101.936 158.004 114.095 163.32 124.356L163.764 124.126ZM155.856 87.8957H156.356C156.356 73.9812 158.98 61.9867 164.208 51.8953L163.764 51.6653L163.32 51.4353C158.004 61.6967 155.356 73.8558 155.356 87.8957H155.856ZM163.764 51.6653L164.209 51.8932C169.437 41.6807 176.969 33.8462 186.812 28.378L186.569 27.9409L186.326 27.5038C176.307 33.0702 168.636 41.052 163.319 51.4375L163.764 51.6653ZM186.569 27.9409L186.816 28.3757C196.658 22.7864 208.401 19.981 222.064 19.981V19.481V18.981C208.263 18.981 196.343 21.8156 186.322 27.5061L186.569 27.9409ZM222.064 19.481V19.981C235.851 19.981 247.592 22.7868 257.31 28.3743L257.559 27.9409L257.808 27.5074C247.908 21.8151 235.987 18.981 222.064 18.981V19.481ZM257.559 27.9409L257.316 28.378C267.159 33.8462 274.691 41.6807 279.919 51.8932L280.364 51.6653L280.809 51.4375C275.492 41.052 267.821 33.0702 257.802 27.5038L257.559 27.9409ZM280.364 51.6653L279.92 51.8953C285.148 61.9867 287.772 73.9812 287.772 87.8957H288.272H288.772C288.772 73.8558 286.124 61.6967 280.808 51.4353L280.364 51.6653ZM288.272 87.8957H287.772C287.772 101.81 285.148 113.805 279.92 123.896L280.364 124.126L280.808 124.356C286.124 114.095 288.772 101.936 288.772 87.8957H288.272ZM280.364 124.126L279.92 123.896C274.692 133.986 267.16 141.76 257.316 147.23L257.559 147.667L257.802 148.104C267.819 142.538 275.491 134.619 280.808 124.356L280.364 124.126ZM257.559 147.667L257.314 147.231C247.595 152.697 235.852 155.443 222.064 155.443V155.943V156.443C235.985 156.443 247.905 153.67 257.804 148.102L257.559 147.667ZM222.064 127.069V127.569C228.281 127.569 233.598 126.013 237.987 122.878L237.696 122.471L237.406 122.064C233.213 125.059 228.108 126.569 222.064 126.569V127.069ZM237.696 122.471L237.982 122.882C242.487 119.753 245.915 115.255 248.275 109.417L247.811 109.229L247.348 109.042C245.049 114.729 241.733 119.059 237.411 122.06L237.696 122.471ZM247.811 109.229L248.276 109.413C250.635 103.454 251.806 96.2771 251.806 87.8957H251.306H250.806C250.806 96.1889 249.647 103.234 247.347 109.045L247.811 109.229ZM251.306 87.8957H251.806C251.806 79.5144 250.635 72.3371 248.276 66.3781L247.811 66.5621L247.347 66.7461C249.647 72.5573 250.806 79.6025 250.806 87.8957H251.306ZM247.811 66.5621L248.276 66.3781C245.917 60.4179 242.49 55.8567 237.982 52.7259L237.696 53.1366L237.411 53.5473C241.731 56.5469 245.047 60.936 247.347 66.7461L247.811 66.5621ZM237.696 53.1366L237.995 52.7352C233.605 49.4743 228.285 47.855 222.064 47.855V48.355V48.855C228.103 48.855 233.206 50.4234 237.398 53.538L237.696 53.1366ZM222.064 48.355V47.855C215.842 47.855 210.465 49.4743 205.955 52.7313L206.248 53.1366L206.54 53.542C210.859 50.4233 216.025 48.855 222.064 48.855V48.355ZM206.248 53.1366L205.957 52.7298C201.573 55.8612 198.209 60.4215 195.852 66.3781L196.317 66.5621L196.781 66.7461C199.083 60.9324 202.34 56.5424 206.538 53.5435L206.248 53.1366ZM196.317 66.5621L195.852 66.3781C193.493 72.3371 192.322 79.5143 192.322 87.8957H192.822H193.322C193.322 79.6025 194.481 72.5573 196.781 66.7461L196.317 66.5621ZM192.822 87.8957H192.322C192.322 96.2771 193.493 103.454 195.852 109.413L196.317 109.229L196.781 109.045C194.481 103.234 193.322 96.1889 193.322 87.8957H192.822ZM196.317 109.229L195.853 109.417C198.212 115.251 201.576 119.748 205.957 122.878L206.248 122.471L206.538 122.064C202.337 119.063 199.081 114.732 196.78 109.042L196.317 109.229ZM206.248 122.471L205.963 122.882C210.472 126.013 215.847 127.569 222.064 127.569V127.069V126.569C216.021 126.569 210.852 125.059 206.533 122.06L206.248 122.471ZM314.797 153H314.297V153.5H314.797V153ZM314.797 22.4236V21.9236H314.297V22.4236H314.797ZM351.211 22.4236L351.641 22.1687L351.496 21.9236H351.211V22.4236ZM394.798 95.9878L394.367 96.2426L395.298 97.8125V95.9878H394.798ZM394.798 22.4236V21.9236H394.298V22.4236H394.798ZM430.844 22.4236H431.344V21.9236H430.844V22.4236ZM430.844 153V153.5H431.344V153H430.844ZM394.43 153L394.006 153.265L394.152 153.5H394.43V153ZM350.843 83.114L351.267 82.8494L350.343 81.3675V83.114H350.843ZM350.843 153V153.5H351.343V153H350.843ZM314.797 153H315.297V22.4236H314.797H314.297V153H314.797ZM314.797 22.4236V22.9236H351.211V22.4236V21.9236H314.797V22.4236ZM351.211 22.4236L350.781 22.6784L394.367 96.2426L394.798 95.9878L395.228 95.7329L351.641 22.1687L351.211 22.4236ZM394.798 95.9878H395.298V22.4236H394.798H394.298V95.9878H394.798ZM394.798 22.4236V22.9236H430.844V22.4236V21.9236H394.798V22.4236ZM430.844 22.4236H430.344V153H430.844H431.344V22.4236H430.844ZM430.844 153V152.5H394.43V153V153.5H430.844V153ZM394.43 153L394.854 152.735L351.267 82.8494L350.843 83.114L350.419 83.3786L394.006 153.265L394.43 153ZM350.843 83.114H350.343V153H350.843H351.343V83.114H350.843ZM350.843 153V152.5H314.797V153V153.5H350.843V153ZM489.576 153H489.076V153.5H489.576V153ZM489.576 51.2975H490.076V50.7975H489.576V51.2975ZM451.507 51.2975H451.007V51.7975H451.507V51.2975ZM451.507 22.4236V21.9236H451.007V22.4236H451.507ZM563.876 22.4236H564.376V21.9236H563.876V22.4236ZM563.876 51.2975V51.7975H564.376V51.2975H563.876ZM525.807 51.2975V50.7975H525.307V51.2975H525.807ZM525.807 153V153.5H526.307V153H525.807ZM489.576 153H490.076V51.2975H489.576H489.076V153H489.576ZM489.576 51.2975V50.7975H451.507V51.2975V51.7975H489.576V51.2975ZM451.507 51.2975H452.007V22.4236H451.507H451.007V51.2975H451.507ZM451.507 22.4236V22.9236H563.876V22.4236V21.9236H451.507V22.4236ZM563.876 22.4236H563.376V51.2975H563.876H564.376V22.4236H563.876ZM563.876 51.2975V50.7975H525.807V51.2975V51.7975H563.876V51.2975ZM525.807 51.2975H525.307V153H525.807H526.307V51.2975H525.807ZM525.807 153V152.5H489.576V153V153.5H525.807V153ZM586.33 153H585.83V153.5H586.33V153ZM586.33 22.4236V21.9236H585.83V22.4236H586.33ZM683.067 22.4236H683.567V21.9236H683.067V22.4236ZM683.067 51.2975V51.7975H683.567V51.2975H683.067ZM622.377 51.2975V50.7975H621.877V51.2975H622.377ZM622.377 73.1829H621.877V73.6829H622.377V73.1829ZM680.86 73.1829H681.36V72.6829H680.86V73.1829ZM680.86 101.873V102.373H681.36V101.873H680.86ZM622.377 101.873V101.373H621.877V101.873H622.377ZM622.377 124.126H621.877V124.626H622.377V124.126ZM684.539 124.126H685.039V123.626H684.539V124.126ZM684.539 153V153.5H685.039V153H684.539ZM586.33 153H586.83V22.4236H586.33H585.83V153H586.33ZM586.33 22.4236V22.9236H683.067V22.4236V21.9236H586.33V22.4236ZM683.067 22.4236H682.567V51.2975H683.067H683.567V22.4236H683.067ZM683.067 51.2975V50.7975H622.377V51.2975V51.7975H683.067V51.2975ZM622.377 51.2975H621.877V73.1829H622.377H622.877V51.2975H622.377ZM622.377 73.1829V73.6829H680.86V73.1829V72.6829H622.377V73.1829ZM680.86 73.1829H680.36V101.873H680.86H681.36V73.1829H680.86ZM680.86 101.873V101.373H622.377V101.873V102.373H680.86V101.873ZM622.377 101.873H621.877V124.126H622.377H622.877V101.873H622.377ZM622.377 124.126V124.626H684.539V124.126V123.626H622.377V124.126ZM684.539 124.126H684.039V153H684.539H685.039V124.126H684.539ZM684.539 153V152.5H586.33V153V153.5H684.539V153ZM704.362 153L703.951 152.715L703.406 153.5H704.362V153ZM749.788 87.5279L750.199 87.8129L750.396 87.5282L750.199 87.2433L749.788 87.5279ZM704.73 22.4236V21.9236H703.776L704.319 22.7081L704.73 22.4236ZM746.294 22.4236L746.713 22.1514L746.565 21.9236H746.294V22.4236ZM771.121 60.6769L770.702 60.9492L771.131 61.6101L771.546 60.9405L771.121 60.6769ZM794.846 22.4236V21.9236H794.568L794.421 22.16L794.846 22.4236ZM836.778 22.4236L837.188 22.7084L837.732 21.9236H836.778V22.4236ZM791.903 87.1601L791.492 86.8752L791.296 87.1588L791.491 87.4432L791.903 87.1601ZM837.145 153V153.5H838.096L837.557 152.717L837.145 153ZM795.582 153L795.16 153.269L795.307 153.5H795.582V153ZM770.754 114.011L771.175 113.742L770.75 113.075L770.33 113.745L770.754 114.011ZM746.294 153V153.5H746.57L746.717 153.266L746.294 153ZM704.362 153L704.773 153.285L750.199 87.8129L749.788 87.5279L749.377 87.2429L703.951 152.715L704.362 153ZM749.788 87.5279L750.199 87.2433L705.141 22.139L704.73 22.4236L704.319 22.7081L749.377 87.8124L749.788 87.5279ZM704.73 22.4236V22.9236H746.294V22.4236V21.9236H704.73V22.4236ZM746.294 22.4236L745.874 22.6958L770.702 60.9492L771.121 60.6769L771.541 60.4047L746.713 22.1514L746.294 22.4236ZM771.121 60.6769L771.546 60.9405L795.271 22.6871L794.846 22.4236L794.421 22.16L770.697 60.4134L771.121 60.6769ZM794.846 22.4236V22.9236H836.778V22.4236V21.9236H794.846V22.4236ZM836.778 22.4236L836.367 22.1387L791.492 86.8752L791.903 87.1601L792.314 87.4449L837.188 22.7084L836.778 22.4236ZM791.903 87.1601L791.491 87.4432L836.733 153.283L837.145 153L837.557 152.717L792.315 86.8769L791.903 87.1601ZM837.145 153V152.5H795.582V153V153.5H837.145V153ZM795.582 153L796.003 152.731L771.175 113.742L770.754 114.011L770.332 114.28L795.16 153.269L795.582 153ZM770.754 114.011L770.33 113.745L745.87 152.734L746.294 153L746.717 153.266L771.177 114.277L770.754 114.011ZM746.294 153V152.5H704.362V153V153.5H746.294V153ZM889.603 153H889.103V153.5H889.603V153ZM889.603 51.2975H890.103V50.7975H889.603V51.2975ZM851.533 51.2975H851.033V51.7975H851.533V51.2975ZM851.533 22.4236V21.9236H851.033V22.4236H851.533ZM963.903 22.4236H964.403V21.9236H963.903V22.4236ZM963.903 51.2975V51.7975H964.403V51.2975H963.903ZM925.833 51.2975V50.7975H925.333V51.2975H925.833ZM925.833 153V153.5H926.333V153H925.833ZM889.603 153H890.103V51.2975H889.603H889.103V153H889.603ZM889.603 51.2975V50.7975H851.533V51.2975V51.7975H889.603V51.2975ZM851.533 51.2975H852.033V22.4236H851.533H851.033V51.2975H851.533ZM851.533 22.4236V22.9236H963.903V22.4236V21.9236H851.533V22.4236ZM963.903 22.4236H963.403V51.2975H963.903H964.403V22.4236H963.903ZM963.903 51.2975V50.7975H925.833V51.2975V51.7975H963.903V51.2975ZM925.833 51.2975H925.333V153H925.833H926.333V51.2975H925.833ZM925.833 153V152.5H889.603V153V153.5H925.833V153Z" fill="black" fill-opacity="0.3" mask="url(#path-1-outside-1_326_21)"/>
<path d="M23.6864 153H23.1864V153.5H23.6864V153ZM23.6864 22.4236V21.9236H23.1864V22.4236H23.6864ZM59.7329 22.4236H60.2329V21.9236H59.7329V22.4236ZM59.7329 74.1024H59.2329V75.5679L60.1286 74.408L59.7329 74.1024ZM99.6415 22.4236V21.9236H99.3959L99.2457 22.118L99.6415 22.4236ZM140.47 22.4236L140.863 22.7324L141.498 21.9236H140.47V22.4236ZM94.6759 80.7232L94.2827 80.4143L94.0585 80.6997L94.2603 81.0013L94.6759 80.7232ZM143.044 153V153.5H143.981L143.46 152.722L143.044 153ZM103.136 153L102.717 153.274L102.865 153.5H103.136V153ZM71.1353 104.08L71.5538 103.806L71.1798 103.234L70.7479 103.764L71.1353 104.08ZM59.7329 118.057L59.3455 117.741L59.2329 117.879V118.057H59.7329ZM59.7329 153V153.5H60.2329V153H59.7329ZM23.6864 153H24.1864V22.4236H23.6864H23.1864V153H23.6864ZM23.6864 22.4236V22.9236H59.7329V22.4236V21.9236H23.6864V22.4236ZM59.7329 22.4236H59.2329V74.1024H59.7329H60.2329V22.4236H59.7329ZM59.7329 74.1024L60.1286 74.408L100.037 22.7292L99.6415 22.4236L99.2457 22.118L59.3372 73.7968L59.7329 74.1024ZM99.6415 22.4236V22.9236H140.47V22.4236V21.9236H99.6415V22.4236ZM140.47 22.4236L140.076 22.1147L94.2827 80.4143L94.6759 80.7232L95.0691 81.0321L140.863 22.7324L140.47 22.4236ZM94.6759 80.7232L94.2603 81.0013L142.629 153.278L143.044 153L143.46 152.722L95.0914 80.4451L94.6759 80.7232ZM143.044 153V152.5H103.136V153V153.5H143.044V153ZM103.136 153L103.554 152.726L71.5538 103.806L71.1353 104.08L70.7169 104.354L102.717 153.274L103.136 153ZM71.1353 104.08L70.7479 103.764L59.3455 117.741L59.7329 118.057L60.1203 118.373L71.5228 104.396L71.1353 104.08ZM59.7329 118.057H59.2329V153H59.7329H60.2329V118.057H59.7329ZM59.7329 153V152.5H23.6864V153V153.5H59.7329V153ZM186.569 147.667L186.812 147.23L186.569 147.667ZM163.764 124.126L164.208 123.896L163.764 124.126ZM163.764 51.6653L164.208 51.8953L164.209 51.8932L163.764 51.6653ZM186.569 27.9409L186.812 28.378L186.816 28.3757L186.569 27.9409ZM257.559 27.9409L257.309 28.3744L257.316 28.378L257.559 27.9409ZM280.364 51.6653L279.919 51.8932L279.92 51.8953L280.364 51.6653ZM280.364 124.126L279.92 123.896L280.364 124.126ZM257.559 147.667L257.316 147.23L257.314 147.231L257.559 147.667ZM237.696 122.471L237.411 122.06L237.406 122.064L237.696 122.471ZM247.811 109.229L248.275 109.417L248.276 109.413L247.811 109.229ZM247.811 66.5621L248.276 66.3781L247.811 66.5621ZM237.696 53.1366L237.398 53.538L237.405 53.5428L237.411 53.5473L237.696 53.1366ZM206.248 53.1366L206.538 53.5435L206.54 53.542L206.248 53.1366ZM196.317 66.5621L196.781 66.7461L196.317 66.5621ZM196.317 109.229L195.852 109.413L195.853 109.417L196.317 109.229ZM206.248 122.471L205.957 122.878L205.963 122.882L206.248 122.471ZM222.064 155.943V155.443C208.399 155.443 196.655 152.698 186.812 147.23L186.569 147.667L186.326 148.104C196.346 153.67 208.265 156.443 222.064 156.443V155.943ZM186.569 147.667L186.812 147.23C176.968 141.76 169.436 133.986 164.208 123.896L163.764 124.126L163.32 124.356C168.637 134.619 176.309 142.538 186.326 148.104L186.569 147.667ZM163.764 124.126L164.208 123.896C158.98 113.805 156.356 101.81 156.356 87.8957H155.856H155.356C155.356 101.936 158.004 114.095 163.32 124.356L163.764 124.126ZM155.856 87.8957H156.356C156.356 73.9812 158.98 61.9867 164.208 51.8953L163.764 51.6653L163.32 51.4353C158.004 61.6967 155.356 73.8558 155.356 87.8957H155.856ZM163.764 51.6653L164.209 51.8932C169.437 41.6807 176.969 33.8462 186.812 28.378L186.569 27.9409L186.326 27.5038C176.307 33.0702 168.636 41.052 163.319 51.4375L163.764 51.6653ZM186.569 27.9409L186.816 28.3757C196.658 22.7864 208.401 19.981 222.064 19.981V19.481V18.981C208.263 18.981 196.343 21.8156 186.322 27.5061L186.569 27.9409ZM222.064 19.481V19.981C235.851 19.981 247.592 22.7868 257.31 28.3743L257.559 27.9409L257.808 27.5074C247.908 21.8151 235.987 18.981 222.064 18.981V19.481ZM257.559 27.9409L257.316 28.378C267.159 33.8462 274.691 41.6807 279.919 51.8932L280.364 51.6653L280.809 51.4375C275.492 41.052 267.821 33.0702 257.802 27.5038L257.559 27.9409ZM280.364 51.6653L279.92 51.8953C285.148 61.9867 287.772 73.9812 287.772 87.8957H288.272H288.772C288.772 73.8558 286.124 61.6967 280.808 51.4353L280.364 51.6653ZM288.272 87.8957H287.772C287.772 101.81 285.148 113.805 279.92 123.896L280.364 124.126L280.808 124.356C286.124 114.095 288.772 101.936 288.772 87.8957H288.272ZM280.364 124.126L279.92 123.896C274.692 133.986 267.16 141.76 257.316 147.23L257.559 147.667L257.802 148.104C267.819 142.538 275.491 134.619 280.808 124.356L280.364 124.126ZM257.559 147.667L257.314 147.231C247.595 152.697 235.852 155.443 222.064 155.443V155.943V156.443C235.985 156.443 247.905 153.67 257.804 148.102L257.559 147.667ZM222.064 127.069V127.569C228.281 127.569 233.598 126.013 237.987 122.878L237.696 122.471L237.406 122.064C233.213 125.059 228.108 126.569 222.064 126.569V127.069ZM237.696 122.471L237.982 122.882C242.487 119.753 245.915 115.255 248.275 109.417L247.811 109.229L247.348 109.042C245.049 114.729 241.733 119.059 237.411 122.06L237.696 122.471ZM247.811 109.229L248.276 109.413C250.635 103.454 251.806 96.2771 251.806 87.8957H251.306H250.806C250.806 96.1889 249.647 103.234 247.347 109.045L247.811 109.229ZM251.306 87.8957H251.806C251.806 79.5144 250.635 72.3371 248.276 66.3781L247.811 66.5621L247.347 66.7461C249.647 72.5573 250.806 79.6025 250.806 87.8957H251.306ZM247.811 66.5621L248.276 66.3781C245.917 60.4179 242.49 55.8567 237.982 52.7259L237.696 53.1366L237.411 53.5473C241.731 56.5469 245.047 60.936 247.347 66.7461L247.811 66.5621ZM237.696 53.1366L237.995 52.7352C233.605 49.4743 228.285 47.855 222.064 47.855V48.355V48.855C228.103 48.855 233.206 50.4234 237.398 53.538L237.696 53.1366ZM222.064 48.355V47.855C215.842 47.855 210.465 49.4743 205.955 52.7313L206.248 53.1366L206.54 53.542C210.859 50.4233 216.025 48.855 222.064 48.855V48.355ZM206.248 53.1366L205.957 52.7298C201.573 55.8612 198.209 60.4215 195.852 66.3781L196.317 66.5621L196.781 66.7461C199.083 60.9324 202.34 56.5424 206.538 53.5435L206.248 53.1366ZM196.317 66.5621L195.852 66.3781C193.493 72.3371 192.322 79.5143 192.322 87.8957H192.822H193.322C193.322 79.6025 194.481 72.5573 196.781 66.7461L196.317 66.5621ZM192.822 87.8957H192.322C192.322 96.2771 193.493 103.454 195.852 109.413L196.317 109.229L196.781 109.045C194.481 103.234 193.322 96.1889 193.322 87.8957H192.822ZM196.317 109.229L195.853 109.417C198.212 115.251 201.576 119.748 205.957 122.878L206.248 122.471L206.538 122.064C202.337 119.063 199.081 114.732 196.78 109.042L196.317 109.229ZM206.248 122.471L205.963 122.882C210.472 126.013 215.847 127.569 222.064 127.569V127.069V126.569C216.021 126.569 210.852 125.059 206.533 122.06L206.248 122.471ZM314.797 153H314.297V153.5H314.797V153ZM314.797 22.4236V21.9236H314.297V22.4236H314.797ZM351.211 22.4236L351.641 22.1687L351.496 21.9236H351.211V22.4236ZM394.798 95.9878L394.367 96.2426L395.298 97.8125V95.9878H394.798ZM394.798 22.4236V21.9236H394.298V22.4236H394.798ZM430.844 22.4236H431.344V21.9236H430.844V22.4236ZM430.844 153V153.5H431.344V153H430.844ZM394.43 153L394.006 153.265L394.152 153.5H394.43V153ZM350.843 83.114L351.267 82.8494L350.343 81.3675V83.114H350.843ZM350.843 153V153.5H351.343V153H350.843ZM314.797 153H315.297V22.4236H314.797H314.297V153H314.797ZM314.797 22.4236V22.9236H351.211V22.4236V21.9236H314.797V22.4236ZM351.211 22.4236L350.781 22.6784L394.367 96.2426L394.798 95.9878L395.228 95.7329L351.641 22.1687L351.211 22.4236ZM394.798 95.9878H395.298V22.4236H394.798H394.298V95.9878H394.798ZM394.798 22.4236V22.9236H430.844V22.4236V21.9236H394.798V22.4236ZM430.844 22.4236H430.344V153H430.844H431.344V22.4236H430.844ZM430.844 153V152.5H394.43V153V153.5H430.844V153ZM394.43 153L394.854 152.735L351.267 82.8494L350.843 83.114L350.419 83.3786L394.006 153.265L394.43 153ZM350.843 83.114H350.343V153H350.843H351.343V83.114H350.843ZM350.843 153V152.5H314.797V153V153.5H350.843V153ZM489.576 153H489.076V153.5H489.576V153ZM489.576 51.2975H490.076V50.7975H489.576V51.2975ZM451.507 51.2975H451.007V51.7975H451.507V51.2975ZM451.507 22.4236V21.9236H451.007V22.4236H451.507ZM563.876 22.4236H564.376V21.9236H563.876V22.4236ZM563.876 51.2975V51.7975H564.376V51.2975H563.876ZM525.807 51.2975V50.7975H525.307V51.2975H525.807ZM525.807 153V153.5H526.307V153H525.807ZM489.576 153H490.076V51.2975H489.576H489.076V153H489.576ZM489.576 51.2975V50.7975H451.507V51.2975V51.7975H489.576V51.2975ZM451.507 51.2975H452.007V22.4236H451.507H451.007V51.2975H451.507ZM451.507 22.4236V22.9236H563.876V22.4236V21.9236H451.507V22.4236ZM563.876 22.4236H563.376V51.2975H563.876H564.376V22.4236H563.876ZM563.876 51.2975V50.7975H525.807V51.2975V51.7975H563.876V51.2975ZM525.807 51.2975H525.307V153H525.807H526.307V51.2975H525.807ZM525.807 153V152.5H489.576V153V153.5H525.807V153ZM586.33 153H585.83V153.5H586.33V153ZM586.33 22.4236V21.9236H585.83V22.4236H586.33ZM683.067 22.4236H683.567V21.9236H683.067V22.4236ZM683.067 51.2975V51.7975H683.567V51.2975H683.067ZM622.377 51.2975V50.7975H621.877V51.2975H622.377ZM622.377 73.1829H621.877V73.6829H622.377V73.1829ZM680.86 73.1829H681.36V72.6829H680.86V73.1829ZM680.86 101.873V102.373H681.36V101.873H680.86ZM622.377 101.873V101.373H621.877V101.873H622.377ZM622.377 124.126H621.877V124.626H622.377V124.126ZM684.539 124.126H685.039V123.626H684.539V124.126ZM684.539 153V153.5H685.039V153H684.539ZM586.33 153H586.83V22.4236H586.33H585.83V153H586.33ZM586.33 22.4236V22.9236H683.067V22.4236V21.9236H586.33V22.4236ZM683.067 22.4236H682.567V51.2975H683.067H683.567V22.4236H683.067ZM683.067 51.2975V50.7975H622.377V51.2975V51.7975H683.067V51.2975ZM622.377 51.2975H621.877V73.1829H622.377H622.877V51.2975H622.377ZM622.377 73.1829V73.6829H680.86V73.1829V72.6829H622.377V73.1829ZM680.86 73.1829H680.36V101.873H680.86H681.36V73.1829H680.86ZM680.86 101.873V101.373H622.377V101.873V102.373H680.86V101.873ZM622.377 101.873H621.877V124.126H622.377H622.877V101.873H622.377ZM622.377 124.126V124.626H684.539V124.126V123.626H622.377V124.126ZM684.539 124.126H684.039V153H684.539H685.039V124.126H684.539ZM684.539 153V152.5H586.33V153V153.5H684.539V153ZM704.362 153L703.951 152.715L703.406 153.5H704.362V153ZM749.788 87.5279L750.199 87.8129L750.396 87.5282L750.199 87.2433L749.788 87.5279ZM704.73 22.4236V21.9236H703.776L704.319 22.7081L704.73 22.4236ZM746.294 22.4236L746.713 22.1514L746.565 21.9236H746.294V22.4236ZM771.121 60.6769L770.702 60.9492L771.131 61.6101L771.546 60.9405L771.121 60.6769ZM794.846 22.4236V21.9236H794.568L794.421 22.16L794.846 22.4236ZM836.778 22.4236L837.188 22.7084L837.732 21.9236H836.778V22.4236ZM791.903 87.1601L791.492 86.8752L791.296 87.1588L791.491 87.4432L791.903 87.1601ZM837.145 153V153.5H838.096L837.557 152.717L837.145 153ZM795.582 153L795.16 153.269L795.307 153.5H795.582V153ZM770.754 114.011L771.175 113.742L770.75 113.075L770.33 113.745L770.754 114.011ZM746.294 153V153.5H746.57L746.717 153.266L746.294 153ZM704.362 153L704.773 153.285L750.199 87.8129L749.788 87.5279L749.377 87.2429L703.951 152.715L704.362 153ZM749.788 87.5279L750.199 87.2433L705.141 22.139L704.73 22.4236L704.319 22.7081L749.377 87.8124L749.788 87.5279ZM704.73 22.4236V22.9236H746.294V22.4236V21.9236H704.73V22.4236ZM746.294 22.4236L745.874 22.6958L770.702 60.9492L771.121 60.6769L771.541 60.4047L746.713 22.1514L746.294 22.4236ZM771.121 60.6769L771.546 60.9405L795.271 22.6871L794.846 22.4236L794.421 22.16L770.697 60.4134L771.121 60.6769ZM794.846 22.4236V22.9236H836.778V22.4236V21.9236H794.846V22.4236ZM836.778 22.4236L836.367 22.1387L791.492 86.8752L791.903 87.1601L792.314 87.4449L837.188 22.7084L836.778 22.4236ZM791.903 87.1601L791.491 87.4432L836.733 153.283L837.145 153L837.557 152.717L792.315 86.8769L791.903 87.1601ZM837.145 153V152.5H795.582V153V153.5H837.145V153ZM795.582 153L796.003 152.731L771.175 113.742L770.754 114.011L770.332 114.28L795.16 153.269L795.582 153ZM770.754 114.011L770.33 113.745L745.87 152.734L746.294 153L746.717 153.266L771.177 114.277L770.754 114.011ZM746.294 153V152.5H704.362V153V153.5H746.294V153ZM889.603 153H889.103V153.5H889.603V153ZM889.603 51.2975H890.103V50.7975H889.603V51.2975ZM851.533 51.2975H851.033V51.7975H851.533V51.2975ZM851.533 22.4236V21.9236H851.033V22.4236H851.533ZM963.903 22.4236H964.403V21.9236H963.903V22.4236ZM963.903 51.2975V51.7975H964.403V51.2975H963.903ZM925.833 51.2975V50.7975H925.333V51.2975H925.833ZM925.833 153V153.5H926.333V153H925.833ZM889.603 153H890.103V51.2975H889.603H889.103V153H889.603ZM889.603 51.2975V50.7975H851.533V51.2975V51.7975H889.603V51.2975ZM851.533 51.2975H852.033V22.4236H851.533H851.033V51.2975H851.533ZM851.533 22.4236V22.9236H963.903V22.4236V21.9236H851.533V22.4236ZM963.903 22.4236H963.403V51.2975H963.903H964.403V22.4236H963.903ZM963.903 51.2975V50.7975H925.833V51.2975V51.7975H963.903V51.2975ZM925.833 51.2975H925.333V153H925.833H926.333V51.2975H925.833ZM925.833 153V152.5H889.603V153V153.5H925.833V153Z" fill="url(#paint0_linear_326_21)" mask="url(#path-1-outside-1_326_21)"/>
<defs>
<linearGradient id="paint0_linear_326_21" x1="172.611" y1="87.5" x2="670.024" y2="87.5" gradientUnits="userSpaceOnUse">
<stop stop-color="#00573F" stop-opacity="0"/>
<stop offset="0.387219" stop-color="#00573F"/>
<stop offset="1" stop-color="#00573F" stop-opacity="0"/>
</linearGradient>
</defs>
</svg>
