<svg width="93" height="393" viewBox="0 0 93 393" fill="none" xmlns="http://www.w3.org/2000/svg">
<rect opacity="0.25" x="-0.25" y="0.25" width="9.5" height="332.5" rx="4.75" transform="matrix(-1 0 0 1 55.5 29)" fill="url(#paint0_linear_319_20)" fill-opacity="0.3" stroke="black" stroke-width="0.5"/>
<path d="M34 73C34 60.8497 43.8497 51 56 51V340C43.8497 340 34 330.15 34 318V73Z" fill="#FAFCFB"/>
<path d="M55.75 339.746C43.853 339.612 34.25 329.929 34.25 318V73L34.2568 72.4385C34.5526 60.7687 44.0402 51.3848 55.75 51.2529V339.746Z" stroke="url(#paint1_linear_319_20)" stroke-opacity="0.25" stroke-width="0.5"/>
<path d="M46 81L46 313" stroke="#00573F" stroke-width="0.5"/>
<circle cx="88.0981" cy="4.9641" r="3" transform="rotate(30 88.0981 4.9641)" fill="black" fill-opacity="0.25"/>
<rect x="89.2319" y="1" width="2" height="7" transform="rotate(30 89.2319 1)" fill="#FAFCFB"/>
<circle cx="88.0981" cy="387.964" r="3" transform="rotate(30 88.0981 387.964)" fill="black" fill-opacity="0.25"/>
<rect x="89.2319" y="384" width="2" height="7" transform="rotate(30 89.2319 384)" fill="#FAFCFB"/>
<circle cx="4.09808" cy="4.9641" r="3" transform="rotate(30 4.09808 4.9641)" fill="black" fill-opacity="0.25"/>
<rect x="5.23206" y="1" width="2" height="7" transform="rotate(30 5.23206 1)" fill="#FAFCFB"/>
<circle cx="4.09808" cy="387.964" r="3" transform="rotate(30 4.09808 387.964)" fill="black" fill-opacity="0.25"/>
<rect x="5.23206" y="384" width="2" height="7" transform="rotate(30 5.23206 384)" fill="#FAFCFB"/>
<defs>
<linearGradient id="paint0_linear_319_20" x1="10" y1="166.5" x2="0" y2="166.5" gradientUnits="userSpaceOnUse">
<stop stop-color="#D9D9D9"/>
<stop offset="1" stop-color="#737373"/>
</linearGradient>
<linearGradient id="paint1_linear_319_20" x1="34" y1="195.5" x2="55.5" y2="195.5" gradientUnits="userSpaceOnUse">
<stop/>
<stop offset="0.997638" stop-opacity="0.1"/>
<stop offset="1"/>
</linearGradient>
</defs>
</svg>
