<svg width="63" height="12" viewBox="0 0 63 12" fill="none" xmlns="http://www.w3.org/2000/svg">
<path d="M6.66324 4.79334L9.51319 1.14552H6.30628L4.1168 3.9474L3.14206 5.19515V1.13906H0.61499V10.861H3.14206V6.80488L4.1168 8.05263L6.31094 10.861H9.51785L6.66288 7.20668C6.10896 6.49778 6.10896 5.5026 6.66288 4.79334H6.66324Z" fill="#00573F"/>
<path d="M18.081 2.35129C17.6039 1.88706 17.0346 1.524 16.3727 1.26175C15.7108 0.999498 14.9886 0.868553 14.2065 0.868553C13.4244 0.868553 12.6915 0.999857 12.0339 1.26175C11.3763 1.524 10.8109 1.88706 10.3384 2.35129C9.86556 2.81552 9.49604 3.35939 9.22949 3.98219C8.96293 4.60534 8.82983 5.27801 8.82983 6.00018C8.82983 6.72236 8.96293 7.39502 9.22949 8.01818C9.49568 8.6417 9.86556 9.18521 10.3384 9.64908C10.8109 10.1133 11.3763 10.4764 12.0339 10.7386C12.6915 11.0009 13.4154 11.1318 14.2065 11.1318C14.9975 11.1318 15.7108 11.0005 16.3727 10.7386C17.0346 10.4764 17.6039 10.1133 18.081 9.64908C18.5582 9.18485 18.9299 8.64134 19.1964 8.01818C19.4626 7.39502 19.5961 6.72236 19.5961 6.00018C19.5961 5.27801 19.4626 4.6057 19.1964 3.98219C18.9299 3.35903 18.5582 2.81516 18.081 2.35129ZM16.7336 7.07035C16.5872 7.39718 16.3874 7.68095 16.1341 7.92132C15.8804 8.16204 15.5881 8.34895 15.2573 8.48205C14.9262 8.61551 14.576 8.68188 14.2065 8.68188C13.837 8.68188 13.4865 8.61551 13.1557 8.48205C12.8246 8.34895 12.5347 8.16204 12.2854 7.92132C12.036 7.68059 11.8384 7.39718 11.6923 7.07035C11.546 6.74388 11.4731 6.38692 11.4731 6.00018C11.4731 5.61345 11.546 5.25684 11.6923 4.93002C11.8384 4.60355 12.036 4.31978 12.2854 4.07905C12.5347 3.83869 12.8246 3.65141 13.1557 3.51832C13.4865 3.38522 13.837 3.31849 14.2065 3.31849C14.576 3.31849 14.9262 3.38522 15.2573 3.51832C15.5881 3.65177 15.8804 3.83869 16.1341 4.07905C16.3874 4.31978 16.5876 4.60355 16.7336 4.93002C16.8796 5.25684 16.9528 5.61345 16.9528 6.00018C16.9528 6.38692 16.8796 6.74388 16.7336 7.07035Z" fill="#00573F"/>
<path d="M27.829 7.08291L23.1616 1.13906H20.6345V10.861H23.1616V4.91711L27.829 10.861H30.3435V1.13906H27.829V7.08291Z" fill="#00573F"/>
<path d="M31.407 3.27939H33.4831V10.861H36.0102V3.27939H38.0863V1.13906H31.407V3.27939Z" fill="#00573F"/>
<path d="M39.1497 10.861H44.6809V8.72063H41.6767V7.04453H44.5134V4.90419H41.6767V3.27939H44.6809V1.13906H39.1497V10.861Z" fill="#00573F"/>
<path d="M56.2109 1.13906V3.27939H58.2871V10.861H60.8141V3.27939H62.8899V1.13906H56.2109Z" fill="#00573F"/>
<path d="M52.6991 4.84141L55.408 1.14552H52.6008L50.4461 4.08479L48.2914 1.14552H45.4838L48.1928 4.84105C48.6982 5.53094 48.6982 6.46872 48.1928 7.15825L45.4741 10.8671H48.2817L50.4457 7.91522L52.6098 10.8671H55.4174L52.6991 7.15861C52.1936 6.46908 52.1936 5.53094 52.6991 4.84141Z" fill="#00573F"/>
</svg>
