<svg width="18" height="18" viewBox="0 0 18 18" fill="none" xmlns="http://www.w3.org/2000/svg">
<path d="M12.2502 9C11.8362 9 11.5002 8.664 11.5002 8.25V5C11.5002 3.622 10.3782 2.5 9.00024 2.5C7.62224 2.5 6.50024 3.622 6.50024 5V8.25C6.50024 8.664 6.16424 9 5.75024 9C5.33624 9 5.00024 8.664 5.00024 8.25V5C5.00024 2.794 6.79424 1 9.00024 1C11.2062 1 13.0002 2.794 13.0002 5V8.25C13.0002 8.664 12.6642 9 12.2502 9Z" fill="#00573F"/>
<path d="M12.75 7.5H5.25C3.733 7.5 2.5 8.733 2.5 10.25V14.25C2.5 15.767 3.733 17 5.25 17H12.75C14.267 17 15.5 15.767 15.5 14.25V10.25C15.5 8.733 14.267 7.5 12.75 7.5ZM9.75 12.75C9.75 13.164 9.414 13.5 9 13.5C8.586 13.5 8.25 13.164 8.25 12.75V11.75C8.25 11.336 8.586 11 9 11C9.414 11 9.75 11.336 9.75 11.75V12.75Z" fill="#00573F"/>
</svg>
