<svg width="351" height="600" viewBox="0 0 351 600" fill="none" xmlns="http://www.w3.org/2000/svg">
<g clip-path="url(#clip0_706_275)">
<rect width="351" height="600" fill="#FAFCFB"/>
<rect width="760" height="600" transform="translate(-204 24)" fill="#FAFCFB"/>
<path opacity="0.1" d="M241 253L275 195" stroke="black" stroke-width="1.04606"/>
<path opacity="0.1" d="M203.145 127.169L222.516 139.218" stroke="black" stroke-width="0.766911"/>
<path opacity="0.1" d="M19.0383 418.005L38.4097 405.956" stroke="black" stroke-width="0.766911"/>
<path opacity="0.1" d="M317.948 422.158L298.577 434.207" stroke="black" stroke-width="0.766911"/>
<path opacity="0.1" d="M93.3085 97.8792L222.517 139.218" stroke="black" stroke-width="0.766911"/>
<path opacity="0.1" d="M232.467 155.462L223.001 138.975" stroke="black" stroke-width="0.766911"/>
<path opacity="0.1" d="M48.3591 389.712L38.8941 406.199" stroke="black" stroke-width="0.766911"/>
<path opacity="0.1" d="M288.627 450.452L298.092 433.965" stroke="black" stroke-width="0.766911"/>
<path opacity="0.1" d="M201.053 158.028L222.638 138.854" stroke="black" stroke-width="0.766911"/>
<path opacity="0.1" d="M16.9465 387.147L38.5312 406.32" stroke="black" stroke-width="0.766911"/>
<path opacity="0.1" d="M320.041 453.017L298.456 433.844" stroke="black" stroke-width="0.766911"/>
<path opacity="0.1" d="M123.121 167.241L221.451 139.722" stroke="black" stroke-width="0.766911"/>
<path opacity="0.1" d="M224.067 163.258L222.638 138.854" stroke="black" stroke-width="0.766911"/>
<path opacity="0.1" d="M39.9596 381.916L38.5308 406.32" stroke="black" stroke-width="0.766911"/>
<path opacity="0.1" d="M297.027 458.247L298.456 433.844" stroke="black" stroke-width="0.766911"/>
<path opacity="0.1" d="M232.214 133.151L222.637 138.854" stroke="black" stroke-width="0.766911"/>
<path opacity="0.1" d="M48.1074 412.024L38.5304 406.321" stroke="black" stroke-width="0.766911"/>
<path opacity="0.1" d="M288.879 428.14L298.456 433.843" stroke="black" stroke-width="0.766911"/>
<path opacity="0.1" d="M123.121 168.108L177.217 91.5" stroke="black" stroke-width="1.04606"/>
<path opacity="0.1" d="M-43.382 92.8394L-8.15918 193.071" stroke="black" stroke-width="1.04606"/>
<path opacity="0.1" d="M413.926 452.828L344.886 391.823" stroke="black" stroke-width="0.5"/>
<path opacity="0.1" d="M88.6012 82.7111L166.217 90.9996" stroke="black" stroke-width="1.04606"/>
<path opacity="0.1" d="M-109.695 131.938L16.8401 227.393M16.8401 227.393L159.104 317.878M16.8401 227.393L124.061 166.199M16.8401 227.393L-62.6606 256.683M-89.8583 313.17L-62.6606 256.683M-62.6606 256.683L-117.056 224.255M-62.6606 256.683L-89.8583 262.959M-62.6606 256.683L-54.8151 231.054M-62.6606 256.683L-4.60415 302.187M-4.60415 302.187L26.7777 291.726L45.6068 294.341M-4.60415 302.187L5.85647 324.677L1.67222 337.23" stroke="black" stroke-width="1.04606"/>
<path opacity="0.1" d="M448.563 366.717L397.713 366.717L345.525 383.264" stroke="black" stroke-width="1.04606"/>
<path opacity="0.1" d="M302.521 534.087L364.238 540.887L412.357 535.656M433.477 470.496L412.357 535.656M412.357 535.656L390.913 521.535M412.357 535.656C415.286 535.656 445.657 544.374 460.476 548.732L499.703 535.656" stroke="black" stroke-width="0.523031"/>
<path opacity="0.1" d="M222.516 139.218L212.003 112.524" stroke="black" stroke-width="0.766911"/>
<path opacity="0.1" d="M37.3303 405L63.9243 448.118" stroke="black" stroke-width="0.766911"/>
<path opacity="0.1" d="M298.578 434.207L309.091 407.513" stroke="black" stroke-width="0.766911"/>
<path opacity="0.1" d="M335.472 107.294L232.717 88" stroke="black" stroke-width="1.04606"/>
<path opacity="0.1" d="M153.457 348.934L39.4365 462.052" stroke="black" stroke-width="0.5"/>
<path opacity="0.1" d="M213.772 360L259.902 446.392" stroke="black" stroke-width="0.5"/>
<g filter="url(#filter0_ddd_706_275)">
<path d="M85.4629 309.184C85.4629 260.077 125.272 220.268 174.378 220.268C223.485 220.268 263.294 260.077 263.294 309.184C263.294 358.29 223.485 398.099 174.378 398.099C125.272 398.099 85.4629 358.29 85.4629 309.184Z" fill="white"/>
<path d="M174.378 220.495C223.359 220.495 263.066 260.202 263.066 309.183C263.066 358.164 223.359 397.872 174.378 397.872C125.397 397.871 85.6895 358.164 85.6895 309.183C85.6897 260.202 125.397 220.495 174.378 220.495Z" stroke="black" stroke-opacity="0.15" stroke-width="0.454068"/>
<path d="M138.491 331.684L151.886 287.652H159.08L172.476 331.684H166.77L155.483 292.489L144.196 331.684H138.491ZM145.251 319.156L147.111 313.947H163.856L165.716 319.156H145.251ZM179.025 331.684V326.474H190.002V292.861H179.025V287.652H206.313V292.861H195.336V326.474H206.313V331.684H179.025Z" fill="#00573F"/>
</g>
<g filter="url(#filter1_ddd_706_275)">
<g clip-path="url(#clip1_706_275)">
<rect x="224" y="162" width="104.474" height="57.737" rx="16.737" fill="#00573F"/>
<path opacity="0.5" d="M261.616 184.369V175.456H263.147L266.31 183.138V175.456H267.39V184.369H265.858L262.695 176.686V184.369H261.616ZM268.59 184.369L271.301 175.456H272.757L275.469 184.369H274.314L272.029 176.435L269.745 184.369H268.59ZM269.958 181.833L270.335 180.779H273.724L274.101 181.833H269.958ZM279.079 183.364L277.397 176.46H277.497V184.369H276.418V175.456H278.05L279.807 182.787H279.305L281.062 175.456H282.694V184.369H281.615V176.46H281.715L280.033 183.364H279.079ZM284.447 184.369V175.456H289.87V176.511H285.526V179.385H289.719V180.415H285.526V183.314H289.97V184.369H284.447Z" fill="white"/>
<path d="M244.764 205.603C244.081 205.603 243.485 205.457 242.977 205.164C242.47 204.871 242.069 204.456 241.777 203.919C241.493 203.372 241.342 202.733 241.323 202L242.553 201.883C242.582 202.723 242.777 203.348 243.139 203.758C243.5 204.168 244.042 204.373 244.764 204.373C245.487 204.373 246.028 204.168 246.39 203.758C246.761 203.338 246.946 202.713 246.946 201.883V194.971H248.206V201.883C248.206 203.035 247.898 203.943 247.283 204.607C246.668 205.271 245.828 205.603 244.764 205.603ZM253.911 205.544C253.199 205.544 252.574 205.378 252.037 205.046C251.51 204.715 251.1 204.246 250.807 203.641C250.514 203.025 250.367 202.308 250.367 201.488C250.367 200.658 250.514 199.94 250.807 199.335C251.1 198.73 251.51 198.261 252.037 197.929C252.574 197.597 253.199 197.431 253.911 197.431C254.624 197.431 255.244 197.597 255.771 197.929C256.308 198.261 256.723 198.73 257.016 199.335C257.309 199.94 257.456 200.658 257.456 201.488C257.456 202.308 257.309 203.025 257.016 203.641C256.723 204.246 256.308 204.715 255.771 205.046C255.244 205.378 254.624 205.544 253.911 205.544ZM253.911 204.373C254.624 204.373 255.176 204.119 255.566 203.611C255.967 203.094 256.167 202.386 256.167 201.488C256.167 200.59 255.967 199.887 255.566 199.379C255.176 198.861 254.624 198.603 253.911 198.603C253.199 198.603 252.642 198.861 252.242 199.379C251.851 199.887 251.656 200.59 251.656 201.488C251.656 202.386 251.851 203.094 252.242 203.611C252.642 204.119 253.199 204.373 253.911 204.373ZM259.764 205.369V194.971H260.994V199.32L260.847 199.291C260.945 198.861 261.111 198.51 261.345 198.237C261.58 197.963 261.868 197.763 262.209 197.636C262.551 197.499 262.922 197.431 263.322 197.431C263.879 197.431 264.348 197.558 264.728 197.812C265.119 198.056 265.412 198.403 265.607 198.852C265.812 199.291 265.915 199.799 265.915 200.375V205.369H264.684V200.726C264.684 199.974 264.548 199.418 264.274 199.057C264.011 198.695 263.606 198.515 263.059 198.515C262.434 198.515 261.931 198.705 261.55 199.086C261.179 199.467 260.994 200.018 260.994 200.741V205.369H259.764ZM268.311 205.369V197.607H269.438L269.482 199.584L269.336 199.452C269.433 198.993 269.609 198.617 269.863 198.324C270.127 198.022 270.439 197.797 270.8 197.651C271.161 197.504 271.542 197.431 271.943 197.431C272.538 197.431 273.031 197.563 273.422 197.827C273.822 198.09 274.125 198.447 274.33 198.896C274.535 199.335 274.637 199.828 274.637 200.375V205.369H273.407V200.726C273.407 200.004 273.265 199.457 272.982 199.086C272.699 198.705 272.265 198.515 271.679 198.515C271.279 198.515 270.917 198.603 270.595 198.778C270.273 198.944 270.014 199.193 269.819 199.525C269.634 199.848 269.541 200.248 269.541 200.726V205.369H268.311ZM285.961 205.369V194.971H288.421C289.319 194.971 290.1 195.176 290.764 195.586C291.438 195.986 291.955 196.577 292.317 197.358C292.688 198.129 292.873 199.071 292.873 200.184C292.873 201.297 292.688 202.24 292.317 203.011C291.955 203.782 291.438 204.368 290.764 204.768C290.1 205.169 289.319 205.369 288.421 205.369H285.961ZM287.22 204.138H288.348C289.363 204.138 290.149 203.811 290.706 203.157C291.272 202.493 291.555 201.502 291.555 200.184C291.555 198.866 291.272 197.875 290.706 197.211C290.149 196.538 289.363 196.201 288.348 196.201H287.22V204.138ZM297.817 205.544C297.105 205.544 296.48 205.378 295.943 205.046C295.416 204.715 295.006 204.246 294.713 203.641C294.42 203.025 294.273 202.308 294.273 201.488C294.273 200.658 294.42 199.94 294.713 199.335C295.006 198.73 295.416 198.261 295.943 197.929C296.48 197.597 297.105 197.431 297.817 197.431C298.53 197.431 299.15 197.597 299.677 197.929C300.214 198.261 300.629 198.73 300.922 199.335C301.215 199.94 301.362 200.658 301.362 201.488C301.362 202.308 301.215 203.025 300.922 203.641C300.629 204.246 300.214 204.715 299.677 205.046C299.15 205.378 298.53 205.544 297.817 205.544ZM297.817 204.373C298.53 204.373 299.082 204.119 299.472 203.611C299.873 203.094 300.073 202.386 300.073 201.488C300.073 200.59 299.873 199.887 299.472 199.379C299.082 198.861 298.53 198.603 297.817 198.603C297.105 198.603 296.548 198.861 296.148 199.379C295.757 199.887 295.562 200.59 295.562 201.488C295.562 202.386 295.757 203.094 296.148 203.611C296.548 204.119 297.105 204.373 297.817 204.373ZM306.73 205.544C305.998 205.544 305.364 205.378 304.827 205.046C304.299 204.715 303.889 204.246 303.596 203.641C303.313 203.025 303.172 202.308 303.172 201.488C303.172 200.668 303.313 199.955 303.596 199.35C303.889 198.744 304.295 198.276 304.812 197.944C305.339 197.602 305.959 197.431 306.672 197.431C307.346 197.431 307.941 197.592 308.459 197.914C308.976 198.227 309.381 198.686 309.674 199.291C309.967 199.896 310.113 200.633 310.113 201.502V201.869H304.461C304.509 202.698 304.729 203.323 305.12 203.743C305.52 204.163 306.057 204.373 306.73 204.373C307.238 204.373 307.653 204.256 307.975 204.021C308.307 203.777 308.537 203.46 308.664 203.069L309.982 203.172C309.777 203.865 309.386 204.436 308.81 204.885C308.244 205.325 307.551 205.544 306.73 205.544ZM304.461 200.785H308.766C308.708 200.033 308.488 199.481 308.107 199.13C307.726 198.778 307.248 198.603 306.672 198.603C306.076 198.603 305.583 198.788 305.193 199.159C304.812 199.52 304.568 200.062 304.461 200.785Z" fill="white"/>
</g>
<rect x="224.166" y="162.166" width="104.142" height="57.4047" rx="16.5708" stroke="black" stroke-opacity="0.25" stroke-width="0.332313"/>
</g>
<g filter="url(#filter2_ddd_706_275)">
<g clip-path="url(#clip2_706_275)">
<rect x="155.717" y="68" width="86.474" height="35.737" rx="16.737" fill="#00573F"/>
<path d="M173.709 90.3682V81.4557H179.232V82.485H174.236L174.788 81.9578V86.05L174.236 85.4977H179.006V86.527H174.236L174.788 85.9747V90.3682H173.709ZM180.859 90.3682V81.4557H183.57C184.508 81.4557 185.248 81.6942 185.792 82.1712C186.336 82.6399 186.608 83.2884 186.608 84.1169C186.608 84.5353 186.512 84.9077 186.319 85.2341C186.127 85.5521 185.88 85.8031 185.579 85.9873C185.278 86.1714 184.968 86.276 184.65 86.3011L184.6 86.1504C185.194 86.1839 185.637 86.3262 185.93 86.5772C186.232 86.8283 186.407 87.2383 186.458 87.8074L186.684 90.3682H185.604L185.391 87.9455C185.365 87.6693 185.299 87.4476 185.19 87.2802C185.089 87.1044 184.926 86.9789 184.7 86.9036C184.483 86.8199 184.181 86.7781 183.796 86.7781H181.939V90.3682H180.859ZM181.939 85.7236H183.57C184.19 85.7236 184.663 85.5856 184.989 85.3094C185.315 85.0249 185.478 84.6274 185.478 84.1169C185.478 83.598 185.315 83.2005 184.989 82.9244C184.663 82.6482 184.19 82.5101 183.57 82.5101H181.939V85.7236ZM188.511 90.3682V89.3137H190.733V82.5101H188.511V81.4557H194.035V82.5101H191.813V89.3137H194.035V90.3682H188.511ZM196.164 90.3682V81.4557H201.586V82.5101H197.243V85.3847H201.436V86.414H197.243V89.3137H201.687V90.3682H196.164ZM203.439 90.3682V81.4557H204.971L208.134 89.138V81.4557H209.214V90.3682H207.682L204.519 82.6859V90.3682H203.439ZM211.217 90.3682V81.4557H213.326C214.096 81.4557 214.765 81.6315 215.334 81.9829C215.912 82.326 216.355 82.8323 216.665 83.5018C216.983 84.1629 217.142 84.9705 217.142 85.9245C217.142 86.8785 216.983 87.6861 216.665 88.3472C216.355 89.0083 215.912 89.5104 215.334 89.8535C214.765 90.1966 214.096 90.3682 213.326 90.3682H211.217ZM212.297 89.3137H213.263C214.134 89.3137 214.807 89.0334 215.284 88.4727C215.77 87.9036 216.012 87.0542 216.012 85.9245C216.012 84.7947 215.77 83.9453 215.284 83.3763C214.807 82.7989 214.134 82.5101 213.263 82.5101H212.297V89.3137ZM221.518 90.569C220.89 90.569 220.334 90.4393 219.848 90.1799C219.363 89.9204 218.974 89.5648 218.681 89.1129C218.388 88.6526 218.217 88.1212 218.166 87.5187L219.296 87.4434C219.355 87.8869 219.48 88.2635 219.673 88.5731C219.874 88.8828 220.129 89.1171 220.438 89.2761C220.756 89.4351 221.125 89.5146 221.543 89.5146C221.962 89.5146 222.313 89.4644 222.598 89.3639C222.882 89.2552 223.095 89.1003 223.238 88.8995C223.388 88.6903 223.464 88.4434 223.464 88.1589C223.464 87.8744 223.397 87.6275 223.263 87.4183C223.137 87.2007 222.895 86.9998 222.535 86.8157C222.183 86.6316 221.66 86.4433 220.966 86.2509C220.346 86.0751 219.844 85.8826 219.459 85.6734C219.083 85.4642 218.807 85.209 218.631 84.9077C218.463 84.6065 218.38 84.2341 218.38 83.7905C218.38 83.2884 218.497 82.8491 218.731 82.4725C218.974 82.0875 219.317 81.7905 219.761 81.5812C220.204 81.3637 220.731 81.2549 221.342 81.2549C221.953 81.2549 222.476 81.3804 222.911 81.6315C223.346 81.8741 223.69 82.2089 223.941 82.6357C224.2 83.0625 224.363 83.5478 224.43 84.0918L223.3 84.1671C223.25 83.8073 223.146 83.4893 222.987 83.2131C222.828 82.9286 222.61 82.7068 222.334 82.5478C222.058 82.3888 221.719 82.3093 221.317 82.3093C220.765 82.3093 220.325 82.4432 219.999 82.711C219.673 82.9704 219.51 83.3135 219.51 83.7403C219.51 84.0165 219.568 84.2466 219.685 84.4307C219.811 84.6065 220.028 84.7655 220.338 84.9077C220.648 85.0416 221.083 85.1881 221.644 85.3471C222.372 85.5479 222.949 85.7739 223.376 86.0249C223.811 86.276 224.121 86.5772 224.305 86.9287C224.497 87.2718 224.593 87.6902 224.593 88.184C224.593 88.6526 224.464 89.0669 224.204 89.4267C223.945 89.7866 223.585 90.0669 223.125 90.2677C222.664 90.4686 222.129 90.569 221.518 90.569Z" fill="white"/>
</g>
<rect x="155.883" y="68.1662" width="86.1417" height="35.4047" rx="16.5708" stroke="black" stroke-opacity="0.25" stroke-width="0.332313"/>
</g>
<g filter="url(#filter3_ddd_706_275)">
<g clip-path="url(#clip3_706_275)">
<rect x="35" y="446" width="116.474" height="35.737" rx="16.737" fill="#00573F"/>
<path d="M52.8666 468.369V459.456H55.578C56.1972 459.456 56.737 459.565 57.1973 459.783C57.6575 460 58.0132 460.314 58.2642 460.724C58.5153 461.126 58.6408 461.611 58.6408 462.18C58.6408 462.749 58.5153 463.239 58.2642 463.649C58.0132 464.051 57.6575 464.36 57.1973 464.578C56.737 464.795 56.1972 464.904 55.578 464.904H53.9461V468.369H52.8666ZM53.9461 463.85H55.4524C56.1554 463.85 56.6742 463.707 57.009 463.423C57.3437 463.13 57.5111 462.716 57.5111 462.18C57.5111 461.636 57.3437 461.222 57.009 460.937C56.6742 460.653 56.1554 460.511 55.4524 460.511H53.9461V463.85ZM60.1423 468.369V459.456H62.8536C63.7909 459.456 64.5315 459.695 65.0755 460.172C65.6194 460.64 65.8914 461.289 65.8914 462.117C65.8914 462.536 65.7952 462.908 65.6027 463.235C65.4102 463.553 65.1634 463.804 64.8621 463.988C64.5608 464.172 64.2512 464.276 63.9332 464.302L63.883 464.151C64.4771 464.184 64.9207 464.327 65.2136 464.578C65.5148 464.829 65.6906 465.239 65.7408 465.808L65.9667 468.369H64.8872L64.6738 465.946C64.6487 465.67 64.5817 465.448 64.473 465.281C64.3725 465.105 64.2093 464.979 63.9834 464.904C63.7658 464.82 63.4645 464.779 63.0796 464.779H61.2218V468.369H60.1423ZM61.2218 463.724H62.8536C63.4729 463.724 63.9457 463.586 64.2721 463.31C64.5985 463.025 64.7617 462.628 64.7617 462.117C64.7617 461.599 64.5985 461.201 64.2721 460.925C63.9457 460.649 63.4729 460.511 62.8536 460.511H61.2218V463.724ZM67.9201 468.369V459.456H73.3428V460.511H68.9996V463.385H73.1922V464.415H68.9996V467.314H73.4433V468.369H67.9201ZM75.5723 468.369V459.456H81.0955V460.486H76.0995L76.6519 459.958V464.051L76.0995 463.498H80.8696V464.528H76.0995L76.6519 463.975V468.369H75.5723ZM82.9735 468.369V459.456H88.3963V460.511H84.0531V463.385H88.2457V464.415H84.0531V467.314H88.4967V468.369H82.9735ZM90.2492 468.369V459.456H92.9606C93.8979 459.456 94.6385 459.695 95.1825 460.172C95.7264 460.64 95.9984 461.289 95.9984 462.117C95.9984 462.536 95.9021 462.908 95.7097 463.235C95.5172 463.553 95.2703 463.804 94.9691 463.988C94.6678 464.172 94.3582 464.276 94.0402 464.302L93.9899 464.151C94.5841 464.184 95.0276 464.327 95.3205 464.578C95.6218 464.829 95.7975 465.239 95.8478 465.808L96.0737 468.369H94.9942L94.7808 465.946C94.7557 465.67 94.6887 465.448 94.5799 465.281C94.4795 465.105 94.3163 464.979 94.0904 464.904C93.8728 464.82 93.5715 464.779 93.1866 464.779H91.3288V468.369H90.2492ZM91.3288 463.724H92.9606C93.5799 463.724 94.0527 463.586 94.3791 463.31C94.7055 463.025 94.8686 462.628 94.8686 462.117C94.8686 461.599 94.7055 461.201 94.3791 460.925C94.0527 460.649 93.5799 460.511 92.9606 460.511H91.3288V463.724ZM98.027 468.369V459.456H103.45V460.511H99.1066V463.385H103.299V464.415H99.1066V467.314H103.55V468.369H98.027ZM105.303 468.369V459.456H106.834L109.997 467.138V459.456H111.077V468.369H109.546L106.382 460.686V468.369H105.303ZM115.742 468.569C115.03 468.569 114.428 468.381 113.934 468.005C113.44 467.628 113.064 467.092 112.804 466.398C112.553 465.703 112.428 464.879 112.428 463.925C112.428 462.963 112.553 462.134 112.804 461.44C113.064 460.745 113.44 460.209 113.934 459.833C114.428 459.448 115.03 459.255 115.742 459.255C116.528 459.255 117.198 459.515 117.75 460.034C118.302 460.544 118.671 461.26 118.855 462.18L117.7 462.255C117.558 461.611 117.311 461.126 116.959 460.799C116.616 460.473 116.21 460.31 115.742 460.31C115.265 460.31 114.863 460.452 114.537 460.737C114.219 461.013 113.976 461.423 113.809 461.967C113.641 462.502 113.558 463.155 113.558 463.925C113.558 464.687 113.641 465.335 113.809 465.871C113.976 466.406 114.219 466.816 114.537 467.101C114.863 467.377 115.265 467.515 115.742 467.515C116.261 467.515 116.7 467.335 117.06 466.975C117.42 466.615 117.662 466.08 117.788 465.369L118.93 465.431C118.771 466.41 118.411 467.18 117.851 467.741C117.29 468.293 116.587 468.569 115.742 468.569ZM120.607 468.369V459.456H126.03V460.511H121.687V463.385H125.879V464.415H121.687V467.314H126.13V468.369H120.607ZM130.908 468.569C130.281 468.569 129.724 468.44 129.239 468.18C128.753 467.921 128.364 467.565 128.071 467.113C127.778 466.653 127.607 466.122 127.557 465.519L128.686 465.444C128.745 465.887 128.87 466.264 129.063 466.574C129.264 466.883 129.519 467.118 129.829 467.277C130.147 467.436 130.515 467.515 130.933 467.515C131.352 467.515 131.703 467.465 131.988 467.364C132.272 467.256 132.486 467.101 132.628 466.9C132.779 466.691 132.854 466.444 132.854 466.159C132.854 465.875 132.787 465.628 132.653 465.419C132.527 465.201 132.285 465 131.925 464.816C131.573 464.632 131.05 464.444 130.356 464.251C129.737 464.076 129.234 463.883 128.85 463.674C128.473 463.465 128.197 463.209 128.021 462.908C127.854 462.607 127.77 462.235 127.77 461.791C127.77 461.289 127.887 460.85 128.121 460.473C128.364 460.088 128.707 459.791 129.151 459.582C129.594 459.364 130.122 459.255 130.732 459.255C131.343 459.255 131.866 459.381 132.302 459.632C132.737 459.875 133.08 460.209 133.331 460.636C133.59 461.063 133.753 461.548 133.82 462.092L132.691 462.168C132.64 461.808 132.536 461.49 132.377 461.214C132.218 460.929 132 460.707 131.724 460.548C131.448 460.389 131.109 460.31 130.707 460.31C130.155 460.31 129.716 460.444 129.389 460.711C129.063 460.971 128.9 461.314 128.9 461.741C128.9 462.017 128.958 462.247 129.075 462.431C129.201 462.607 129.419 462.766 129.728 462.908C130.038 463.042 130.473 463.189 131.034 463.348C131.762 463.548 132.339 463.774 132.766 464.025C133.201 464.276 133.511 464.578 133.695 464.929C133.887 465.272 133.984 465.691 133.984 466.184C133.984 466.653 133.854 467.067 133.594 467.427C133.335 467.787 132.975 468.067 132.515 468.268C132.055 468.469 131.519 468.569 130.908 468.569Z" fill="white"/>
</g>
<rect x="35.1662" y="446.166" width="116.142" height="35.4047" rx="16.5708" stroke="black" stroke-opacity="0.25" stroke-width="0.332313"/>
</g>
<g filter="url(#filter4_ddd_706_275)">
<g clip-path="url(#clip4_706_275)">
<rect x="32" y="185" width="64.474" height="35.737" rx="16.737" fill="#00573F"/>
<path d="M51.9629 207.368V199.51H49.2389V198.456H55.7664V199.51H53.0424V207.368H51.9629ZM60.0294 207.569C59.3264 207.569 58.7281 207.389 58.2343 207.029C57.749 206.669 57.3766 206.142 57.1171 205.448C56.8661 204.753 56.7406 203.912 56.7406 202.924C56.7406 201.92 56.8661 201.071 57.1171 200.376C57.3766 199.682 57.749 199.154 58.2343 198.795C58.7281 198.435 59.3264 198.255 60.0294 198.255C60.7323 198.255 61.3265 198.435 61.8119 198.795C62.3056 199.154 62.678 199.682 62.9291 200.376C63.1885 201.071 63.3182 201.92 63.3182 202.924C63.3182 203.912 63.1885 204.753 62.9291 205.448C62.678 206.142 62.3056 206.669 61.8119 207.029C61.3265 207.389 60.7323 207.569 60.0294 207.569ZM60.0294 206.515C60.4897 206.515 60.8788 206.381 61.1968 206.113C61.5232 205.837 61.77 205.431 61.9374 204.895C62.1048 204.36 62.1885 203.703 62.1885 202.924C62.1885 202.146 62.1048 201.489 61.9374 200.954C61.77 200.41 61.5232 200 61.1968 199.724C60.8788 199.447 60.4897 199.309 60.0294 199.309C59.5691 199.309 59.1758 199.447 58.8494 199.724C58.5314 200 58.2887 200.41 58.1214 200.954C57.954 201.489 57.8703 202.146 57.8703 202.924C57.8703 203.703 57.954 204.36 58.1214 204.895C58.2887 205.431 58.5314 205.837 58.8494 206.113C59.1758 206.381 59.5691 206.515 60.0294 206.515ZM64.669 207.368V198.456H66.2004L69.3637 206.138V198.456H70.4433V207.368H68.9118L65.7485 199.686V207.368H64.669ZM72.4468 207.368V198.456H77.8696V199.51H73.5263V202.385H77.7189V203.414H73.5263V206.314H77.97V207.368H72.4468Z" fill="white"/>
</g>
<rect x="32.1662" y="185.166" width="64.1417" height="35.4047" rx="16.5708" stroke="black" stroke-opacity="0.25" stroke-width="0.332313"/>
</g>
<g filter="url(#filter5_ddd_706_275)">
<g clip-path="url(#clip5_706_275)">
<rect x="201" y="416" width="86.474" height="35.737" rx="16.737" fill="#00573F"/>
<path d="M218.49 438.369V429.456H219.57V433.787L219.017 433.36H223.988L223.436 433.787V429.456H224.515V438.369H223.436V433.988L223.988 434.415H219.017L219.57 433.988V438.369H218.49ZM226.268 438.369V437.314H228.49V430.511H226.268V429.456H231.791V430.511H229.569V437.314H231.791V438.369H226.268ZM236.694 438.569C236.067 438.569 235.51 438.44 235.025 438.18C234.539 437.921 234.15 437.565 233.857 437.113C233.564 436.653 233.393 436.122 233.343 435.519L234.472 435.444C234.531 435.887 234.656 436.264 234.849 436.574C235.05 436.883 235.305 437.118 235.615 437.277C235.933 437.436 236.301 437.515 236.719 437.515C237.138 437.515 237.489 437.465 237.774 437.364C238.058 437.256 238.272 437.101 238.414 436.9C238.565 436.691 238.64 436.444 238.64 436.159C238.64 435.875 238.573 435.628 238.439 435.419C238.314 435.201 238.071 435 237.711 434.816C237.36 434.632 236.836 434.444 236.142 434.251C235.523 434.076 235.021 433.883 234.636 433.674C234.259 433.465 233.983 433.209 233.807 432.908C233.64 432.607 233.556 432.235 233.556 431.791C233.556 431.289 233.673 430.85 233.907 430.473C234.15 430.088 234.493 429.791 234.937 429.582C235.38 429.364 235.908 429.255 236.518 429.255C237.129 429.255 237.652 429.381 238.088 429.632C238.523 429.875 238.866 430.209 239.117 430.636C239.376 431.063 239.539 431.548 239.606 432.092L238.477 432.168C238.426 431.808 238.322 431.49 238.163 431.214C238.004 430.929 237.786 430.707 237.51 430.548C237.234 430.389 236.895 430.31 236.493 430.31C235.941 430.31 235.502 430.444 235.175 430.711C234.849 430.971 234.686 431.314 234.686 431.741C234.686 432.017 234.744 432.247 234.862 432.431C234.987 432.607 235.205 432.766 235.514 432.908C235.824 433.042 236.259 433.189 236.82 433.348C237.548 433.548 238.125 433.774 238.552 434.025C238.987 434.276 239.297 434.578 239.481 434.929C239.673 435.272 239.77 435.691 239.77 436.184C239.77 436.653 239.64 437.067 239.38 437.427C239.121 437.787 238.761 438.067 238.301 438.268C237.841 438.469 237.305 438.569 236.694 438.569ZM243.543 438.369V430.511H240.819V429.456H247.347V430.511H244.623V438.369H243.543ZM251.61 438.569C250.907 438.569 250.308 438.39 249.815 438.03C249.329 437.67 248.957 437.143 248.697 436.448C248.446 435.753 248.321 434.912 248.321 433.925C248.321 432.921 248.446 432.071 248.697 431.377C248.957 430.682 249.329 430.155 249.815 429.795C250.308 429.435 250.907 429.255 251.61 429.255C252.313 429.255 252.907 429.435 253.392 429.795C253.886 430.155 254.258 430.682 254.509 431.377C254.769 432.071 254.898 432.921 254.898 433.925C254.898 434.912 254.769 435.753 254.509 436.448C254.258 437.143 253.886 437.67 253.392 438.03C252.907 438.39 252.313 438.569 251.61 438.569ZM251.61 437.515C252.07 437.515 252.459 437.381 252.777 437.113C253.103 436.837 253.35 436.431 253.518 435.896C253.685 435.36 253.769 434.703 253.769 433.925C253.769 433.147 253.685 432.49 253.518 431.954C253.35 431.41 253.103 431 252.777 430.724C252.459 430.448 252.07 430.31 251.61 430.31C251.149 430.31 250.756 430.448 250.43 430.724C250.112 431 249.869 431.41 249.702 431.954C249.534 432.49 249.451 433.147 249.451 433.925C249.451 434.703 249.534 435.36 249.702 435.896C249.869 436.431 250.112 436.837 250.43 437.113C250.756 437.381 251.149 437.515 251.61 437.515ZM256.249 438.369V429.456H258.961C259.898 429.456 260.639 429.695 261.182 430.172C261.726 430.64 261.998 431.289 261.998 432.117C261.998 432.536 261.902 432.908 261.71 433.235C261.517 433.553 261.27 433.804 260.969 433.988C260.668 434.172 260.358 434.276 260.04 434.302L259.99 434.151C260.584 434.184 261.028 434.327 261.321 434.578C261.622 434.829 261.798 435.239 261.848 435.808L262.074 438.369H260.994L260.781 435.946C260.756 435.67 260.689 435.448 260.58 435.281C260.48 435.105 260.316 434.979 260.09 434.904C259.873 434.82 259.572 434.779 259.187 434.779H257.329V438.369H256.249ZM257.329 433.724H258.961C259.58 433.724 260.053 433.586 260.379 433.31C260.705 433.025 260.869 432.628 260.869 432.117C260.869 431.599 260.705 431.201 260.379 430.925C260.053 430.649 259.58 430.511 258.961 430.511H257.329V433.724ZM266.136 438.369V434.728L263.399 429.456H264.63L266.663 433.624L268.697 429.456H269.927L267.215 434.728V438.369H266.136Z" fill="white"/>
</g>
<rect x="201.166" y="416.166" width="86.1417" height="35.4047" rx="16.5708" stroke="black" stroke-opacity="0.25" stroke-width="0.332313"/>
</g>
<circle cx="203.515" cy="127.016" r="1.53382" transform="rotate(18.4108 203.515 127.016)" fill="#00573F"/>
<circle cx="1.53382" cy="1.53382" r="1.53382" transform="matrix(0.948816 -0.315828 -0.315828 -0.948816 18.438 420.098)" fill="#00573F"/>
<circle cx="1.53382" cy="1.53382" r="1.53382" transform="matrix(-0.948816 0.315828 0.315828 0.948816 318.548 420.066)" fill="#00573F"/>
<circle cx="201.424" cy="158.398" r="1.53382" transform="rotate(18.4108 201.424 158.398)" fill="#00573F"/>
<circle cx="1.53382" cy="1.53382" r="1.53382" transform="matrix(0.948816 -0.315828 -0.315828 -0.948816 16.3457 388.716)" fill="#00573F"/>
<circle cx="1.53382" cy="1.53382" r="1.53382" transform="matrix(-0.948816 0.315828 0.315828 0.948816 320.641 451.448)" fill="#00573F"/>
<circle cx="224.135" cy="164.163" r="1.37754" transform="rotate(18.4108 224.135 164.163)" fill="#00573F"/>
<circle cx="1.37754" cy="1.37754" r="1.37754" transform="matrix(0.948816 -0.315828 -0.315828 -0.948816 39.1558 382.754)" fill="#00573F"/>
<circle cx="1.37754" cy="1.37754" r="1.37754" transform="matrix(-0.948816 0.315828 0.315828 0.948816 297.831 457.41)" fill="#00573F"/>
<circle cx="232.214" cy="133.151" r="1.15037" transform="rotate(18.4108 232.214 133.151)" fill="#00573F"/>
<circle cx="1.15037" cy="1.15037" r="1.15037" transform="matrix(0.948816 -0.315828 -0.315828 -0.948816 47.3799 413.479)" fill="#00573F"/>
<circle cx="1.15037" cy="1.15037" r="1.15037" transform="matrix(-0.948816 0.315828 0.315828 0.948816 289.607 426.686)" fill="#00573F"/>
<circle cx="232.466" cy="155.462" r="1.53382" transform="rotate(18.4108 232.466 155.462)" fill="#00573F"/>
<circle cx="1.53382" cy="1.53382" r="1.53382" transform="matrix(0.948816 -0.315828 -0.315828 -0.948816 47.3887 391.652)" fill="#00573F"/>
<circle cx="1.53382" cy="1.53382" r="1.53382" transform="matrix(-0.948816 0.315828 0.315828 0.948816 289.598 448.512)" fill="#00573F"/>
<path opacity="0.1" d="M150.319 179.615L123.121 168.108" stroke="black" stroke-width="1.04606"/>
<path opacity="0.1" d="M103.246 184.845L122.598 167.585" stroke="black" stroke-width="1.04606"/>
<path opacity="0.1" d="M124.167 181.707L123.121 167.585" stroke="black" stroke-width="1.04606"/>
<path opacity="0.1" d="M144.565 196.352L123.121 167.585" stroke="black" stroke-width="1.04606"/>
<path opacity="0.1" d="M100.108 139.721L123.121 167.585" stroke="black" stroke-width="1.04606"/>
<circle cx="2.09212" cy="2.09212" r="2.09212" transform="matrix(-1 0 0 1 152.411 177.523)" fill="#00573F"/>
<circle cx="2.09212" cy="2.09212" r="2.09212" transform="matrix(-1 0 0 1 146.135 194.26)" fill="#00573F"/>
<circle cx="1.04606" cy="1.04606" r="1.04606" transform="matrix(-1 0 0 1 125.213 180.661)" fill="#00573F"/>
<circle cx="1.56909" cy="1.56909" r="1.56909" transform="matrix(-1 0 0 1 101.154 137.629)" fill="#00573F"/>
<circle cx="2.09212" cy="2.09212" r="2.09212" transform="matrix(-1 0 0 1 105.338 182.753)" fill="#00573F"/>
<circle cx="123.121" cy="168.109" r="4.18425" fill="#00573F"/>
<path opacity="0.1" d="M102.723 69.1107L88.6016 82.1865" stroke="black" stroke-width="1.04606"/>
<path opacity="0.1" d="M68.7268 65.4496L88.0788 82.7097" stroke="black" stroke-width="1.04606"/>
<path opacity="0.1" d="M83.3713 63.3576L93.3088 97.3549" stroke="black" stroke-width="1.04606"/>
<path opacity="0.1" d="M83.3713 63.3576L93.3088 97.3549" stroke="black" stroke-width="1.04606"/>
<path opacity="0.1" d="M99.5852 139.721L93.3088 97.355" stroke="black" stroke-width="1.04606"/>
<path opacity="0.1" d="M101.677 50.2816L88.6016 82.7095" stroke="black" stroke-width="1.04606"/>
<path opacity="0.1" d="M69.2495 84.8018L88.6015 82.7096" stroke="black" stroke-width="1.04606"/>
<path opacity="0.1" d="M74.4795 102.585L88.6012 82.71" stroke="black" stroke-width="1.04606"/>
<circle cx="102.201" cy="69.6335" r="2.09212" transform="rotate(-180 102.201 69.6335)" fill="#00573F"/>
<circle cx="101.154" cy="50.8044" r="2.09212" transform="rotate(-180 101.154 50.8044)" fill="#00573F"/>
<circle cx="83.3709" cy="63.3573" r="1.04606" transform="rotate(-180 83.3709 63.3573)" fill="#00573F"/>
<circle cx="69.2493" cy="84.802" r="1.56909" transform="rotate(-180 69.2493 84.802)" fill="#00573F"/>
<circle cx="93.3092" cy="97.3546" r="2.61516" transform="rotate(-180 93.3092 97.3546)" fill="#00573F"/>
<circle cx="68.7262" cy="65.4494" r="2.09212" transform="rotate(-180 68.7262 65.4494)" fill="#00573F"/>
<circle cx="75.0031" cy="102.062" r="2.09212" transform="rotate(-180 75.0031 102.062)" fill="#00573F"/>
<circle cx="4.18425" cy="4.18425" r="4.18425" transform="matrix(1 0 0 -1 84.417 86.3711)" fill="#00573F"/>
<path opacity="0.1" d="M345.41 293.493L351.686 320.691M345.41 293.493L223.544 163.782M345.41 293.493L410.789 289.832M345.41 293.493L311.413 283.556M351.686 320.691L398.236 366.717M351.686 320.691L361.101 307.092M351.686 320.691C350.849 320.691 319.258 303.256 303.567 294.539M398.236 366.717L392.483 394.961M398.236 366.717L412.881 379.793M410.789 289.832L462.046 307.092M410.789 289.832L398.236 271.526M410.789 289.832L414.45 304.477M410.789 289.832L415.496 278.325M410.789 289.832L392.483 291.924" stroke="black" stroke-width="0.523031"/>
<circle cx="4.70728" cy="4.70728" r="4.70728" transform="matrix(1 0 0 -1 339.657 298.723)" fill="#00573F"/>
<circle cx="2.61516" cy="2.61516" r="2.61516" transform="matrix(1 0 0 -1 309.321 286.17)" fill="#00573F"/>
<circle cx="2.61516" cy="2.61516" r="2.61516" transform="matrix(1 0 0 -1 301.998 297.677)" fill="#00573F"/>
<circle cx="2.61516" cy="2.61516" r="2.61516" transform="matrix(1 0 0 -1 349.071 323.829)" fill="#00573F"/>
<circle cx="2.44044" cy="2.44044" r="2.44044" transform="matrix(0.0125879 -0.999921 -0.999921 -0.0125879 3.52002 268.099)" fill="#00573F"/>
<circle cx="1.51391" cy="1.51391" r="1.51391" transform="matrix(0.0125879 -0.999921 -0.999921 -0.0125879 22.5889 268.315)" fill="#00573F"/>
<path opacity="0.1" d="M303.3 534.32L284.672 529.483" stroke="black" stroke-width="1.04606"/>
<path opacity="0.1" d="M275.082 553.632L283.964 529.269" stroke="black" stroke-width="1.04606"/>
<path opacity="0.1" d="M288.974 548.546L281.642 513.893" stroke="black" stroke-width="1.04606"/>
<path opacity="0.1" d="M288.974 548.546L281.642 513.893" stroke="black" stroke-width="1.04606"/>
<path opacity="0.1" d="M311.288 551.403L284.425 529.022" stroke="black" stroke-width="1.04606"/>
<path opacity="0.1" d="M266.386 536.335L284.424 529.022" stroke="black" stroke-width="1.04606"/>
<path opacity="0.1" d="M262.579 518.194L284.424 529.022" stroke="black" stroke-width="0.523031"/>
<circle cx="2.09212" cy="2.09212" r="2.09212" transform="matrix(-0.88097 0.473173 0.473173 0.88097 303.445 531.274)" fill="#00573F"/>
<circle cx="2.09212" cy="2.09212" r="2.09212" transform="matrix(-0.88097 0.473173 0.473173 0.88097 311.433 548.356)" fill="#00573F"/>
<circle cx="1.04606" cy="1.04606" r="1.04606" transform="matrix(-0.88097 0.473173 0.473173 0.88097 289.4 547.129)" fill="#00573F"/>
<circle cx="1.56909" cy="1.56909" r="1.56909" transform="matrix(-0.88097 0.473173 0.473173 0.88097 267.026 534.211)" fill="#00573F"/>
<circle cx="2.61516" cy="2.61516" r="2.61516" transform="matrix(-0.88097 0.473173 0.473173 0.88097 282.708 510.352)" fill="#00573F"/>
<circle cx="2.09212" cy="2.09212" r="2.09212" transform="matrix(-0.88097 0.473173 0.473173 0.88097 275.935 550.799)" fill="#00573F"/>
<circle cx="2.09212" cy="2.09212" r="2.09212" transform="matrix(-0.88097 0.473173 0.473173 0.88097 264.141 515.575)" fill="#00573F"/>
<circle cx="284.672" cy="529.483" r="4.18425" transform="rotate(-28.2404 284.672 529.483)" fill="#00573F"/>
<circle cx="3.06764" cy="3.06764" r="3.06764" transform="matrix(-0.948816 -0.315828 -0.315828 0.948816 226.396 137.276)" fill="#00573F"/>
<circle cx="38.4096" cy="405.957" r="3.06764" transform="rotate(161.589 38.4096 405.957)" fill="#00573F"/>
<circle cx="298.577" cy="434.207" r="3.06764" transform="rotate(-18.4108 298.577 434.207)" fill="#00573F"/>
</g>
<defs>
<filter id="filter0_ddd_706_275" x="71.8408" y="217.544" width="205.075" height="216.881" filterUnits="userSpaceOnUse" color-interpolation-filters="sRGB">
<feFlood flood-opacity="0" result="BackgroundImageFix"/>
<feColorMatrix in="SourceAlpha" type="matrix" values="0 0 0 0 0 0 0 0 0 0 0 0 0 0 0 0 0 0 127 0" result="hardAlpha"/>
<feOffset dy="2.72441"/>
<feGaussianBlur stdDeviation="2.72441"/>
<feColorMatrix type="matrix" values="0 0 0 0 0 0 0 0 0 0 0 0 0 0 0 0 0 0 0.02 0"/>
<feBlend mode="normal" in2="BackgroundImageFix" result="effect1_dropShadow_706_275"/>
<feColorMatrix in="SourceAlpha" type="matrix" values="0 0 0 0 0 0 0 0 0 0 0 0 0 0 0 0 0 0 127 0" result="hardAlpha"/>
<feOffset dy="9.9895"/>
<feGaussianBlur stdDeviation="4.99475"/>
<feColorMatrix type="matrix" values="0 0 0 0 0 0 0 0 0 0 0 0 0 0 0 0 0 0 0.02 0"/>
<feBlend mode="normal" in2="effect1_dropShadow_706_275" result="effect2_dropShadow_706_275"/>
<feColorMatrix in="SourceAlpha" type="matrix" values="0 0 0 0 0 0 0 0 0 0 0 0 0 0 0 0 0 0 127 0" result="hardAlpha"/>
<feOffset dy="22.7034"/>
<feGaussianBlur stdDeviation="6.81102"/>
<feColorMatrix type="matrix" values="0 0 0 0 0 0 0 0 0 0 0 0 0 0 0 0 0 0 0.01 0"/>
<feBlend mode="normal" in2="effect2_dropShadow_706_275" result="effect3_dropShadow_706_275"/>
<feBlend mode="normal" in="SourceGraphic" in2="effect3_dropShadow_706_275" result="shape"/>
</filter>
<filter id="filter1_ddd_706_275" x="210.707" y="159.341" width="131.059" height="95.6204" filterUnits="userSpaceOnUse" color-interpolation-filters="sRGB">
<feFlood flood-opacity="0" result="BackgroundImageFix"/>
<feColorMatrix in="SourceAlpha" type="matrix" values="0 0 0 0 0 0 0 0 0 0 0 0 0 0 0 0 0 0 127 0" result="hardAlpha"/>
<feOffset dy="2.6585"/>
<feGaussianBlur stdDeviation="2.6585"/>
<feColorMatrix type="matrix" values="0 0 0 0 0 0 0 0 0 0 0 0 0 0 0 0 0 0 0.02 0"/>
<feBlend mode="normal" in2="BackgroundImageFix" result="effect1_dropShadow_706_275"/>
<feColorMatrix in="SourceAlpha" type="matrix" values="0 0 0 0 0 0 0 0 0 0 0 0 0 0 0 0 0 0 127 0" result="hardAlpha"/>
<feOffset dy="9.96938"/>
<feGaussianBlur stdDeviation="4.98469"/>
<feColorMatrix type="matrix" values="0 0 0 0 0 0 0 0 0 0 0 0 0 0 0 0 0 0 0.02 0"/>
<feBlend mode="normal" in2="effect1_dropShadow_706_275" result="effect2_dropShadow_706_275"/>
<feColorMatrix in="SourceAlpha" type="matrix" values="0 0 0 0 0 0 0 0 0 0 0 0 0 0 0 0 0 0 127 0" result="hardAlpha"/>
<feOffset dy="21.9326"/>
<feGaussianBlur stdDeviation="6.64625"/>
<feColorMatrix type="matrix" values="0 0 0 0 0 0 0 0 0 0 0 0 0 0 0 0 0 0 0.01 0"/>
<feBlend mode="normal" in2="effect2_dropShadow_706_275" result="effect3_dropShadow_706_275"/>
<feBlend mode="normal" in="SourceGraphic" in2="effect3_dropShadow_706_275" result="shape"/>
</filter>
<filter id="filter2_ddd_706_275" x="142.424" y="65.3415" width="113.059" height="73.6204" filterUnits="userSpaceOnUse" color-interpolation-filters="sRGB">
<feFlood flood-opacity="0" result="BackgroundImageFix"/>
<feColorMatrix in="SourceAlpha" type="matrix" values="0 0 0 0 0 0 0 0 0 0 0 0 0 0 0 0 0 0 127 0" result="hardAlpha"/>
<feOffset dy="2.6585"/>
<feGaussianBlur stdDeviation="2.6585"/>
<feColorMatrix type="matrix" values="0 0 0 0 0 0 0 0 0 0 0 0 0 0 0 0 0 0 0.02 0"/>
<feBlend mode="normal" in2="BackgroundImageFix" result="effect1_dropShadow_706_275"/>
<feColorMatrix in="SourceAlpha" type="matrix" values="0 0 0 0 0 0 0 0 0 0 0 0 0 0 0 0 0 0 127 0" result="hardAlpha"/>
<feOffset dy="9.96938"/>
<feGaussianBlur stdDeviation="4.98469"/>
<feColorMatrix type="matrix" values="0 0 0 0 0 0 0 0 0 0 0 0 0 0 0 0 0 0 0.02 0"/>
<feBlend mode="normal" in2="effect1_dropShadow_706_275" result="effect2_dropShadow_706_275"/>
<feColorMatrix in="SourceAlpha" type="matrix" values="0 0 0 0 0 0 0 0 0 0 0 0 0 0 0 0 0 0 127 0" result="hardAlpha"/>
<feOffset dy="21.9326"/>
<feGaussianBlur stdDeviation="6.64625"/>
<feColorMatrix type="matrix" values="0 0 0 0 0 0 0 0 0 0 0 0 0 0 0 0 0 0 0.01 0"/>
<feBlend mode="normal" in2="effect2_dropShadow_706_275" result="effect3_dropShadow_706_275"/>
<feBlend mode="normal" in="SourceGraphic" in2="effect3_dropShadow_706_275" result="shape"/>
</filter>
<filter id="filter3_ddd_706_275" x="21.7075" y="443.341" width="143.059" height="73.6204" filterUnits="userSpaceOnUse" color-interpolation-filters="sRGB">
<feFlood flood-opacity="0" result="BackgroundImageFix"/>
<feColorMatrix in="SourceAlpha" type="matrix" values="0 0 0 0 0 0 0 0 0 0 0 0 0 0 0 0 0 0 127 0" result="hardAlpha"/>
<feOffset dy="2.6585"/>
<feGaussianBlur stdDeviation="2.6585"/>
<feColorMatrix type="matrix" values="0 0 0 0 0 0 0 0 0 0 0 0 0 0 0 0 0 0 0.02 0"/>
<feBlend mode="normal" in2="BackgroundImageFix" result="effect1_dropShadow_706_275"/>
<feColorMatrix in="SourceAlpha" type="matrix" values="0 0 0 0 0 0 0 0 0 0 0 0 0 0 0 0 0 0 127 0" result="hardAlpha"/>
<feOffset dy="9.96938"/>
<feGaussianBlur stdDeviation="4.98469"/>
<feColorMatrix type="matrix" values="0 0 0 0 0 0 0 0 0 0 0 0 0 0 0 0 0 0 0.02 0"/>
<feBlend mode="normal" in2="effect1_dropShadow_706_275" result="effect2_dropShadow_706_275"/>
<feColorMatrix in="SourceAlpha" type="matrix" values="0 0 0 0 0 0 0 0 0 0 0 0 0 0 0 0 0 0 127 0" result="hardAlpha"/>
<feOffset dy="21.9326"/>
<feGaussianBlur stdDeviation="6.64625"/>
<feColorMatrix type="matrix" values="0 0 0 0 0 0 0 0 0 0 0 0 0 0 0 0 0 0 0.01 0"/>
<feBlend mode="normal" in2="effect2_dropShadow_706_275" result="effect3_dropShadow_706_275"/>
<feBlend mode="normal" in="SourceGraphic" in2="effect3_dropShadow_706_275" result="shape"/>
</filter>
<filter id="filter4_ddd_706_275" x="18.7075" y="182.341" width="91.0591" height="73.6204" filterUnits="userSpaceOnUse" color-interpolation-filters="sRGB">
<feFlood flood-opacity="0" result="BackgroundImageFix"/>
<feColorMatrix in="SourceAlpha" type="matrix" values="0 0 0 0 0 0 0 0 0 0 0 0 0 0 0 0 0 0 127 0" result="hardAlpha"/>
<feOffset dy="2.6585"/>
<feGaussianBlur stdDeviation="2.6585"/>
<feColorMatrix type="matrix" values="0 0 0 0 0 0 0 0 0 0 0 0 0 0 0 0 0 0 0.02 0"/>
<feBlend mode="normal" in2="BackgroundImageFix" result="effect1_dropShadow_706_275"/>
<feColorMatrix in="SourceAlpha" type="matrix" values="0 0 0 0 0 0 0 0 0 0 0 0 0 0 0 0 0 0 127 0" result="hardAlpha"/>
<feOffset dy="9.96938"/>
<feGaussianBlur stdDeviation="4.98469"/>
<feColorMatrix type="matrix" values="0 0 0 0 0 0 0 0 0 0 0 0 0 0 0 0 0 0 0.02 0"/>
<feBlend mode="normal" in2="effect1_dropShadow_706_275" result="effect2_dropShadow_706_275"/>
<feColorMatrix in="SourceAlpha" type="matrix" values="0 0 0 0 0 0 0 0 0 0 0 0 0 0 0 0 0 0 127 0" result="hardAlpha"/>
<feOffset dy="21.9326"/>
<feGaussianBlur stdDeviation="6.64625"/>
<feColorMatrix type="matrix" values="0 0 0 0 0 0 0 0 0 0 0 0 0 0 0 0 0 0 0.01 0"/>
<feBlend mode="normal" in2="effect2_dropShadow_706_275" result="effect3_dropShadow_706_275"/>
<feBlend mode="normal" in="SourceGraphic" in2="effect3_dropShadow_706_275" result="shape"/>
</filter>
<filter id="filter5_ddd_706_275" x="187.707" y="413.341" width="113.059" height="73.6204" filterUnits="userSpaceOnUse" color-interpolation-filters="sRGB">
<feFlood flood-opacity="0" result="BackgroundImageFix"/>
<feColorMatrix in="SourceAlpha" type="matrix" values="0 0 0 0 0 0 0 0 0 0 0 0 0 0 0 0 0 0 127 0" result="hardAlpha"/>
<feOffset dy="2.6585"/>
<feGaussianBlur stdDeviation="2.6585"/>
<feColorMatrix type="matrix" values="0 0 0 0 0 0 0 0 0 0 0 0 0 0 0 0 0 0 0.02 0"/>
<feBlend mode="normal" in2="BackgroundImageFix" result="effect1_dropShadow_706_275"/>
<feColorMatrix in="SourceAlpha" type="matrix" values="0 0 0 0 0 0 0 0 0 0 0 0 0 0 0 0 0 0 127 0" result="hardAlpha"/>
<feOffset dy="9.96938"/>
<feGaussianBlur stdDeviation="4.98469"/>
<feColorMatrix type="matrix" values="0 0 0 0 0 0 0 0 0 0 0 0 0 0 0 0 0 0 0.02 0"/>
<feBlend mode="normal" in2="effect1_dropShadow_706_275" result="effect2_dropShadow_706_275"/>
<feColorMatrix in="SourceAlpha" type="matrix" values="0 0 0 0 0 0 0 0 0 0 0 0 0 0 0 0 0 0 127 0" result="hardAlpha"/>
<feOffset dy="21.9326"/>
<feGaussianBlur stdDeviation="6.64625"/>
<feColorMatrix type="matrix" values="0 0 0 0 0 0 0 0 0 0 0 0 0 0 0 0 0 0 0.01 0"/>
<feBlend mode="normal" in2="effect2_dropShadow_706_275" result="effect3_dropShadow_706_275"/>
<feBlend mode="normal" in="SourceGraphic" in2="effect3_dropShadow_706_275" result="shape"/>
</filter>
<clipPath id="clip0_706_275">
<rect width="351" height="600" fill="white"/>
</clipPath>
<clipPath id="clip1_706_275">
<rect x="224" y="162" width="104.474" height="57.737" rx="16.737" fill="white"/>
</clipPath>
<clipPath id="clip2_706_275">
<rect x="155.717" y="68" width="86.474" height="35.737" rx="16.737" fill="white"/>
</clipPath>
<clipPath id="clip3_706_275">
<rect x="35" y="446" width="116.474" height="35.737" rx="16.737" fill="white"/>
</clipPath>
<clipPath id="clip4_706_275">
<rect x="32" y="185" width="64.474" height="35.737" rx="16.737" fill="white"/>
</clipPath>
<clipPath id="clip5_706_275">
<rect x="201" y="416" width="86.474" height="35.737" rx="16.737" fill="white"/>
</clipPath>
</defs>
</svg>
