<svg
  xmlns="http://www.w3.org/2000/svg"
  width="20"
  height="22"
  viewBox="0 0 20 22"
  fill="none"
>
  <path
    d="M19.8823 7.1324C19.8823 6.67463 19.6574 6.24627 19.28 5.98725L11.2984 0.500096C10.522 -0.0340898 9.4777 -0.0340898 8.70135 0.500096L0.719415 5.98725C0.342005 6.24663 0.117065 6.67499 0.117065 7.1324C0.117065 7.58981 0.342005 8.01852 0.719415 8.27755L1.86671 9.06609L0.719415 9.85463C0.342005 10.114 0.117065 10.5424 0.117065 10.9998C0.117065 11.4572 0.342005 11.8859 0.719415 12.1449L1.86671 12.9335L0.719415 13.722C0.342005 13.9814 0.117065 14.4097 0.117065 14.8672C0.117065 15.3246 0.342005 15.7533 0.719415 16.0123L8.70135 21.4995C9.08953 21.7667 9.54515 21.9005 10 21.9005C10.4549 21.9005 10.9106 21.7667 11.2987 21.4995L19.2807 16.0123C19.6581 15.7529 19.883 15.3246 19.883 14.8672C19.883 14.4097 19.6581 13.981 19.2807 13.722L18.1334 12.9335L19.2807 12.1449C19.6581 11.8855 19.883 11.4572 19.883 10.9998C19.883 10.5424 19.6581 10.1137 19.2807 9.85463L18.1334 9.06609L19.2807 8.27755C19.6581 8.01817 19.883 7.58981 19.883 7.1324H19.8823ZM1.12481 11.5551C0.939332 11.4278 0.83314 11.2251 0.83314 11.0001C0.83314 10.7752 0.938973 10.5725 1.12481 10.4451L2.49848 9.50126L4.67935 11.0005L2.49848 12.4997L1.12481 11.5558V11.5551ZM8.70135 13.7647C9.08953 14.032 9.54515 14.1658 10 14.1658C10.4549 14.1658 10.9106 14.032 11.2987 13.7647L14.6879 11.4349L16.8688 12.9342L10.8926 17.0426C10.3592 17.41 9.64129 17.41 9.10782 17.0426L3.13168 12.9342L5.31255 11.4349L8.70171 13.7647H8.70135ZM5.9436 11.0001L9.10711 8.82572C9.64057 8.45836 10.3584 8.45836 10.8919 8.82572L14.0554 11.0001L10.8919 13.1746C10.3584 13.5419 9.64057 13.5419 9.10711 13.1746L5.9436 11.0001ZM11.2984 8.23557C10.522 7.70139 9.4777 7.70139 8.70135 8.23557L5.3122 10.5653L3.13132 9.06609L9.10746 4.95763C9.64093 4.59026 10.3588 4.59026 10.8923 4.95763L16.8684 9.06609L14.6875 10.5653L11.2984 8.23557ZM18.8746 14.3129C19.06 14.4402 19.1662 14.6429 19.1662 14.8679C19.1662 15.0928 19.0604 15.2955 18.8746 15.4229L10.8923 20.91C10.3588 21.2774 9.64093 21.2774 9.10746 20.91L1.12481 15.4229C0.939332 15.2955 0.83314 15.0928 0.83314 14.8679C0.83314 14.6429 0.938973 14.4402 1.12481 14.3129L2.49848 13.369L8.701 17.6328C9.08917 17.9001 9.54479 18.0339 9.99969 18.0339C10.4546 18.0339 10.9102 17.9001 11.2984 17.6328L17.5009 13.369L18.8746 14.3129ZM18.8746 10.4451C19.06 10.5725 19.1662 10.7752 19.1662 11.0001C19.1662 11.2251 19.0604 11.4278 18.8746 11.5551L17.5009 12.499L15.32 10.9998L17.5009 9.50054L18.8746 10.4444V10.4451ZM18.8746 7.68739L17.5009 8.63128L11.2984 4.36748C10.522 3.83329 9.4777 3.83329 8.70135 4.36748L2.49884 8.63128L1.12517 7.68739C0.939691 7.56004 0.833499 7.35734 0.833499 7.1324C0.833499 6.90746 0.939332 6.70476 1.12517 6.57741L9.10746 1.09025C9.64093 0.722883 10.3588 0.722883 10.8923 1.09025L18.8746 6.57741C19.06 6.70476 19.1662 6.90746 19.1662 7.1324C19.1662 7.35734 19.0604 7.56004 18.8746 7.68739Z"
    fill="#00573F"
  />
</svg>
