<svg width="86" height="22" viewBox="0 0 86 22" fill="none" xmlns="http://www.w3.org/2000/svg">
<g clip-path="url(#clip0_230_1925)">
<path d="M19.7652 7.13219C19.7652 6.67441 19.5403 6.24606 19.1629 5.98704L11.1813 0.499883C10.405 -0.0343034 9.36063 -0.0343034 8.58429 0.499883L0.60235 5.98704C0.224939 6.24642 0 6.67477 0 7.13219C0 7.5896 0.224939 8.01831 0.60235 8.27733L1.74965 9.06588L0.60235 9.85442C0.224939 10.1138 0 10.5422 0 10.9996C0 11.457 0.224939 11.8857 0.60235 12.1447L1.74965 12.9333L0.60235 13.7218C0.224939 13.9812 0 14.4095 0 14.8669C0 15.3244 0.224939 15.7531 0.60235 16.0121L8.58429 21.4992C8.97246 21.7665 9.42808 21.9003 9.88298 21.9003C10.3379 21.9003 10.7935 21.7665 11.1817 21.4992L19.1636 16.0121C19.541 15.7527 19.766 15.3244 19.766 14.8669C19.766 14.4095 19.541 13.9808 19.1636 13.7218L18.0163 12.9333L19.1636 12.1447C19.541 11.8853 19.766 11.457 19.766 10.9996C19.766 10.5422 19.541 10.1134 19.1636 9.85442L18.0163 9.06588L19.1636 8.27733C19.541 8.01795 19.766 7.5896 19.766 7.13219H19.7652ZM1.00774 11.5549C0.822266 11.4276 0.716075 11.2249 0.716075 10.9999C0.716075 10.775 0.821908 10.5723 1.00774 10.4449L2.38142 9.50105L4.56229 11.0003L2.38142 12.4995L1.00774 11.5556V11.5549ZM8.58429 13.7645C8.97246 14.0318 9.42808 14.1656 9.88298 14.1656C10.3379 14.1656 10.7935 14.0318 11.1817 13.7645L14.5708 11.4347L16.7517 12.934L10.7756 17.0424C10.2421 17.4098 9.52423 17.4098 8.99076 17.0424L3.01462 12.934L5.19549 11.4347L8.58465 13.7645H8.58429ZM5.82654 10.9999L8.99004 8.82551C9.52351 8.45815 10.2414 8.45815 10.7748 8.82551L13.9383 10.9999L10.7748 13.1743C10.2414 13.5417 9.52351 13.5417 8.99004 13.1743L5.82654 10.9999ZM11.1813 8.23536C10.405 7.70117 9.36063 7.70117 8.58429 8.23536L5.19513 10.5651L3.01426 9.06588L8.9904 4.95741C9.52387 4.59005 10.2417 4.59005 10.7752 4.95741L16.7513 9.06588L14.5705 10.5651L11.1813 8.23536ZM18.7575 14.3127C18.943 14.44 19.0492 14.6427 19.0492 14.8677C19.0492 15.0926 18.9433 15.2953 18.7575 15.4227L10.7752 20.9098C10.2417 21.2772 9.52387 21.2772 8.9904 20.9098L1.00774 15.4227C0.822266 15.2953 0.716075 15.0926 0.716075 14.8677C0.716075 14.6427 0.821908 14.44 1.00774 14.3127L2.38142 13.3688L8.58393 17.6326C8.9721 17.8999 9.42772 18.0337 9.88262 18.0337C10.3375 18.0337 10.7931 17.8999 11.1813 17.6326L17.3838 13.3688L18.7575 14.3127ZM18.7575 10.4449C18.943 10.5723 19.0492 10.775 19.0492 10.9999C19.0492 11.2249 18.9433 11.4276 18.7575 11.5549L17.3838 12.4988L15.203 10.9996L17.3838 9.50033L18.7575 10.4442V10.4449ZM18.7575 7.68718L17.3838 8.63106L11.1813 4.36726C10.405 3.83308 9.36063 3.83308 8.58429 4.36726L2.38177 8.63106L1.0081 7.68718C0.822625 7.55982 0.716434 7.35713 0.716434 7.13219C0.716434 6.90725 0.822266 6.70455 1.0081 6.57719L8.9904 1.09003C9.52387 0.72267 10.2417 0.72267 10.7752 1.09003L18.7575 6.57719C18.943 6.70455 19.0492 6.90725 19.0492 7.13219C19.0492 7.35713 18.9433 7.55982 18.7575 7.68718Z" fill="#00573F"/>
<path d="M29.6632 9.79335L32.5132 6.14553H29.3063L27.1168 8.9474L26.1421 10.1952V6.13907H23.615V15.861H26.1421V11.8049L27.1168 13.0526L29.3109 15.861H32.5179L29.6629 12.2067C29.109 11.4978 29.109 10.5026 29.6629 9.79335H29.6632Z" fill="#00573F"/>
<path d="M41.081 7.35129C40.6039 6.88707 40.0346 6.52401 39.3727 6.26176C38.7108 5.99951 37.9886 5.86856 37.2065 5.86856C36.4244 5.86856 35.6915 5.99986 35.0339 6.26176C34.3763 6.52401 33.8109 6.88707 33.3384 7.35129C32.8656 7.81552 32.496 8.3594 32.2295 8.98219C31.9629 9.60535 31.8298 10.278 31.8298 11.0002C31.8298 11.7224 31.9629 12.395 32.2295 13.0182C32.4957 13.6417 32.8656 14.1852 33.3384 14.6491C33.8109 15.1133 34.3763 15.4764 35.0339 15.7386C35.6915 16.0009 36.4154 16.1318 37.2065 16.1318C37.9975 16.1318 38.7108 16.0005 39.3727 15.7386C40.0346 15.4764 40.6039 15.1133 41.081 14.6491C41.5582 14.1849 41.9299 13.6413 42.1964 13.0182C42.4626 12.395 42.5961 11.7224 42.5961 11.0002C42.5961 10.278 42.4626 9.60571 42.1964 8.98219C41.9299 8.35904 41.5582 7.81516 41.081 7.35129ZM39.7336 12.0704C39.5872 12.3972 39.3874 12.681 39.1341 12.9213C38.8804 13.162 38.5881 13.349 38.2573 13.4821C37.9262 13.6155 37.576 13.6819 37.2065 13.6819C36.837 13.6819 36.4865 13.6155 36.1557 13.4821C35.8246 13.349 35.5347 13.162 35.2854 12.9213C35.036 12.6806 34.8384 12.3972 34.6923 12.0704C34.546 11.7439 34.4731 11.3869 34.4731 11.0002C34.4731 10.6135 34.546 10.2569 34.6923 9.93003C34.8384 9.60356 35.036 9.31978 35.2854 9.07906C35.5347 8.83869 35.8246 8.65142 36.1557 8.51832C36.4865 8.38523 36.837 8.3185 37.2065 8.3185C37.576 8.3185 37.9262 8.38523 38.2573 8.51832C38.5881 8.65178 38.8804 8.83869 39.1341 9.07906C39.3874 9.31978 39.5876 9.60356 39.7336 9.93003C39.8796 10.2569 39.9528 10.6135 39.9528 11.0002C39.9528 11.3869 39.8796 11.7439 39.7336 12.0704Z" fill="#00573F"/>
<path d="M50.829 12.0829L46.1616 6.13907H43.6345V15.861H46.1616V9.91712L50.829 15.861H53.3435V6.13907H50.829V12.0829Z" fill="#00573F"/>
<path d="M54.407 8.2794H56.4831V15.861H59.0102V8.2794H61.0863V6.13907H54.407V8.2794Z" fill="#00573F"/>
<path d="M62.1497 15.861H67.6809V13.7206H64.6767V12.0445H67.5134V9.9042H64.6767V8.2794H67.6809V6.13907H62.1497V15.861Z" fill="#00573F"/>
<path d="M79.2109 6.13907V8.2794H81.2871V15.861H83.8141V8.2794H85.8899V6.13907H79.2109Z" fill="#00573F"/>
<path d="M75.6991 9.8414L78.408 6.14551H75.6008L73.4461 9.08479L71.2914 6.14551H68.4838L71.1928 9.84104C71.6982 10.5309 71.6982 11.4687 71.1928 12.1582L68.4741 15.867H71.2817L73.4457 12.9152L75.6098 15.867H78.4174L75.6991 12.1586C75.1936 11.4691 75.1936 10.5309 75.6991 9.8414Z" fill="#00573F"/>
</g>
<defs>
<clipPath id="clip0_230_1925">
<rect width="85.8899" height="21.8019" fill="white" transform="translate(0 0.0990601)"/>
</clipPath>
</defs>
</svg>
