<svg width="488" height="315" viewBox="0 0 488 315" fill="none" xmlns="http://www.w3.org/2000/svg">
<g clip-path="url(#clip0_171_715)">
<path opacity="0.1" d="M245 -23L245 339" stroke="black" stroke-width="0.5"/>
<path opacity="0.1" d="M109 -10L109 357" stroke="black" stroke-width="0.5"/>
<path opacity="0.1" d="M391 249L109 249" stroke="black" stroke-width="0.5"/>
<path opacity="0.1" d="M391 260H109" stroke="black" stroke-width="0.5"/>
<path opacity="0.1" d="M525 133L-35 133" stroke="black" stroke-width="0.5"/>
<path opacity="0.1" d="M381 -10L381 357" stroke="black" stroke-width="0.5"/>
<g clip-path="url(#clip1_171_715)">
<rect x="25" y="51" width="440" height="148" rx="10" fill="#F9FBFA"/>
<mask id="path-9-inside-1_171_715" fill="white">
<path d="M25 51H465V83H25V51Z"/>
</mask>
<path d="M465 83V82.5H25V83V83.5H465V83Z" fill="black" fill-opacity="0.25" mask="url(#path-9-inside-1_171_715)"/>
<mask id="path-11-inside-2_171_715" fill="white">
<path d="M25 51H109V83H25V51Z"/>
</mask>
<path d="M109 51H108.5V83H109H109.5V51H109Z" fill="black" fill-opacity="0.1" mask="url(#path-11-inside-2_171_715)"/>
<circle cx="47" cy="67" r="5.75" stroke="black" stroke-opacity="0.25" stroke-width="0.5"/>
<circle cx="67" cy="67" r="5.75" stroke="black" stroke-opacity="0.25" stroke-width="0.5"/>
<circle cx="87" cy="67" r="5.75" stroke="black" stroke-opacity="0.25" stroke-width="0.5"/>
<path opacity="0.5" d="M192.632 68.288V66.896L196.328 62.48H197.6L192.632 68.288ZM191.72 71V62.48H192.752V71H191.72ZM196.448 71L193.472 66.68L194.192 65.936L197.72 71H196.448ZM201.795 71.144C201.211 71.144 200.699 71.008 200.259 70.736C199.827 70.464 199.491 70.08 199.251 69.584C199.011 69.08 198.891 68.492 198.891 67.82C198.891 67.14 199.011 66.552 199.251 66.056C199.491 65.56 199.827 65.176 200.259 64.904C200.699 64.632 201.211 64.496 201.795 64.496C202.379 64.496 202.887 64.632 203.319 64.904C203.759 65.176 204.099 65.56 204.339 66.056C204.579 66.552 204.699 67.14 204.699 67.82C204.699 68.492 204.579 69.08 204.339 69.584C204.099 70.08 203.759 70.464 203.319 70.736C202.887 71.008 202.379 71.144 201.795 71.144ZM201.795 70.184C202.379 70.184 202.831 69.976 203.151 69.56C203.479 69.136 203.643 68.556 203.643 67.82C203.643 67.084 203.479 66.508 203.151 66.092C202.831 65.668 202.379 65.456 201.795 65.456C201.211 65.456 200.755 65.668 200.427 66.092C200.107 66.508 199.947 67.084 199.947 67.82C199.947 68.556 200.107 69.136 200.427 69.56C200.755 69.976 201.211 70.184 201.795 70.184ZM206.399 71V64.64H207.323L207.359 66.26L207.239 66.152C207.319 65.776 207.463 65.468 207.671 65.228C207.887 64.98 208.143 64.796 208.439 64.676C208.735 64.556 209.047 64.496 209.375 64.496C209.863 64.496 210.267 64.604 210.587 64.82C210.915 65.036 211.163 65.328 211.331 65.696C211.499 66.056 211.583 66.46 211.583 66.908V71H210.575V67.196C210.575 66.604 210.459 66.156 210.227 65.852C209.995 65.54 209.639 65.384 209.159 65.384C208.831 65.384 208.535 65.456 208.271 65.6C208.007 65.736 207.795 65.94 207.635 66.212C207.483 66.476 207.407 66.804 207.407 67.196V71H206.399ZM217.122 71C216.506 71 216.046 70.856 215.742 70.568C215.438 70.28 215.286 69.84 215.286 69.248V63.152H216.294V69.248C216.294 69.544 216.362 69.764 216.498 69.908C216.634 70.044 216.842 70.112 217.122 70.112H218.826V71H217.122ZM213.186 65.528V64.64H218.826V65.528H213.186ZM223.489 71.144C222.889 71.144 222.369 71.008 221.929 70.736C221.497 70.464 221.161 70.08 220.921 69.584C220.689 69.08 220.573 68.492 220.573 67.82C220.573 67.148 220.689 66.564 220.921 66.068C221.161 65.572 221.493 65.188 221.917 64.916C222.349 64.636 222.857 64.496 223.441 64.496C223.993 64.496 224.481 64.628 224.905 64.892C225.329 65.148 225.661 65.524 225.901 66.02C226.141 66.516 226.261 67.12 226.261 67.832V68.132H221.629C221.669 68.812 221.849 69.324 222.169 69.668C222.497 70.012 222.937 70.184 223.489 70.184C223.905 70.184 224.245 70.088 224.509 69.896C224.781 69.696 224.969 69.436 225.073 69.116L226.153 69.2C225.985 69.768 225.665 70.236 225.193 70.604C224.729 70.964 224.161 71.144 223.489 71.144ZM221.629 67.244H225.157C225.109 66.628 224.929 66.176 224.617 65.888C224.305 65.6 223.913 65.456 223.441 65.456C222.953 65.456 222.549 65.608 222.229 65.912C221.917 66.208 221.717 66.652 221.629 67.244ZM227.625 71L229.965 67.736L227.745 64.64H228.921L230.589 67.04L232.221 64.64H233.421L231.213 67.76L233.529 71H232.353L230.589 68.432L228.825 71H227.625ZM238.708 71C238.092 71 237.632 70.856 237.328 70.568C237.024 70.28 236.872 69.84 236.872 69.248V63.152H237.88V69.248C237.88 69.544 237.948 69.764 238.084 69.908C238.22 70.044 238.428 70.112 238.708 70.112H240.412V71H238.708ZM234.772 65.528V64.64H240.412V65.528H234.772ZM242.327 71.936V71H247.607V71.936H242.327ZM249.523 71V69.992H251.646V63.488H249.523V62.48H254.803V63.488H252.679V69.992H254.803V71H249.523ZM256.766 71V64.64H257.69L257.726 66.26L257.606 66.152C257.686 65.776 257.83 65.468 258.038 65.228C258.254 64.98 258.51 64.796 258.806 64.676C259.102 64.556 259.414 64.496 259.742 64.496C260.23 64.496 260.634 64.604 260.954 64.82C261.282 65.036 261.53 65.328 261.698 65.696C261.866 66.056 261.95 66.46 261.95 66.908V71H260.942V67.196C260.942 66.604 260.826 66.156 260.594 65.852C260.362 65.54 260.006 65.384 259.526 65.384C259.198 65.384 258.902 65.456 258.638 65.6C258.374 65.736 258.162 65.94 258.002 66.212C257.85 66.476 257.774 66.804 257.774 67.196V71H256.766ZM266.673 71.144C266.121 71.144 265.645 71.048 265.245 70.856C264.845 70.664 264.529 70.408 264.297 70.088C264.073 69.76 263.945 69.396 263.913 68.996L264.969 68.924C265.033 69.316 265.205 69.624 265.485 69.848C265.773 70.072 266.169 70.184 266.673 70.184C267.145 70.184 267.509 70.116 267.765 69.98C268.029 69.844 268.161 69.632 268.161 69.344C268.161 69.16 268.117 69.008 268.029 68.888C267.941 68.768 267.777 68.668 267.537 68.588C267.297 68.5 266.945 68.416 266.481 68.336C265.865 68.224 265.381 68.088 265.029 67.928C264.685 67.76 264.441 67.552 264.297 67.304C264.153 67.056 264.081 66.76 264.081 66.416C264.081 66.048 264.173 65.72 264.357 65.432C264.541 65.144 264.813 64.916 265.173 64.748C265.533 64.58 265.973 64.496 266.493 64.496C267.021 64.496 267.461 64.592 267.813 64.784C268.173 64.968 268.457 65.216 268.665 65.528C268.873 65.832 269.009 66.168 269.073 66.536L268.017 66.608C267.969 66.384 267.877 66.188 267.741 66.02C267.613 65.844 267.441 65.708 267.225 65.612C267.017 65.508 266.769 65.456 266.481 65.456C266.017 65.456 265.673 65.548 265.449 65.732C265.225 65.916 265.113 66.144 265.113 66.416C265.113 66.632 265.165 66.804 265.269 66.932C265.373 67.06 265.541 67.164 265.773 67.244C266.005 67.316 266.313 67.384 266.697 67.448C267.353 67.552 267.861 67.688 268.221 67.856C268.581 68.016 268.833 68.216 268.977 68.456C269.121 68.696 269.193 68.992 269.193 69.344C269.193 69.72 269.081 70.044 268.857 70.316C268.641 70.58 268.341 70.784 267.957 70.928C267.581 71.072 267.153 71.144 266.673 71.144ZM274.684 71C274.068 71 273.608 70.856 273.304 70.568C273 70.28 272.848 69.84 272.848 69.248V63.152H273.856V69.248C273.856 69.544 273.924 69.764 274.06 69.908C274.196 70.044 274.404 70.112 274.684 70.112H276.388V71H274.684ZM270.748 65.528V64.64H276.388V65.528H270.748ZM280.104 71.144C279.704 71.144 279.344 71.072 279.024 70.928C278.704 70.784 278.452 70.584 278.268 70.328C278.084 70.064 277.992 69.76 277.992 69.416C277.992 68.872 278.152 68.452 278.472 68.156C278.8 67.852 279.312 67.632 280.008 67.496L282.144 67.064C282.144 66.52 282.02 66.116 281.772 65.852C281.532 65.588 281.184 65.456 280.728 65.456C280.288 65.456 279.944 65.556 279.696 65.756C279.448 65.948 279.276 66.228 279.18 66.596L278.112 66.512C278.232 65.912 278.516 65.428 278.964 65.06C279.42 64.684 280.008 64.496 280.728 64.496C281.496 64.496 282.092 64.728 282.516 65.192C282.94 65.648 283.152 66.28 283.152 67.088V69.728C283.152 69.872 283.184 69.972 283.248 70.028C283.312 70.084 283.408 70.112 283.536 70.112H283.944V71C283.896 71.008 283.82 71.012 283.716 71.012C283.612 71.02 283.512 71.024 283.416 71.024C283.144 71.024 282.912 70.98 282.72 70.892C282.536 70.804 282.396 70.664 282.3 70.472C282.204 70.272 282.152 70.016 282.144 69.704H282.336C282.28 69.976 282.144 70.224 281.928 70.448C281.72 70.664 281.456 70.836 281.136 70.964C280.816 71.084 280.472 71.144 280.104 71.144ZM280.2 70.256C280.632 70.256 280.992 70.184 281.28 70.04C281.568 69.888 281.784 69.68 281.928 69.416C282.072 69.144 282.144 68.832 282.144 68.48V67.928L280.2 68.312C279.768 68.392 279.468 68.516 279.3 68.684C279.132 68.844 279.048 69.056 279.048 69.32C279.048 69.616 279.148 69.848 279.348 70.016C279.556 70.176 279.84 70.256 280.2 70.256ZM287.815 71V64.184C287.815 63.928 287.743 63.728 287.599 63.584C287.455 63.44 287.255 63.368 286.999 63.368H285.499V62.48H287.047C287.631 62.48 288.071 62.632 288.367 62.936C288.671 63.232 288.823 63.672 288.823 64.256V71H287.815ZM285.259 71V70.112H291.019V71H285.259ZM295.01 71V64.184C295.01 63.928 294.938 63.728 294.794 63.584C294.65 63.44 294.45 63.368 294.194 63.368H292.694V62.48H294.242C294.826 62.48 295.266 62.632 295.562 62.936C295.866 63.232 296.018 63.672 296.018 64.256V71H295.01ZM292.454 71V70.112H298.214V71H292.454Z" fill="black"/>
<rect width="440" height="116" transform="translate(25 83)" fill="white"/>
<path opacity="0.2" d="M41.468 109V102.532H39.332V101.836H40.352C40.656 101.836 40.9 101.796 41.084 101.716C41.268 101.636 41.4 101.496 41.48 101.296C41.568 101.096 41.612 100.824 41.612 100.48H42.284V109H41.468ZM38.804 109V108.22H44.396V109H38.804ZM38.636 127C38.636 126.424 38.732 125.904 38.924 125.44C39.124 124.968 39.456 124.524 39.92 124.108C40.384 123.684 41.02 123.264 41.828 122.848C42.26 122.624 42.608 122.416 42.872 122.224C43.144 122.024 43.344 121.812 43.472 121.588C43.6 121.364 43.664 121.092 43.664 120.772C43.664 120.444 43.592 120.156 43.448 119.908C43.312 119.652 43.104 119.452 42.824 119.308C42.552 119.164 42.208 119.092 41.792 119.092C41.152 119.092 40.64 119.264 40.256 119.608C39.872 119.952 39.632 120.448 39.536 121.096L38.684 121.036C38.78 120.196 39.1 119.528 39.644 119.032C40.188 118.536 40.904 118.288 41.792 118.288C42.368 118.288 42.86 118.396 43.268 118.612C43.676 118.82 43.988 119.108 44.204 119.476C44.42 119.844 44.528 120.268 44.528 120.748C44.528 121.188 44.448 121.568 44.288 121.888C44.136 122.2 43.884 122.492 43.532 122.764C43.188 123.028 42.728 123.308 42.152 123.604C41.608 123.884 41.152 124.176 40.784 124.48C40.416 124.776 40.136 125.072 39.944 125.368C39.752 125.664 39.648 125.944 39.632 126.208H44.564V127H38.636ZM41.564 145.192C40.668 145.192 39.968 144.976 39.464 144.544C38.96 144.104 38.684 143.536 38.636 142.84L39.476 142.78C39.532 143.324 39.748 143.728 40.124 143.992C40.5 144.256 40.98 144.388 41.564 144.388C41.948 144.388 42.3 144.328 42.62 144.208C42.948 144.08 43.208 143.888 43.4 143.632C43.6 143.368 43.7 143.032 43.7 142.624C43.7 142.232 43.608 141.908 43.424 141.652C43.248 141.388 43 141.188 42.68 141.052C42.36 140.916 41.996 140.848 41.588 140.848H40.868V140.056H41.588C41.932 140.056 42.24 140.004 42.512 139.9C42.792 139.796 43.012 139.636 43.172 139.42C43.332 139.196 43.412 138.92 43.412 138.592C43.412 138.112 43.252 137.744 42.932 137.488C42.62 137.224 42.184 137.092 41.624 137.092C41.072 137.092 40.636 137.212 40.316 137.452C40.004 137.684 39.812 138.008 39.74 138.424L38.888 138.364C38.976 137.74 39.256 137.24 39.728 136.864C40.2 136.48 40.832 136.288 41.624 136.288C42.152 136.288 42.612 136.38 43.004 136.564C43.404 136.748 43.712 137.012 43.928 137.356C44.152 137.692 44.264 138.092 44.264 138.556C44.264 139.092 44.092 139.528 43.748 139.864C43.404 140.192 42.904 140.412 42.248 140.524V140.308C42.952 140.396 43.512 140.652 43.928 141.076C44.352 141.492 44.564 142.012 44.564 142.636C44.564 143.164 44.432 143.62 44.168 144.004C43.912 144.388 43.556 144.684 43.1 144.892C42.652 145.092 42.14 145.192 41.564 145.192ZM42.812 163V161.068H38.516V160.336L42.764 154.48H43.628V160.276H44.684V161.068H43.628V163H42.812ZM39.38 160.276H42.812V155.644L39.38 160.276ZM41.6 181.192C41.056 181.192 40.58 181.092 40.172 180.892C39.764 180.692 39.436 180.416 39.188 180.064C38.948 179.712 38.804 179.304 38.756 178.84L39.608 178.78C39.68 179.3 39.892 179.7 40.244 179.98C40.596 180.252 41.048 180.388 41.6 180.388C42.2 180.388 42.68 180.204 43.04 179.836C43.4 179.46 43.58 178.936 43.58 178.264C43.58 177.832 43.504 177.456 43.352 177.136C43.2 176.816 42.976 176.568 42.68 176.392C42.392 176.216 42.036 176.128 41.612 176.128C41.236 176.128 40.876 176.224 40.532 176.416C40.188 176.6 39.94 176.864 39.788 177.208H38.9L39.452 172.48H44.012V173.272H40.196L39.776 176.74L39.62 176.584C39.74 176.32 39.908 176.096 40.124 175.912C40.348 175.728 40.596 175.588 40.868 175.492C41.148 175.388 41.428 175.336 41.708 175.336C42.268 175.336 42.752 175.464 43.16 175.72C43.568 175.976 43.884 176.324 44.108 176.764C44.332 177.196 44.444 177.696 44.444 178.264C44.444 178.848 44.32 179.36 44.072 179.8C43.832 180.24 43.5 180.584 43.076 180.832C42.652 181.072 42.16 181.192 41.6 181.192Z" fill="black"/>
<path d="M59.624 109V102.64H60.416V109H59.624ZM57.044 109V108.292H62.636V109H57.044ZM57.164 103.348V102.64H60.416V103.348H57.164ZM59.552 101.584V100.516H60.392V101.584H59.552ZM63.7113 109V102.64H64.4433L64.4793 104.188L64.3593 104.164C64.4393 103.636 64.5953 103.228 64.8273 102.94C65.0673 102.644 65.3793 102.496 65.7633 102.496C66.1553 102.496 66.4553 102.648 66.6633 102.952C66.8793 103.248 67.0113 103.692 67.0593 104.284H66.9273C67.0073 103.716 67.1753 103.276 67.4313 102.964C67.6953 102.652 68.0273 102.496 68.4273 102.496C68.9313 102.496 69.2993 102.676 69.5313 103.036C69.7633 103.388 69.8793 103.964 69.8793 104.764V109H69.0873V104.872C69.0873 104.264 69.0153 103.836 68.8713 103.588C68.7353 103.332 68.5193 103.204 68.2233 103.204C68.0313 103.204 67.8553 103.272 67.6953 103.408C67.5433 103.544 67.4193 103.74 67.3233 103.996C67.2353 104.252 67.1913 104.564 67.1913 104.932V109H66.3993V104.92C66.3993 104.344 66.3273 103.916 66.1833 103.636C66.0473 103.348 65.8273 103.204 65.5233 103.204C65.3313 103.204 65.1593 103.272 65.0073 103.408C64.8553 103.544 64.7313 103.744 64.6353 104.008C64.5473 104.264 64.5033 104.572 64.5033 104.932V109H63.7113ZM71.3866 110.8V102.64H72.1186L72.1426 104.296L72.0106 104.236C72.1706 103.668 72.4426 103.236 72.8266 102.94C73.2186 102.644 73.6746 102.496 74.1946 102.496C74.7946 102.496 75.2946 102.648 75.6946 102.952C76.0946 103.248 76.3946 103.648 76.5946 104.152C76.7946 104.648 76.8946 105.204 76.8946 105.82C76.8946 106.436 76.7946 106.996 76.5946 107.5C76.3946 107.996 76.0946 108.396 75.6946 108.7C75.3026 108.996 74.8066 109.144 74.2066 109.144C73.8546 109.144 73.5266 109.076 73.2226 108.94C72.9266 108.796 72.6746 108.604 72.4666 108.364C72.2586 108.124 72.1226 107.852 72.0586 107.548L72.1786 107.392V110.8H71.3866ZM74.1466 108.388C74.7386 108.388 75.2026 108.16 75.5386 107.704C75.8826 107.248 76.0546 106.62 76.0546 105.82C76.0546 105.02 75.8826 104.392 75.5386 103.936C75.2026 103.48 74.7346 103.252 74.1346 103.252C73.7426 103.252 73.3986 103.356 73.1026 103.564C72.8146 103.764 72.5866 104.056 72.4186 104.44C72.2586 104.824 72.1786 105.284 72.1786 105.82C72.1786 106.356 72.2586 106.816 72.4186 107.2C72.5866 107.584 72.8186 107.88 73.1146 108.088C73.4106 108.288 73.7546 108.388 74.1466 108.388ZM81.1859 109.144C80.6099 109.144 80.1099 109.008 79.6859 108.736C79.2699 108.464 78.9459 108.08 78.7139 107.584C78.4819 107.08 78.3659 106.492 78.3659 105.82C78.3659 105.14 78.4819 104.552 78.7139 104.056C78.9459 103.56 79.2699 103.176 79.6859 102.904C80.1099 102.632 80.6099 102.496 81.1859 102.496C81.7619 102.496 82.2619 102.632 82.6859 102.904C83.1099 103.176 83.4339 103.56 83.6579 104.056C83.8899 104.552 84.0059 105.14 84.0059 105.82C84.0059 106.492 83.8899 107.08 83.6579 107.584C83.4339 108.08 83.1099 108.464 82.6859 108.736C82.2619 109.008 81.7619 109.144 81.1859 109.144ZM81.1859 108.388C81.8099 108.388 82.2979 108.16 82.6499 107.704C83.0019 107.24 83.1779 106.612 83.1779 105.82C83.1779 105.028 83.0019 104.404 82.6499 103.948C82.2979 103.484 81.8099 103.252 81.1859 103.252C80.5619 103.252 80.0739 103.484 79.7219 103.948C79.3699 104.404 79.1939 105.028 79.1939 105.82C79.1939 106.612 79.3699 107.24 79.7219 107.704C80.0739 108.16 80.5619 108.388 81.1859 108.388ZM87.6133 109V102.64H88.2733L88.3573 104.38L88.2493 104.332C88.3453 103.756 88.5293 103.332 88.8013 103.06C89.0813 102.78 89.4573 102.64 89.9293 102.64H91.1773V103.372H89.9173C89.6053 103.372 89.3373 103.444 89.1133 103.588C88.8893 103.732 88.7133 103.936 88.5853 104.2C88.4653 104.464 88.4053 104.772 88.4053 105.124V109H87.6133ZM85.8973 109V108.292H90.4573V109H85.8973ZM85.8973 103.348V102.64H88.0453V103.348H85.8973ZM96.4286 109C95.8846 109 95.4686 108.864 95.1806 108.592C94.9006 108.32 94.7606 107.916 94.7606 107.38V101.152H95.5526V107.404C95.5526 107.7 95.6246 107.924 95.7686 108.076C95.9126 108.22 96.1286 108.292 96.4166 108.292H98.1326V109H96.4286ZM92.6126 103.348V102.64H98.1326V103.348H92.6126ZM111.359 110.368C110.735 110.368 110.243 110.18 109.883 109.804C109.523 109.428 109.343 108.932 109.343 108.316V107.284C109.343 106.916 109.291 106.604 109.187 106.348C109.091 106.092 108.947 105.9 108.755 105.772C108.571 105.644 108.347 105.58 108.083 105.58V104.788C108.347 104.788 108.571 104.724 108.755 104.596C108.947 104.468 109.091 104.276 109.187 104.02C109.291 103.764 109.343 103.452 109.343 103.084V102.052C109.343 101.436 109.523 100.94 109.883 100.564C110.243 100.188 110.735 100 111.359 100H111.851V100.744C111.227 100.728 110.779 100.828 110.507 101.044C110.243 101.252 110.111 101.584 110.111 102.04V103.144C110.111 103.752 109.983 104.224 109.727 104.56C109.471 104.896 109.163 105.1 108.803 105.172V105.184C109.171 105.248 109.479 105.452 109.727 105.796C109.983 106.14 110.111 106.616 110.111 107.224V108.328C110.111 108.776 110.243 109.108 110.507 109.324C110.779 109.54 111.227 109.64 111.851 109.624V110.368H111.359ZM238.091 110.368H237.599V109.624C238.231 109.64 238.679 109.54 238.943 109.324C239.207 109.108 239.339 108.776 239.339 108.328V107.224C239.339 106.616 239.463 106.14 239.711 105.796C239.967 105.452 240.279 105.248 240.647 105.184V105.172C240.287 105.1 239.979 104.896 239.723 104.56C239.467 104.224 239.339 103.752 239.339 103.144V102.04C239.339 101.584 239.207 101.252 238.943 101.044C238.679 100.828 238.231 100.728 237.599 100.744V100H238.091C238.723 100 239.215 100.188 239.567 100.564C239.927 100.94 240.107 101.436 240.107 102.052V103.084C240.107 103.452 240.155 103.764 240.251 104.02C240.355 104.276 240.499 104.468 240.683 104.596C240.875 104.724 241.103 104.788 241.367 104.788V105.58C241.103 105.58 240.875 105.644 240.683 105.772C240.499 105.9 240.355 106.092 240.251 106.348C240.155 106.604 240.107 106.916 240.107 107.284V108.316C240.107 108.932 239.927 109.428 239.567 109.804C239.215 110.18 238.723 110.368 238.091 110.368ZM252.925 109V102.088C252.925 101.576 253.061 101.18 253.333 100.9C253.613 100.62 254.021 100.48 254.557 100.48H256.597V101.188H254.545C254.281 101.188 254.077 101.268 253.933 101.428C253.789 101.58 253.717 101.796 253.717 102.076V109H252.925ZM251.149 103.348V102.64H256.477V103.348H251.149ZM260.301 109V102.64H260.961L261.045 104.38L260.937 104.332C261.033 103.756 261.217 103.332 261.489 103.06C261.769 102.78 262.145 102.64 262.617 102.64H263.865V103.372H262.605C262.293 103.372 262.025 103.444 261.801 103.588C261.577 103.732 261.401 103.936 261.273 104.2C261.153 104.464 261.093 104.772 261.093 105.124V109H260.301ZM258.585 109V108.292H263.145V109H258.585ZM258.585 103.348V102.64H260.733V103.348H258.585ZM268.264 109.144C267.688 109.144 267.188 109.008 266.764 108.736C266.348 108.464 266.024 108.08 265.792 107.584C265.56 107.08 265.444 106.492 265.444 105.82C265.444 105.14 265.56 104.552 265.792 104.056C266.024 103.56 266.348 103.176 266.764 102.904C267.188 102.632 267.688 102.496 268.264 102.496C268.84 102.496 269.34 102.632 269.764 102.904C270.188 103.176 270.512 103.56 270.736 104.056C270.968 104.552 271.084 105.14 271.084 105.82C271.084 106.492 270.968 107.08 270.736 107.584C270.512 108.08 270.188 108.464 269.764 108.736C269.34 109.008 268.84 109.144 268.264 109.144ZM268.264 108.388C268.888 108.388 269.376 108.16 269.728 107.704C270.08 107.24 270.256 106.612 270.256 105.82C270.256 105.028 270.08 104.404 269.728 103.948C269.376 103.484 268.888 103.252 268.264 103.252C267.64 103.252 267.152 103.484 266.8 103.948C266.448 104.404 266.272 105.028 266.272 105.82C266.272 106.612 266.448 107.24 266.8 107.704C267.152 108.16 267.64 108.388 268.264 108.388ZM272.375 109V102.64H273.107L273.143 104.188L273.023 104.164C273.103 103.636 273.259 103.228 273.491 102.94C273.731 102.644 274.043 102.496 274.427 102.496C274.819 102.496 275.119 102.648 275.327 102.952C275.543 103.248 275.675 103.692 275.723 104.284H275.591C275.671 103.716 275.839 103.276 276.095 102.964C276.359 102.652 276.691 102.496 277.091 102.496C277.595 102.496 277.963 102.676 278.195 103.036C278.427 103.388 278.543 103.964 278.543 104.764V109H277.751V104.872C277.751 104.264 277.679 103.836 277.535 103.588C277.399 103.332 277.183 103.204 276.887 103.204C276.695 103.204 276.519 103.272 276.359 103.408C276.207 103.544 276.083 103.74 275.987 103.996C275.899 104.252 275.855 104.564 275.855 104.932V109H275.063V104.92C275.063 104.344 274.991 103.916 274.847 103.636C274.711 103.348 274.491 103.204 274.187 103.204C273.995 103.204 273.823 103.272 273.671 103.408C273.519 103.544 273.395 103.744 273.299 104.008C273.211 104.264 273.167 104.572 273.167 104.932V109H272.375ZM290.342 104.404L290.306 100.48H291.182V101.404L290.942 104.404H290.342ZM288.758 104.404L288.518 101.392V100.48H289.394L289.358 104.404H288.758ZM298.593 109.792C298.289 109.96 297.985 110.084 297.681 110.164C297.377 110.252 297.065 110.296 296.745 110.296C296.137 110.296 295.605 110.14 295.149 109.828C294.701 109.524 294.349 109.052 294.093 108.412C293.845 107.764 293.721 106.94 293.721 105.94C293.721 105.068 293.813 104.296 293.997 103.624C294.189 102.944 294.449 102.372 294.777 101.908C295.113 101.436 295.505 101.08 295.953 100.84C296.409 100.6 296.901 100.48 297.429 100.48C298.061 100.48 298.593 100.652 299.025 100.996C299.465 101.34 299.797 101.816 300.021 102.424C300.253 103.032 300.369 103.744 300.369 104.56C300.369 105.408 300.297 106.092 300.153 106.612C300.017 107.124 299.829 107.496 299.589 107.728C299.357 107.952 299.089 108.064 298.785 108.064C298.521 108.064 298.301 107.944 298.125 107.704C297.949 107.464 297.833 107.144 297.777 106.744H297.885C297.821 107.016 297.717 107.252 297.573 107.452C297.437 107.644 297.277 107.792 297.093 107.896C296.909 107.992 296.717 108.04 296.517 108.04C296.109 108.04 295.785 107.856 295.545 107.488C295.313 107.112 295.197 106.592 295.197 105.928C295.197 105.416 295.273 104.94 295.425 104.5C295.577 104.052 295.785 103.692 296.049 103.42C296.321 103.14 296.633 103 296.985 103C297.201 103 297.389 103.052 297.549 103.156C297.709 103.26 297.829 103.4 297.909 103.576C297.997 103.744 298.037 103.932 298.029 104.14L297.909 104.236L298.029 103.036H298.701C298.653 103.596 298.605 104.088 298.557 104.512C298.517 104.936 298.481 105.3 298.449 105.604C298.425 105.908 298.413 106.16 298.413 106.36C298.413 106.704 298.457 106.964 298.545 107.14C298.641 107.316 298.757 107.404 298.893 107.404C299.053 107.404 299.189 107.308 299.301 107.116C299.421 106.924 299.513 106.624 299.577 106.216C299.641 105.8 299.673 105.268 299.673 104.62C299.673 103.908 299.589 103.296 299.421 102.784C299.253 102.264 299.001 101.864 298.665 101.584C298.329 101.304 297.905 101.164 297.393 101.164C296.977 101.164 296.585 101.268 296.217 101.476C295.857 101.684 295.541 101.992 295.269 102.4C294.997 102.808 294.785 103.308 294.633 103.9C294.489 104.492 294.417 105.168 294.417 105.928C294.417 106.768 294.509 107.46 294.693 108.004C294.885 108.548 295.157 108.952 295.509 109.216C295.861 109.488 296.277 109.624 296.757 109.624C297.013 109.624 297.273 109.584 297.537 109.504C297.809 109.424 298.073 109.308 298.329 109.156L298.593 109.792ZM296.721 107.428C296.897 107.428 297.053 107.356 297.189 107.212C297.325 107.06 297.441 106.864 297.537 106.624C297.633 106.384 297.705 106.124 297.753 105.844C297.809 105.556 297.837 105.268 297.837 104.98C297.837 104.548 297.769 104.22 297.633 103.996C297.497 103.772 297.301 103.66 297.045 103.66C296.829 103.66 296.637 103.764 296.469 103.972C296.309 104.18 296.181 104.452 296.085 104.788C295.997 105.116 295.953 105.468 295.953 105.844C295.953 106.324 296.017 106.708 296.145 106.996C296.273 107.284 296.465 107.428 296.721 107.428ZM301.817 109V100.48H302.609V106.264L306.053 102.64H307.109L304.505 105.352L307.277 109H306.317L303.965 105.88L302.609 107.272V109H301.817ZM311.436 109.144C310.86 109.144 310.36 109.008 309.936 108.736C309.52 108.464 309.196 108.08 308.964 107.584C308.732 107.08 308.616 106.492 308.616 105.82C308.616 105.14 308.732 104.552 308.964 104.056C309.196 103.56 309.52 103.176 309.936 102.904C310.36 102.632 310.86 102.496 311.436 102.496C312.012 102.496 312.512 102.632 312.936 102.904C313.36 103.176 313.684 103.56 313.908 104.056C314.14 104.552 314.256 105.14 314.256 105.82C314.256 106.492 314.14 107.08 313.908 107.584C313.684 108.08 313.36 108.464 312.936 108.736C312.512 109.008 312.012 109.144 311.436 109.144ZM311.436 108.388C312.06 108.388 312.548 108.16 312.9 107.704C313.252 107.24 313.428 106.612 313.428 105.82C313.428 105.028 313.252 104.404 312.9 103.948C312.548 103.484 312.06 103.252 311.436 103.252C310.812 103.252 310.324 103.484 309.972 103.948C309.62 104.404 309.444 105.028 309.444 105.82C309.444 106.612 309.62 107.24 309.972 107.704C310.324 108.16 310.812 108.388 311.436 108.388ZM316.123 109V102.64H316.843L316.879 104.308L316.783 104.236C316.847 103.844 316.983 103.52 317.191 103.264C317.407 103.008 317.667 102.816 317.971 102.688C318.283 102.56 318.611 102.496 318.955 102.496C319.443 102.496 319.847 102.604 320.167 102.82C320.487 103.036 320.727 103.328 320.887 103.696C321.055 104.056 321.139 104.46 321.139 104.908V109H320.347V105.196C320.347 104.572 320.223 104.084 319.975 103.732C319.727 103.38 319.331 103.204 318.787 103.204C318.427 103.204 318.103 103.284 317.815 103.444C317.535 103.604 317.315 103.832 317.155 104.128C316.995 104.424 316.915 104.78 316.915 105.196V109H316.123ZM326.679 109C326.135 109 325.719 108.864 325.431 108.592C325.151 108.32 325.011 107.916 325.011 107.38V101.152H325.803V107.404C325.803 107.7 325.875 107.924 326.019 108.076C326.163 108.22 326.379 108.292 326.667 108.292H328.383V109H326.679ZM322.863 103.348V102.64H328.383V103.348H322.863ZM333.13 109.144C332.53 109.144 332.014 109.004 331.582 108.724C331.158 108.436 330.834 108.044 330.61 107.548C330.386 107.044 330.274 106.468 330.274 105.82C330.274 105.172 330.386 104.6 330.61 104.104C330.834 103.6 331.154 103.208 331.57 102.928C331.994 102.64 332.498 102.496 333.082 102.496C333.658 102.496 334.15 102.632 334.558 102.904C334.974 103.176 335.294 103.56 335.518 104.056C335.75 104.552 335.866 105.132 335.866 105.796V106.048H331.102C331.134 106.8 331.33 107.38 331.69 107.788C332.05 108.188 332.53 108.388 333.13 108.388C333.602 108.388 333.986 108.276 334.282 108.052C334.578 107.828 334.782 107.532 334.894 107.164L335.746 107.224C335.586 107.784 335.274 108.244 334.81 108.604C334.354 108.964 333.794 109.144 333.13 109.144ZM331.102 105.34H334.99C334.95 104.66 334.762 104.144 334.426 103.792C334.09 103.432 333.642 103.252 333.082 103.252C332.538 103.252 332.09 103.432 331.738 103.792C331.386 104.152 331.174 104.668 331.102 105.34ZM337.373 109L339.725 105.76L337.481 102.64H338.405L340.229 105.22L342.017 102.64H342.953L340.721 105.772L343.061 109H342.137L340.229 106.288L338.321 109H337.373ZM348.265 109C347.721 109 347.305 108.864 347.017 108.592C346.737 108.32 346.597 107.916 346.597 107.38V101.152H347.389V107.404C347.389 107.7 347.461 107.924 347.605 108.076C347.749 108.22 347.965 108.292 348.253 108.292H349.969V109H348.265ZM344.449 103.348V102.64H349.969V103.348H344.449ZM352.412 110.32L356.036 100.012H356.804L353.18 110.32H352.412ZM361.923 109.144C361.379 109.144 360.907 109.052 360.507 108.868C360.115 108.676 359.807 108.424 359.583 108.112C359.359 107.792 359.231 107.436 359.199 107.044L360.027 106.984C360.083 107.408 360.271 107.748 360.591 108.004C360.911 108.26 361.355 108.388 361.923 108.388C362.467 108.388 362.879 108.304 363.159 108.136C363.447 107.968 363.591 107.716 363.591 107.38C363.591 107.18 363.543 107.012 363.447 106.876C363.359 106.74 363.183 106.624 362.919 106.528C362.655 106.424 362.259 106.328 361.731 106.24C361.115 106.128 360.635 105.996 360.291 105.844C359.955 105.684 359.719 105.484 359.583 105.244C359.455 105.004 359.391 104.716 359.391 104.38C359.391 104.012 359.483 103.688 359.667 103.408C359.851 103.128 360.115 102.908 360.459 102.748C360.811 102.58 361.239 102.496 361.743 102.496C362.255 102.496 362.683 102.588 363.027 102.772C363.379 102.956 363.655 103.2 363.855 103.504C364.063 103.8 364.199 104.128 364.263 104.488L363.435 104.56C363.387 104.312 363.291 104.092 363.147 103.9C363.011 103.7 362.823 103.544 362.583 103.432C362.351 103.312 362.067 103.252 361.731 103.252C361.227 103.252 360.847 103.356 360.591 103.564C360.335 103.772 360.207 104.044 360.207 104.38C360.207 104.62 360.259 104.812 360.363 104.956C360.467 105.1 360.643 105.216 360.891 105.304C361.147 105.392 361.495 105.472 361.935 105.544C362.575 105.64 363.075 105.768 363.435 105.928C363.795 106.088 364.047 106.284 364.191 106.516C364.335 106.748 364.407 107.036 364.407 107.38C364.407 107.748 364.303 108.064 364.095 108.328C363.887 108.592 363.595 108.796 363.219 108.94C362.851 109.076 362.419 109.144 361.923 109.144ZM368.638 109.144C368.086 109.144 367.606 109.008 367.198 108.736C366.798 108.464 366.486 108.08 366.262 107.584C366.046 107.088 365.938 106.5 365.938 105.82C365.938 105.14 366.046 104.552 366.262 104.056C366.486 103.56 366.798 103.176 367.198 102.904C367.606 102.632 368.086 102.496 368.638 102.496C369.11 102.496 369.522 102.62 369.874 102.868C370.234 103.116 370.49 103.412 370.642 103.756V100.48H371.434V109H370.738L370.702 107.824C370.526 108.216 370.258 108.536 369.898 108.784C369.538 109.024 369.118 109.144 368.638 109.144ZM368.674 108.388C369.082 108.388 369.43 108.284 369.718 108.076C370.014 107.86 370.242 107.56 370.402 107.176C370.562 106.784 370.642 106.332 370.642 105.82C370.642 105.3 370.562 104.848 370.402 104.464C370.242 104.08 370.014 103.784 369.718 103.576C369.422 103.36 369.07 103.252 368.662 103.252C368.086 103.252 367.626 103.484 367.282 103.948C366.938 104.404 366.766 105.028 366.766 105.82C366.766 106.612 366.938 107.24 367.282 107.704C367.626 108.16 368.09 108.388 368.674 108.388ZM373.77 109V100.48H374.562V106.264L378.006 102.64H379.062L376.458 105.352L379.23 109H378.27L375.918 105.88L374.562 107.272V109H373.77ZM383.881 104.404L383.845 100.48H384.721V101.404L384.481 104.404H383.881ZM382.297 104.404L382.057 101.392V100.48H382.933L382.897 104.404H382.297ZM389.924 104.32V103.024H391.244V104.32H389.924ZM390.02 110.752L390.56 109H389.948V107.704H391.22V108.856L390.524 110.752H390.02ZM62.312 144.52L56.888 142.024V141.016L62.312 138.52V139.348L57.464 141.592V141.448L62.312 143.692V144.52ZM64.7073 142.288V141.196L68.7513 136.48H69.7473L64.7073 142.288ZM63.9993 145V136.48H64.8153V145H63.9993ZM68.8713 145L65.7753 140.572L66.3393 139.984L69.8793 145H68.8713ZM73.9906 145.144C73.4146 145.144 72.9146 145.008 72.4906 144.736C72.0746 144.464 71.7506 144.08 71.5186 143.584C71.2866 143.08 71.1706 142.492 71.1706 141.82C71.1706 141.14 71.2866 140.552 71.5186 140.056C71.7506 139.56 72.0746 139.176 72.4906 138.904C72.9146 138.632 73.4146 138.496 73.9906 138.496C74.5666 138.496 75.0666 138.632 75.4906 138.904C75.9146 139.176 76.2386 139.56 76.4626 140.056C76.6946 140.552 76.8106 141.14 76.8106 141.82C76.8106 142.492 76.6946 143.08 76.4626 143.584C76.2386 144.08 75.9146 144.464 75.4906 144.736C75.0666 145.008 74.5666 145.144 73.9906 145.144ZM73.9906 144.388C74.6146 144.388 75.1026 144.16 75.4546 143.704C75.8066 143.24 75.9826 142.612 75.9826 141.82C75.9826 141.028 75.8066 140.404 75.4546 139.948C75.1026 139.484 74.6146 139.252 73.9906 139.252C73.3666 139.252 72.8786 139.484 72.5266 139.948C72.1746 140.404 71.9986 141.028 71.9986 141.82C71.9986 142.612 72.1746 143.24 72.5266 143.704C72.8786 144.16 73.3666 144.388 73.9906 144.388ZM78.6779 145V138.64H79.3979L79.4339 140.308L79.3379 140.236C79.4019 139.844 79.5379 139.52 79.7459 139.264C79.9619 139.008 80.2219 138.816 80.5259 138.688C80.8379 138.56 81.1659 138.496 81.5099 138.496C81.9979 138.496 82.4019 138.604 82.7219 138.82C83.0419 139.036 83.2819 139.328 83.4419 139.696C83.6099 140.056 83.6939 140.46 83.6939 140.908V145H82.9019V141.196C82.9019 140.572 82.7779 140.084 82.5299 139.732C82.2819 139.38 81.8859 139.204 81.3419 139.204C80.9819 139.204 80.6579 139.284 80.3699 139.444C80.0899 139.604 79.8699 139.832 79.7099 140.128C79.5499 140.424 79.4699 140.78 79.4699 141.196V145H78.6779ZM89.2333 145C88.6893 145 88.2733 144.864 87.9853 144.592C87.7053 144.32 87.5653 143.916 87.5653 143.38V137.152H88.3573V143.404C88.3573 143.7 88.4293 143.924 88.5733 144.076C88.7173 144.22 88.9333 144.292 89.2213 144.292H90.9373V145H89.2333ZM85.4173 139.348V138.64H90.9373V139.348H85.4173ZM95.6846 145.144C95.0846 145.144 94.5686 145.004 94.1366 144.724C93.7126 144.436 93.3886 144.044 93.1646 143.548C92.9406 143.044 92.8286 142.468 92.8286 141.82C92.8286 141.172 92.9406 140.6 93.1646 140.104C93.3886 139.6 93.7086 139.208 94.1246 138.928C94.5486 138.64 95.0526 138.496 95.6366 138.496C96.2126 138.496 96.7046 138.632 97.1126 138.904C97.5286 139.176 97.8486 139.56 98.0726 140.056C98.3046 140.552 98.4206 141.132 98.4206 141.796V142.048H93.6566C93.6886 142.8 93.8846 143.38 94.2446 143.788C94.6046 144.188 95.0846 144.388 95.6846 144.388C96.1566 144.388 96.5406 144.276 96.8366 144.052C97.1326 143.828 97.3366 143.532 97.4486 143.164L98.3006 143.224C98.1406 143.784 97.8286 144.244 97.3646 144.604C96.9086 144.964 96.3486 145.144 95.6846 145.144ZM93.6566 141.34H97.5446C97.5046 140.66 97.3166 140.144 96.9806 139.792C96.6446 139.432 96.1966 139.252 95.6366 139.252C95.0926 139.252 94.6446 139.432 94.2926 139.792C93.9406 140.152 93.7286 140.668 93.6566 141.34ZM99.9279 145L102.28 141.76L100.036 138.64H100.96L102.784 141.22L104.572 138.64H105.508L103.276 141.772L105.616 145H104.692L102.784 142.288L100.876 145H99.9279ZM110.819 145C110.275 145 109.859 144.864 109.571 144.592C109.291 144.32 109.151 143.916 109.151 143.38V137.152H109.943V143.404C109.943 143.7 110.015 143.924 110.159 144.076C110.303 144.22 110.519 144.292 110.807 144.292H112.523V145H110.819ZM107.003 139.348V138.64H112.523V139.348H107.003ZM114.727 145V136.48H117.223C117.815 136.48 118.327 136.584 118.759 136.792C119.191 136.992 119.527 137.284 119.767 137.668C120.007 138.044 120.127 138.5 120.127 139.036C120.127 139.572 120.007 140.028 119.767 140.404C119.527 140.78 119.191 141.068 118.759 141.268C118.327 141.468 117.815 141.568 117.223 141.568H115.543V145H114.727ZM115.543 140.776H117.127C117.839 140.776 118.371 140.628 118.723 140.332C119.083 140.036 119.263 139.604 119.263 139.036C119.263 138.46 119.083 138.024 118.723 137.728C118.371 137.424 117.839 137.272 117.127 137.272H115.543V140.776ZM123.59 145V138.64H124.25L124.334 140.38L124.226 140.332C124.322 139.756 124.506 139.332 124.778 139.06C125.058 138.78 125.434 138.64 125.906 138.64H127.154V139.372H125.894C125.582 139.372 125.314 139.444 125.09 139.588C124.866 139.732 124.69 139.936 124.562 140.2C124.442 140.464 124.382 140.772 124.382 141.124V145H123.59ZM121.874 145V144.292H126.434V145H121.874ZM121.874 139.348V138.64H124.022V139.348H121.874ZM131.553 145.144C130.977 145.144 130.477 145.008 130.053 144.736C129.637 144.464 129.313 144.08 129.081 143.584C128.849 143.08 128.733 142.492 128.733 141.82C128.733 141.14 128.849 140.552 129.081 140.056C129.313 139.56 129.637 139.176 130.053 138.904C130.477 138.632 130.977 138.496 131.553 138.496C132.129 138.496 132.629 138.632 133.053 138.904C133.477 139.176 133.801 139.56 134.025 140.056C134.257 140.552 134.373 141.14 134.373 141.82C134.373 142.492 134.257 143.08 134.025 143.584C133.801 144.08 133.477 144.464 133.053 144.736C132.629 145.008 132.129 145.144 131.553 145.144ZM131.553 144.388C132.177 144.388 132.665 144.16 133.017 143.704C133.369 143.24 133.545 142.612 133.545 141.82C133.545 141.028 133.369 140.404 133.017 139.948C132.665 139.484 132.177 139.252 131.553 139.252C130.929 139.252 130.441 139.484 130.089 139.948C129.737 140.404 129.561 141.028 129.561 141.82C129.561 142.612 129.737 143.24 130.089 143.704C130.441 144.16 130.929 144.388 131.553 144.388ZM138.244 145L135.868 138.64H136.732L138.748 144.196L140.764 138.64H141.628L139.252 145H138.244ZM145.968 145V138.64H146.76V145H145.968ZM143.388 145V144.292H148.98V145H143.388ZM143.508 139.348V138.64H146.76V139.348H143.508ZM145.896 137.584V136.516H146.736V137.584H145.896ZM152.779 145.144C152.227 145.144 151.747 145.008 151.339 144.736C150.939 144.464 150.627 144.08 150.403 143.584C150.187 143.088 150.079 142.5 150.079 141.82C150.079 141.14 150.187 140.552 150.403 140.056C150.627 139.56 150.939 139.176 151.339 138.904C151.747 138.632 152.227 138.496 152.779 138.496C153.251 138.496 153.663 138.62 154.015 138.868C154.375 139.116 154.631 139.412 154.783 139.756V136.48H155.575V145H154.879L154.843 143.824C154.667 144.216 154.399 144.536 154.039 144.784C153.679 145.024 153.259 145.144 152.779 145.144ZM152.815 144.388C153.223 144.388 153.571 144.284 153.859 144.076C154.155 143.86 154.383 143.56 154.543 143.176C154.703 142.784 154.783 142.332 154.783 141.82C154.783 141.3 154.703 140.848 154.543 140.464C154.383 140.08 154.155 139.784 153.859 139.576C153.563 139.36 153.211 139.252 152.803 139.252C152.227 139.252 151.767 139.484 151.423 139.948C151.079 140.404 150.907 141.028 150.907 141.82C150.907 142.612 151.079 143.24 151.423 143.704C151.767 144.16 152.231 144.388 152.815 144.388ZM160.442 145.144C159.842 145.144 159.326 145.004 158.894 144.724C158.47 144.436 158.146 144.044 157.922 143.548C157.698 143.044 157.586 142.468 157.586 141.82C157.586 141.172 157.698 140.6 157.922 140.104C158.146 139.6 158.466 139.208 158.882 138.928C159.306 138.64 159.81 138.496 160.394 138.496C160.97 138.496 161.462 138.632 161.87 138.904C162.286 139.176 162.606 139.56 162.83 140.056C163.062 140.552 163.178 141.132 163.178 141.796V142.048H158.414C158.446 142.8 158.642 143.38 159.002 143.788C159.362 144.188 159.842 144.388 160.442 144.388C160.914 144.388 161.298 144.276 161.594 144.052C161.89 143.828 162.094 143.532 162.206 143.164L163.058 143.224C162.898 143.784 162.586 144.244 162.122 144.604C161.666 144.964 161.106 145.144 160.442 145.144ZM158.414 141.34H162.302C162.262 140.66 162.074 140.144 161.738 139.792C161.402 139.432 160.954 139.252 160.394 139.252C159.85 139.252 159.402 139.432 159.05 139.792C158.698 140.152 158.486 140.668 158.414 141.34ZM166.762 145V138.64H167.422L167.506 140.38L167.398 140.332C167.494 139.756 167.678 139.332 167.95 139.06C168.23 138.78 168.606 138.64 169.078 138.64H170.326V139.372H169.066C168.754 139.372 168.486 139.444 168.262 139.588C168.038 139.732 167.862 139.936 167.734 140.2C167.614 140.464 167.554 140.772 167.554 141.124V145H166.762ZM165.046 145V144.292H169.606V145H165.046ZM165.046 139.348V138.64H167.194V139.348H165.046ZM181.092 145.144C180.692 145.144 180.332 145.072 180.012 144.928C179.7 144.784 179.452 144.584 179.268 144.328C179.092 144.072 179.004 143.772 179.004 143.428C179.004 142.9 179.172 142.488 179.508 142.192C179.852 141.896 180.348 141.684 180.996 141.556L183.252 141.112C183.252 140.472 183.116 140.004 182.844 139.708C182.58 139.404 182.192 139.252 181.68 139.252C181.192 139.252 180.808 139.368 180.528 139.6C180.248 139.832 180.06 140.16 179.964 140.584L179.124 140.512C179.244 139.896 179.524 139.408 179.964 139.048C180.404 138.68 180.976 138.496 181.68 138.496C182.432 138.496 183.012 138.72 183.42 139.168C183.836 139.616 184.044 140.256 184.044 141.088V143.74C184.044 143.956 184.08 144.104 184.152 144.184C184.224 144.256 184.336 144.292 184.488 144.292H184.884V145C184.836 145.008 184.764 145.012 184.668 145.012C184.572 145.02 184.48 145.024 184.392 145.024C184.144 145.024 183.936 144.984 183.768 144.904C183.6 144.816 183.472 144.672 183.384 144.472C183.296 144.264 183.248 143.988 183.24 143.644H183.396C183.332 143.924 183.188 144.18 182.964 144.412C182.748 144.636 182.476 144.816 182.148 144.952C181.828 145.08 181.476 145.144 181.092 145.144ZM181.164 144.436C181.604 144.436 181.98 144.356 182.292 144.196C182.604 144.028 182.84 143.8 183 143.512C183.168 143.216 183.252 142.88 183.252 142.504V141.808L181.164 142.216C180.708 142.304 180.372 142.44 180.156 142.624C179.948 142.808 179.844 143.052 179.844 143.356C179.844 143.7 179.96 143.968 180.192 144.16C180.424 144.344 180.748 144.436 181.164 144.436ZM186.512 146.8V138.64H187.244L187.268 140.296L187.136 140.236C187.296 139.668 187.568 139.236 187.952 138.94C188.344 138.644 188.8 138.496 189.32 138.496C189.92 138.496 190.42 138.648 190.82 138.952C191.22 139.248 191.52 139.648 191.72 140.152C191.92 140.648 192.02 141.204 192.02 141.82C192.02 142.436 191.92 142.996 191.72 143.5C191.52 143.996 191.22 144.396 190.82 144.7C190.428 144.996 189.932 145.144 189.332 145.144C188.98 145.144 188.652 145.076 188.348 144.94C188.052 144.796 187.8 144.604 187.592 144.364C187.384 144.124 187.248 143.852 187.184 143.548L187.304 143.392V146.8H186.512ZM189.272 144.388C189.864 144.388 190.328 144.16 190.664 143.704C191.008 143.248 191.18 142.62 191.18 141.82C191.18 141.02 191.008 140.392 190.664 139.936C190.328 139.48 189.86 139.252 189.26 139.252C188.868 139.252 188.524 139.356 188.228 139.564C187.94 139.764 187.712 140.056 187.544 140.44C187.384 140.824 187.304 141.284 187.304 141.82C187.304 142.356 187.384 142.816 187.544 143.2C187.712 143.584 187.944 143.88 188.24 144.088C188.536 144.288 188.88 144.388 189.272 144.388ZM196.335 145V138.64H197.127V145H196.335ZM193.755 145V144.292H199.347V145H193.755ZM193.875 139.348V138.64H197.127V139.348H193.875ZM196.263 137.584V136.516H197.103V137.584H196.263ZM203.506 145.192C202.626 145.192 201.938 144.912 201.442 144.352C200.954 143.792 200.71 143.016 200.71 142.024V136.48H201.526V142.024C201.526 142.792 201.694 143.38 202.03 143.788C202.374 144.188 202.866 144.388 203.506 144.388C204.146 144.388 204.634 144.188 204.97 143.788C205.314 143.38 205.486 142.792 205.486 142.024V136.48H206.302V142.024C206.302 143.016 206.054 143.792 205.558 144.352C205.07 144.912 204.386 145.192 203.506 145.192ZM209.934 145V138.64H210.594L210.678 140.38L210.57 140.332C210.666 139.756 210.85 139.332 211.122 139.06C211.402 138.78 211.778 138.64 212.25 138.64H213.498V139.372H212.238C211.926 139.372 211.658 139.444 211.434 139.588C211.21 139.732 211.034 139.936 210.906 140.2C210.786 140.464 210.726 140.772 210.726 141.124V145H209.934ZM208.218 145V144.292H212.778V145H208.218ZM208.218 139.348V138.64H210.366V139.348H208.218ZM217.681 145V138.04C217.681 137.768 217.605 137.56 217.453 137.416C217.309 137.264 217.101 137.188 216.829 137.188H215.341V136.48H216.853C217.373 136.48 217.773 136.62 218.053 136.9C218.333 137.18 218.473 137.58 218.473 138.1V145H217.681ZM215.101 145V144.292H220.693V145H215.101ZM222.488 140.584V139.84H227.696V140.584H222.488ZM222.488 143.056V142.312H227.696V143.056H222.488ZM232.78 140.404L232.744 136.48H233.62V137.404L233.38 140.404H232.78ZM231.196 140.404L230.956 137.392V136.48H231.832L231.796 140.404H231.196ZM405.467 140.404L405.431 136.48H406.307V137.404L406.067 140.404H405.467ZM403.883 140.404L403.643 137.392V136.48H404.519L404.483 140.404H403.883ZM409.458 144.52V143.692L414.306 141.448V141.592L409.458 139.348V138.52L414.882 141.016V142.024L409.458 144.52ZM76.7026 162.52L71.2786 160.024V159.016L76.7026 156.52V157.348L71.8546 159.592V159.448L76.7026 161.692V162.52ZM77.9819 163L80.6459 154.48H81.7259L84.3899 163H83.5139L81.1859 155.236L78.8579 163H77.9819ZM79.2539 160.444L79.5299 159.652H82.8419L83.1179 160.444H79.2539ZM85.7773 164.8V156.64H86.5093L86.5333 158.296L86.4013 158.236C86.5613 157.668 86.8333 157.236 87.2173 156.94C87.6093 156.644 88.0653 156.496 88.5853 156.496C89.1853 156.496 89.6853 156.648 90.0853 156.952C90.4853 157.248 90.7853 157.648 90.9853 158.152C91.1853 158.648 91.2853 159.204 91.2853 159.82C91.2853 160.436 91.1853 160.996 90.9853 161.5C90.7853 161.996 90.4853 162.396 90.0853 162.7C89.6933 162.996 89.1973 163.144 88.5973 163.144C88.2453 163.144 87.9173 163.076 87.6133 162.94C87.3173 162.796 87.0653 162.604 86.8573 162.364C86.6493 162.124 86.5133 161.852 86.4493 161.548L86.5693 161.392V164.8H85.7773ZM88.5373 162.388C89.1293 162.388 89.5933 162.16 89.9293 161.704C90.2733 161.248 90.4453 160.62 90.4453 159.82C90.4453 159.02 90.2733 158.392 89.9293 157.936C89.5933 157.48 89.1253 157.252 88.5253 157.252C88.1333 157.252 87.7893 157.356 87.4933 157.564C87.2053 157.764 86.9773 158.056 86.8093 158.44C86.6493 158.824 86.5693 159.284 86.5693 159.82C86.5693 160.356 86.6493 160.816 86.8093 161.2C86.9773 161.584 87.2093 161.88 87.5053 162.088C87.8013 162.288 88.1453 162.388 88.5373 162.388ZM92.9726 164.8V156.64H93.7046L93.7286 158.296L93.5966 158.236C93.7566 157.668 94.0286 157.236 94.4126 156.94C94.8046 156.644 95.2606 156.496 95.7806 156.496C96.3806 156.496 96.8806 156.648 97.2806 156.952C97.6806 157.248 97.9806 157.648 98.1806 158.152C98.3806 158.648 98.4806 159.204 98.4806 159.82C98.4806 160.436 98.3806 160.996 98.1806 161.5C97.9806 161.996 97.6806 162.396 97.2806 162.7C96.8886 162.996 96.3926 163.144 95.7926 163.144C95.4406 163.144 95.1126 163.076 94.8086 162.94C94.5126 162.796 94.2606 162.604 94.0526 162.364C93.8446 162.124 93.7086 161.852 93.6446 161.548L93.7646 161.392V164.8H92.9726ZM95.7326 162.388C96.3246 162.388 96.7886 162.16 97.1246 161.704C97.4686 161.248 97.6406 160.62 97.6406 159.82C97.6406 159.02 97.4686 158.392 97.1246 157.936C96.7886 157.48 96.3206 157.252 95.7206 157.252C95.3286 157.252 94.9846 157.356 94.6886 157.564C94.4006 157.764 94.1726 158.056 94.0046 158.44C93.8446 158.824 93.7646 159.284 93.7646 159.82C93.7646 160.356 93.8446 160.816 94.0046 161.2C94.1726 161.584 94.4046 161.88 94.7006 162.088C94.9966 162.288 95.3406 162.388 95.7326 162.388ZM107.771 164.32L111.395 154.012H112.163L108.539 164.32H107.771ZM114.451 162.52V161.692L119.299 159.448V159.592L114.451 157.348V156.52L119.875 159.016V160.024L114.451 162.52ZM62.312 180.52L56.888 178.024V177.016L62.312 174.52V175.348L57.464 177.592V177.448L62.312 179.692V180.52ZM64.5993 182.32L68.2233 172.012H68.9913L65.3673 182.32H64.5993ZM71.9026 178.288V177.196L75.9466 172.48H76.9426L71.9026 178.288ZM71.1946 181V172.48H72.0106V181H71.1946ZM76.0666 181L72.9706 176.572L73.5346 175.984L77.0746 181H76.0666ZM81.1859 181.144C80.6099 181.144 80.1099 181.008 79.6859 180.736C79.2699 180.464 78.9459 180.08 78.7139 179.584C78.4819 179.08 78.3659 178.492 78.3659 177.82C78.3659 177.14 78.4819 176.552 78.7139 176.056C78.9459 175.56 79.2699 175.176 79.6859 174.904C80.1099 174.632 80.6099 174.496 81.1859 174.496C81.7619 174.496 82.2619 174.632 82.6859 174.904C83.1099 175.176 83.4339 175.56 83.6579 176.056C83.8899 176.552 84.0059 177.14 84.0059 177.82C84.0059 178.492 83.8899 179.08 83.6579 179.584C83.4339 180.08 83.1099 180.464 82.6859 180.736C82.2619 181.008 81.7619 181.144 81.1859 181.144ZM81.1859 180.388C81.8099 180.388 82.2979 180.16 82.6499 179.704C83.0019 179.24 83.1779 178.612 83.1779 177.82C83.1779 177.028 83.0019 176.404 82.6499 175.948C82.2979 175.484 81.8099 175.252 81.1859 175.252C80.5619 175.252 80.0739 175.484 79.7219 175.948C79.3699 176.404 79.1939 177.028 79.1939 177.82C79.1939 178.612 79.3699 179.24 79.7219 179.704C80.0739 180.16 80.5619 180.388 81.1859 180.388ZM85.8733 181V174.64H86.5933L86.6293 176.308L86.5333 176.236C86.5973 175.844 86.7333 175.52 86.9413 175.264C87.1573 175.008 87.4173 174.816 87.7213 174.688C88.0333 174.56 88.3613 174.496 88.7053 174.496C89.1933 174.496 89.5973 174.604 89.9173 174.82C90.2373 175.036 90.4773 175.328 90.6373 175.696C90.8053 176.056 90.8893 176.46 90.8893 176.908V181H90.0973V177.196C90.0973 176.572 89.9733 176.084 89.7253 175.732C89.4773 175.38 89.0813 175.204 88.5373 175.204C88.1773 175.204 87.8533 175.284 87.5653 175.444C87.2853 175.604 87.0653 175.832 86.9053 176.128C86.7453 176.424 86.6653 176.78 86.6653 177.196V181H85.8733ZM96.4286 181C95.8846 181 95.4686 180.864 95.1806 180.592C94.9006 180.32 94.7606 179.916 94.7606 179.38V173.152H95.5526V179.404C95.5526 179.7 95.6246 179.924 95.7686 180.076C95.9126 180.22 96.1286 180.292 96.4166 180.292H98.1326V181H96.4286ZM92.6126 175.348V174.64H98.1326V175.348H92.6126ZM102.88 181.144C102.28 181.144 101.764 181.004 101.332 180.724C100.908 180.436 100.584 180.044 100.36 179.548C100.136 179.044 100.024 178.468 100.024 177.82C100.024 177.172 100.136 176.6 100.36 176.104C100.584 175.6 100.904 175.208 101.32 174.928C101.744 174.64 102.248 174.496 102.832 174.496C103.408 174.496 103.9 174.632 104.308 174.904C104.724 175.176 105.044 175.56 105.268 176.056C105.5 176.552 105.616 177.132 105.616 177.796V178.048H100.852C100.884 178.8 101.08 179.38 101.44 179.788C101.8 180.188 102.28 180.388 102.88 180.388C103.352 180.388 103.736 180.276 104.032 180.052C104.328 179.828 104.532 179.532 104.644 179.164L105.496 179.224C105.336 179.784 105.024 180.244 104.56 180.604C104.104 180.964 103.544 181.144 102.88 181.144ZM100.852 177.34H104.74C104.7 176.66 104.512 176.144 104.176 175.792C103.84 175.432 103.392 175.252 102.832 175.252C102.288 175.252 101.84 175.432 101.488 175.792C101.136 176.152 100.924 176.668 100.852 177.34ZM107.123 181L109.475 177.76L107.231 174.64H108.155L109.979 177.22L111.767 174.64H112.703L110.471 177.772L112.811 181H111.887L109.979 178.288L108.071 181H107.123ZM118.015 181C117.471 181 117.055 180.864 116.767 180.592C116.487 180.32 116.347 179.916 116.347 179.38V173.152H117.139V179.404C117.139 179.7 117.211 179.924 117.355 180.076C117.499 180.22 117.715 180.292 118.003 180.292H119.719V181H118.015ZM114.199 175.348V174.64H119.719V175.348H114.199ZM121.922 181V172.48H124.418C125.01 172.48 125.522 172.584 125.954 172.792C126.386 172.992 126.722 173.284 126.962 173.668C127.202 174.044 127.322 174.5 127.322 175.036C127.322 175.572 127.202 176.028 126.962 176.404C126.722 176.78 126.386 177.068 125.954 177.268C125.522 177.468 125.01 177.568 124.418 177.568H122.738V181H121.922ZM122.738 176.776H124.322C125.034 176.776 125.566 176.628 125.918 176.332C126.278 176.036 126.458 175.604 126.458 175.036C126.458 174.46 126.278 174.024 125.918 173.728C125.566 173.424 125.034 173.272 124.322 173.272H122.738V176.776ZM130.785 181V174.64H131.445L131.529 176.38L131.421 176.332C131.517 175.756 131.701 175.332 131.973 175.06C132.253 174.78 132.629 174.64 133.101 174.64H134.349V175.372H133.089C132.777 175.372 132.509 175.444 132.285 175.588C132.061 175.732 131.885 175.936 131.757 176.2C131.637 176.464 131.577 176.772 131.577 177.124V181H130.785ZM129.069 181V180.292H133.629V181H129.069ZM129.069 175.348V174.64H131.217V175.348H129.069ZM138.748 181.144C138.172 181.144 137.672 181.008 137.248 180.736C136.832 180.464 136.508 180.08 136.276 179.584C136.044 179.08 135.928 178.492 135.928 177.82C135.928 177.14 136.044 176.552 136.276 176.056C136.508 175.56 136.832 175.176 137.248 174.904C137.672 174.632 138.172 174.496 138.748 174.496C139.324 174.496 139.824 174.632 140.248 174.904C140.672 175.176 140.996 175.56 141.22 176.056C141.452 176.552 141.568 177.14 141.568 177.82C141.568 178.492 141.452 179.08 141.22 179.584C140.996 180.08 140.672 180.464 140.248 180.736C139.824 181.008 139.324 181.144 138.748 181.144ZM138.748 180.388C139.372 180.388 139.86 180.16 140.212 179.704C140.564 179.24 140.74 178.612 140.74 177.82C140.74 177.028 140.564 176.404 140.212 175.948C139.86 175.484 139.372 175.252 138.748 175.252C138.124 175.252 137.636 175.484 137.284 175.948C136.932 176.404 136.756 177.028 136.756 177.82C136.756 178.612 136.932 179.24 137.284 179.704C137.636 180.16 138.124 180.388 138.748 180.388ZM145.44 181L143.064 174.64H143.928L145.944 180.196L147.96 174.64H148.824L146.448 181H145.44ZM153.163 181V174.64H153.955V181H153.163ZM150.583 181V180.292H156.175V181H150.583ZM150.703 175.348V174.64H153.955V175.348H150.703ZM153.091 173.584V172.516H153.931V173.584H153.091ZM159.974 181.144C159.422 181.144 158.942 181.008 158.534 180.736C158.134 180.464 157.822 180.08 157.598 179.584C157.382 179.088 157.274 178.5 157.274 177.82C157.274 177.14 157.382 176.552 157.598 176.056C157.822 175.56 158.134 175.176 158.534 174.904C158.942 174.632 159.422 174.496 159.974 174.496C160.446 174.496 160.858 174.62 161.21 174.868C161.57 175.116 161.826 175.412 161.978 175.756V172.48H162.77V181H162.074L162.038 179.824C161.862 180.216 161.594 180.536 161.234 180.784C160.874 181.024 160.454 181.144 159.974 181.144ZM160.01 180.388C160.418 180.388 160.766 180.284 161.054 180.076C161.35 179.86 161.578 179.56 161.738 179.176C161.898 178.784 161.978 178.332 161.978 177.82C161.978 177.3 161.898 176.848 161.738 176.464C161.578 176.08 161.35 175.784 161.054 175.576C160.758 175.36 160.406 175.252 159.998 175.252C159.422 175.252 158.962 175.484 158.618 175.948C158.274 176.404 158.102 177.028 158.102 177.82C158.102 178.612 158.274 179.24 158.618 179.704C158.962 180.16 159.426 180.388 160.01 180.388ZM167.638 181.144C167.038 181.144 166.522 181.004 166.09 180.724C165.666 180.436 165.342 180.044 165.118 179.548C164.894 179.044 164.782 178.468 164.782 177.82C164.782 177.172 164.894 176.6 165.118 176.104C165.342 175.6 165.662 175.208 166.078 174.928C166.502 174.64 167.006 174.496 167.59 174.496C168.166 174.496 168.658 174.632 169.066 174.904C169.482 175.176 169.802 175.56 170.026 176.056C170.258 176.552 170.374 177.132 170.374 177.796V178.048H165.61C165.642 178.8 165.838 179.38 166.198 179.788C166.558 180.188 167.038 180.388 167.638 180.388C168.11 180.388 168.494 180.276 168.79 180.052C169.086 179.828 169.29 179.532 169.402 179.164L170.254 179.224C170.094 179.784 169.782 180.244 169.318 180.604C168.862 180.964 168.302 181.144 167.638 181.144ZM165.61 177.34H169.498C169.458 176.66 169.27 176.144 168.934 175.792C168.598 175.432 168.15 175.252 167.59 175.252C167.046 175.252 166.598 175.432 166.246 175.792C165.894 176.152 165.682 176.668 165.61 177.34ZM173.957 181V174.64H174.617L174.701 176.38L174.593 176.332C174.689 175.756 174.873 175.332 175.145 175.06C175.425 174.78 175.801 174.64 176.273 174.64H177.521V175.372H176.261C175.949 175.372 175.681 175.444 175.457 175.588C175.233 175.732 175.057 175.936 174.929 176.2C174.809 176.464 174.749 176.772 174.749 177.124V181H173.957ZM172.241 181V180.292H176.801V181H172.241ZM172.241 175.348V174.64H174.389V175.348H172.241ZM179.208 180.52V179.692L184.056 177.448V177.592L179.208 175.348V174.52L184.632 177.016V178.024L179.208 180.52Z" fill="black" fill-opacity="0.5"/>
<path d="M122.39 106.288V104.896L126.086 100.48H127.358L122.39 106.288ZM121.478 109V100.48H122.51V109H121.478ZM126.206 109L123.23 104.68L123.95 103.936L127.478 109H126.206ZM131.553 109.144C130.969 109.144 130.457 109.008 130.017 108.736C129.585 108.464 129.249 108.08 129.009 107.584C128.769 107.08 128.649 106.492 128.649 105.82C128.649 105.14 128.769 104.552 129.009 104.056C129.249 103.56 129.585 103.176 130.017 102.904C130.457 102.632 130.969 102.496 131.553 102.496C132.137 102.496 132.645 102.632 133.077 102.904C133.517 103.176 133.857 103.56 134.097 104.056C134.337 104.552 134.457 105.14 134.457 105.82C134.457 106.492 134.337 107.08 134.097 107.584C133.857 108.08 133.517 108.464 133.077 108.736C132.645 109.008 132.137 109.144 131.553 109.144ZM131.553 108.184C132.137 108.184 132.589 107.976 132.909 107.56C133.237 107.136 133.401 106.556 133.401 105.82C133.401 105.084 133.237 104.508 132.909 104.092C132.589 103.668 132.137 103.456 131.553 103.456C130.969 103.456 130.513 103.668 130.185 104.092C129.865 104.508 129.705 105.084 129.705 105.82C129.705 106.556 129.865 107.136 130.185 107.56C130.513 107.976 130.969 108.184 131.553 108.184ZM136.156 109V102.64H137.08L137.116 104.26L136.996 104.152C137.076 103.776 137.22 103.468 137.428 103.228C137.644 102.98 137.9 102.796 138.196 102.676C138.492 102.556 138.804 102.496 139.132 102.496C139.62 102.496 140.024 102.604 140.344 102.82C140.672 103.036 140.92 103.328 141.088 103.696C141.256 104.056 141.34 104.46 141.34 104.908V109H140.332V105.196C140.332 104.604 140.216 104.156 139.984 103.852C139.752 103.54 139.396 103.384 138.916 103.384C138.588 103.384 138.292 103.456 138.028 103.6C137.764 103.736 137.552 103.94 137.392 104.212C137.24 104.476 137.164 104.804 137.164 105.196V109H136.156ZM146.88 109C146.264 109 145.804 108.856 145.5 108.568C145.196 108.28 145.044 107.84 145.044 107.248V101.152H146.052V107.248C146.052 107.544 146.12 107.764 146.256 107.908C146.392 108.044 146.6 108.112 146.88 108.112H148.584V109H146.88ZM142.944 103.528V102.64H148.584V103.528H142.944ZM153.247 109.144C152.647 109.144 152.127 109.008 151.687 108.736C151.255 108.464 150.919 108.08 150.679 107.584C150.447 107.08 150.331 106.492 150.331 105.82C150.331 105.148 150.447 104.564 150.679 104.068C150.919 103.572 151.251 103.188 151.675 102.916C152.107 102.636 152.615 102.496 153.199 102.496C153.751 102.496 154.239 102.628 154.663 102.892C155.087 103.148 155.419 103.524 155.659 104.02C155.899 104.516 156.019 105.12 156.019 105.832V106.132H151.387C151.427 106.812 151.607 107.324 151.927 107.668C152.255 108.012 152.695 108.184 153.247 108.184C153.663 108.184 154.003 108.088 154.267 107.896C154.539 107.696 154.727 107.436 154.831 107.116L155.911 107.2C155.743 107.768 155.423 108.236 154.951 108.604C154.487 108.964 153.919 109.144 153.247 109.144ZM151.387 105.244H154.915C154.867 104.628 154.687 104.176 154.375 103.888C154.063 103.6 153.671 103.456 153.199 103.456C152.711 103.456 152.307 103.608 151.987 103.912C151.675 104.208 151.475 104.652 151.387 105.244ZM157.382 109L159.722 105.736L157.502 102.64H158.678L160.346 105.04L161.978 102.64H163.178L160.97 105.76L163.286 109H162.11L160.346 106.432L158.582 109H157.382ZM168.466 109C167.85 109 167.39 108.856 167.086 108.568C166.782 108.28 166.63 107.84 166.63 107.248V101.152H167.638V107.248C167.638 107.544 167.706 107.764 167.842 107.908C167.978 108.044 168.186 108.112 168.466 108.112H170.17V109H168.466ZM164.53 103.528V102.64H170.17V103.528H164.53ZM172.205 109V100.48H174.797C175.389 100.48 175.905 100.584 176.345 100.792C176.785 101 177.125 101.3 177.365 101.692C177.605 102.076 177.725 102.54 177.725 103.084C177.725 103.628 177.605 104.096 177.365 104.488C177.125 104.872 176.785 105.168 176.345 105.376C175.905 105.584 175.389 105.688 174.797 105.688H173.237V109H172.205ZM173.237 104.68H174.677C175.349 104.68 175.845 104.544 176.165 104.272C176.485 103.992 176.645 103.596 176.645 103.084C176.645 102.564 176.485 102.168 176.165 101.896C175.845 101.624 175.349 101.488 174.677 101.488H173.237V104.68ZM181.056 109V102.64H181.896L181.992 104.248L181.896 104.224C181.976 103.68 182.148 103.28 182.412 103.024C182.684 102.768 183.044 102.64 183.492 102.64H184.8V103.552H183.504C183.192 103.552 182.928 103.616 182.712 103.744C182.504 103.864 182.344 104.044 182.232 104.284C182.12 104.516 182.064 104.808 182.064 105.16V109H181.056ZM179.4 109V108.112H184.08V109H179.4ZM179.4 103.528V102.64H181.608V103.528H179.4ZM189.116 109.144C188.532 109.144 188.02 109.008 187.58 108.736C187.148 108.464 186.812 108.08 186.572 107.584C186.332 107.08 186.212 106.492 186.212 105.82C186.212 105.14 186.332 104.552 186.572 104.056C186.812 103.56 187.148 103.176 187.58 102.904C188.02 102.632 188.532 102.496 189.116 102.496C189.7 102.496 190.208 102.632 190.64 102.904C191.08 103.176 191.42 103.56 191.66 104.056C191.9 104.552 192.02 105.14 192.02 105.82C192.02 106.492 191.9 107.08 191.66 107.584C191.42 108.08 191.08 108.464 190.64 108.736C190.208 109.008 189.7 109.144 189.116 109.144ZM189.116 108.184C189.7 108.184 190.152 107.976 190.472 107.56C190.8 107.136 190.964 106.556 190.964 105.82C190.964 105.084 190.8 104.508 190.472 104.092C190.152 103.668 189.7 103.456 189.116 103.456C188.532 103.456 188.076 103.668 187.748 104.092C187.428 104.508 187.268 105.084 187.268 105.82C187.268 106.556 187.428 107.136 187.748 107.56C188.076 107.976 188.532 108.184 189.116 108.184ZM195.675 109L193.311 102.64H194.415L196.311 107.968L198.207 102.64H199.311L196.947 109H195.675ZM203.422 109V102.64H204.43V109H203.422ZM200.866 109V108.112H206.626V109H200.866ZM200.986 103.528V102.64H204.43V103.528H200.986ZM203.326 101.644V100.468H204.382V101.644H203.326ZM210.306 109.144C209.746 109.144 209.262 109.008 208.854 108.736C208.446 108.464 208.13 108.08 207.906 107.584C207.69 107.088 207.582 106.5 207.582 105.82C207.582 105.14 207.69 104.552 207.906 104.056C208.13 103.56 208.446 103.176 208.854 102.904C209.262 102.632 209.746 102.496 210.306 102.496C210.754 102.496 211.146 102.604 211.482 102.82C211.818 103.028 212.062 103.264 212.214 103.528V100.48H213.222V109H212.31L212.274 108.04C212.098 108.384 211.838 108.656 211.494 108.856C211.15 109.048 210.754 109.144 210.306 109.144ZM210.366 108.184C210.75 108.184 211.078 108.088 211.35 107.896C211.63 107.704 211.842 107.432 211.986 107.08C212.138 106.72 212.214 106.3 212.214 105.82C212.214 105.324 212.138 104.9 211.986 104.548C211.842 104.196 211.63 103.928 211.35 103.744C211.07 103.552 210.734 103.456 210.342 103.456C209.822 103.456 209.406 103.668 209.094 104.092C208.79 104.508 208.638 105.084 208.638 105.82C208.638 106.548 208.79 107.124 209.094 107.548C209.406 107.972 209.83 108.184 210.366 108.184ZM218.005 109.144C217.405 109.144 216.885 109.008 216.445 108.736C216.013 108.464 215.677 108.08 215.437 107.584C215.205 107.08 215.089 106.492 215.089 105.82C215.089 105.148 215.205 104.564 215.437 104.068C215.677 103.572 216.009 103.188 216.433 102.916C216.865 102.636 217.373 102.496 217.957 102.496C218.509 102.496 218.997 102.628 219.421 102.892C219.845 103.148 220.177 103.524 220.417 104.02C220.657 104.516 220.777 105.12 220.777 105.832V106.132H216.145C216.185 106.812 216.365 107.324 216.685 107.668C217.013 108.012 217.453 108.184 218.005 108.184C218.421 108.184 218.761 108.088 219.025 107.896C219.297 107.696 219.485 107.436 219.589 107.116L220.669 107.2C220.501 107.768 220.181 108.236 219.709 108.604C219.245 108.964 218.677 109.144 218.005 109.144ZM216.145 105.244H219.673C219.625 104.628 219.445 104.176 219.133 103.888C218.821 103.6 218.429 103.456 217.957 103.456C217.469 103.456 217.065 103.608 216.745 103.912C216.433 104.208 216.233 104.652 216.145 105.244ZM224.228 109V102.64H225.068L225.164 104.248L225.068 104.224C225.148 103.68 225.32 103.28 225.584 103.024C225.856 102.768 226.216 102.64 226.664 102.64H227.972V103.552H226.676C226.364 103.552 226.1 103.616 225.884 103.744C225.676 103.864 225.516 104.044 225.404 104.284C225.292 104.516 225.236 104.808 225.236 105.16V109H224.228ZM222.572 109V108.112H227.252V109H222.572ZM222.572 103.528V102.64H224.78V103.528H222.572ZM237.083 145V136.48H238.091V140.044L237.971 140.02C238.051 139.668 238.187 139.38 238.379 139.156C238.571 138.932 238.807 138.768 239.087 138.664C239.367 138.552 239.671 138.496 239.999 138.496C240.455 138.496 240.839 138.6 241.151 138.808C241.471 139.008 241.711 139.292 241.871 139.66C242.039 140.02 242.123 140.436 242.123 140.908V145H241.115V141.196C241.115 140.58 241.003 140.124 240.779 139.828C240.563 139.532 240.231 139.384 239.783 139.384C239.271 139.384 238.859 139.54 238.547 139.852C238.243 140.164 238.091 140.616 238.091 141.208V145H237.083ZM247.614 145C246.998 145 246.538 144.856 246.234 144.568C245.93 144.28 245.778 143.84 245.778 143.248V137.152H246.786V143.248C246.786 143.544 246.854 143.764 246.99 143.908C247.126 144.044 247.334 144.112 247.614 144.112H249.318V145H247.614ZM243.678 139.528V138.64H249.318V139.528H243.678ZM254.809 145C254.193 145 253.733 144.856 253.429 144.568C253.125 144.28 252.973 143.84 252.973 143.248V137.152H253.981V143.248C253.981 143.544 254.049 143.764 254.185 143.908C254.321 144.044 254.529 144.112 254.809 144.112H256.513V145H254.809ZM250.873 139.528V138.64H256.513V139.528H250.873ZM258.429 146.8V138.64H259.365L259.389 140.08L259.245 140.008C259.405 139.512 259.669 139.136 260.037 138.88C260.413 138.624 260.845 138.496 261.333 138.496C261.965 138.496 262.481 138.652 262.881 138.964C263.289 139.276 263.589 139.684 263.781 140.188C263.973 140.692 264.069 141.236 264.069 141.82C264.069 142.404 263.973 142.948 263.781 143.452C263.589 143.956 263.289 144.364 262.881 144.676C262.481 144.988 261.965 145.144 261.333 145.144C261.005 145.144 260.697 145.088 260.409 144.976C260.129 144.864 259.889 144.708 259.689 144.508C259.497 144.308 259.365 144.072 259.293 143.8L259.437 143.632V146.8H258.429ZM261.237 144.184C261.789 144.184 262.221 143.976 262.533 143.56C262.853 143.144 263.013 142.564 263.013 141.82C263.013 141.076 262.853 140.496 262.533 140.08C262.221 139.664 261.789 139.456 261.237 139.456C260.869 139.456 260.549 139.544 260.277 139.72C260.013 139.896 259.805 140.16 259.653 140.512C259.509 140.864 259.437 141.3 259.437 141.82C259.437 142.34 259.509 142.776 259.653 143.128C259.797 143.48 260.005 143.744 260.277 143.92C260.549 144.096 260.869 144.184 261.237 144.184ZM268.384 145.144C267.832 145.144 267.356 145.048 266.956 144.856C266.556 144.664 266.24 144.408 266.008 144.088C265.784 143.76 265.656 143.396 265.624 142.996L266.68 142.924C266.744 143.316 266.916 143.624 267.196 143.848C267.484 144.072 267.88 144.184 268.384 144.184C268.856 144.184 269.22 144.116 269.476 143.98C269.74 143.844 269.872 143.632 269.872 143.344C269.872 143.16 269.828 143.008 269.74 142.888C269.652 142.768 269.488 142.668 269.248 142.588C269.008 142.5 268.656 142.416 268.192 142.336C267.576 142.224 267.092 142.088 266.74 141.928C266.396 141.76 266.152 141.552 266.008 141.304C265.864 141.056 265.792 140.76 265.792 140.416C265.792 140.048 265.884 139.72 266.068 139.432C266.252 139.144 266.524 138.916 266.884 138.748C267.244 138.58 267.684 138.496 268.204 138.496C268.732 138.496 269.172 138.592 269.524 138.784C269.884 138.968 270.168 139.216 270.376 139.528C270.584 139.832 270.72 140.168 270.784 140.536L269.728 140.608C269.68 140.384 269.588 140.188 269.452 140.02C269.324 139.844 269.152 139.708 268.936 139.612C268.728 139.508 268.48 139.456 268.192 139.456C267.728 139.456 267.384 139.548 267.16 139.732C266.936 139.916 266.824 140.144 266.824 140.416C266.824 140.632 266.876 140.804 266.98 140.932C267.084 141.06 267.252 141.164 267.484 141.244C267.716 141.316 268.024 141.384 268.408 141.448C269.064 141.552 269.572 141.688 269.932 141.856C270.292 142.016 270.544 142.216 270.688 142.456C270.832 142.696 270.904 142.992 270.904 143.344C270.904 143.72 270.792 144.044 270.568 144.316C270.352 144.58 270.052 144.784 269.668 144.928C269.292 145.072 268.864 145.144 268.384 145.144ZM274.715 145V143.536H276.203V145H274.715ZM274.715 140.368V138.904H276.203V140.368H274.715ZM280.351 146.32L283.999 136H284.959L281.311 146.32H280.351ZM287.546 146.32L291.194 136H292.154L288.506 146.32H287.546ZM296.205 145.144C295.805 145.144 295.445 145.072 295.125 144.928C294.805 144.784 294.553 144.584 294.369 144.328C294.185 144.064 294.093 143.76 294.093 143.416C294.093 142.872 294.253 142.452 294.573 142.156C294.901 141.852 295.413 141.632 296.109 141.496L298.245 141.064C298.245 140.52 298.121 140.116 297.873 139.852C297.633 139.588 297.285 139.456 296.829 139.456C296.389 139.456 296.045 139.556 295.797 139.756C295.549 139.948 295.377 140.228 295.281 140.596L294.213 140.512C294.333 139.912 294.617 139.428 295.065 139.06C295.521 138.684 296.109 138.496 296.829 138.496C297.597 138.496 298.193 138.728 298.617 139.192C299.041 139.648 299.253 140.28 299.253 141.088V143.728C299.253 143.872 299.285 143.972 299.349 144.028C299.413 144.084 299.509 144.112 299.637 144.112H300.045V145C299.997 145.008 299.921 145.012 299.817 145.012C299.713 145.02 299.613 145.024 299.517 145.024C299.245 145.024 299.013 144.98 298.821 144.892C298.637 144.804 298.497 144.664 298.401 144.472C298.305 144.272 298.253 144.016 298.245 143.704H298.437C298.381 143.976 298.245 144.224 298.029 144.448C297.821 144.664 297.557 144.836 297.237 144.964C296.917 145.084 296.573 145.144 296.205 145.144ZM296.301 144.256C296.733 144.256 297.093 144.184 297.381 144.04C297.669 143.888 297.885 143.68 298.029 143.416C298.173 143.144 298.245 142.832 298.245 142.48V141.928L296.301 142.312C295.869 142.392 295.569 142.516 295.401 142.684C295.233 142.844 295.149 143.056 295.149 143.32C295.149 143.616 295.249 143.848 295.449 144.016C295.657 144.176 295.941 144.256 296.301 144.256ZM301.601 146.8V138.64H302.537L302.561 140.08L302.417 140.008C302.577 139.512 302.841 139.136 303.209 138.88C303.585 138.624 304.017 138.496 304.505 138.496C305.137 138.496 305.653 138.652 306.053 138.964C306.461 139.276 306.761 139.684 306.953 140.188C307.145 140.692 307.241 141.236 307.241 141.82C307.241 142.404 307.145 142.948 306.953 143.452C306.761 143.956 306.461 144.364 306.053 144.676C305.653 144.988 305.137 145.144 304.505 145.144C304.177 145.144 303.869 145.088 303.581 144.976C303.301 144.864 303.061 144.708 302.861 144.508C302.669 144.308 302.537 144.072 302.465 143.8L302.609 143.632V146.8H301.601ZM304.409 144.184C304.961 144.184 305.393 143.976 305.705 143.56C306.025 143.144 306.185 142.564 306.185 141.82C306.185 141.076 306.025 140.496 305.705 140.08C305.393 139.664 304.961 139.456 304.409 139.456C304.041 139.456 303.721 139.544 303.449 139.72C303.185 139.896 302.977 140.16 302.825 140.512C302.681 140.864 302.609 141.3 302.609 141.82C302.609 142.34 302.681 142.776 302.825 143.128C302.969 143.48 303.177 143.744 303.449 143.92C303.721 144.096 304.041 144.184 304.409 144.184ZM311.352 145V138.64H312.36V145H311.352ZM308.796 145V144.112H314.556V145H308.796ZM308.916 139.528V138.64H312.36V139.528H308.916ZM311.256 137.644V136.468H312.312V137.644H311.256ZM317.887 145V143.536H319.375V145H317.887ZM323.307 145V136.48H324.315V142.06L327.411 138.64H328.755L326.247 141.34L328.875 145H327.651L325.563 142.024L324.315 143.344V145H323.307ZM333.022 145.144C332.438 145.144 331.926 145.008 331.486 144.736C331.054 144.464 330.718 144.08 330.478 143.584C330.238 143.08 330.118 142.492 330.118 141.82C330.118 141.14 330.238 140.552 330.478 140.056C330.718 139.56 331.054 139.176 331.486 138.904C331.926 138.632 332.438 138.496 333.022 138.496C333.606 138.496 334.114 138.632 334.546 138.904C334.986 139.176 335.326 139.56 335.566 140.056C335.806 140.552 335.926 141.14 335.926 141.82C335.926 142.492 335.806 143.08 335.566 143.584C335.326 144.08 334.986 144.464 334.546 144.736C334.114 145.008 333.606 145.144 333.022 145.144ZM333.022 144.184C333.606 144.184 334.058 143.976 334.378 143.56C334.706 143.136 334.87 142.556 334.87 141.82C334.87 141.084 334.706 140.508 334.378 140.092C334.058 139.668 333.606 139.456 333.022 139.456C332.438 139.456 331.982 139.668 331.654 140.092C331.334 140.508 331.174 141.084 331.174 141.82C331.174 142.556 331.334 143.136 331.654 143.56C331.982 143.976 332.438 144.184 333.022 144.184ZM337.625 145V138.64H338.549L338.585 140.26L338.465 140.152C338.545 139.776 338.689 139.468 338.897 139.228C339.113 138.98 339.369 138.796 339.665 138.676C339.961 138.556 340.273 138.496 340.601 138.496C341.089 138.496 341.493 138.604 341.813 138.82C342.141 139.036 342.389 139.328 342.557 139.696C342.725 140.056 342.809 140.46 342.809 140.908V145H341.801V141.196C341.801 140.604 341.685 140.156 341.453 139.852C341.221 139.54 340.865 139.384 340.385 139.384C340.057 139.384 339.761 139.456 339.497 139.6C339.233 139.736 339.021 139.94 338.861 140.212C338.709 140.476 338.633 140.804 338.633 141.196V145H337.625ZM348.349 145C347.733 145 347.273 144.856 346.969 144.568C346.665 144.28 346.513 143.84 346.513 143.248V137.152H347.521V143.248C347.521 143.544 347.589 143.764 347.725 143.908C347.861 144.044 348.069 144.112 348.349 144.112H350.053V145H348.349ZM344.413 139.528V138.64H350.053V139.528H344.413ZM354.716 145.144C354.116 145.144 353.596 145.008 353.156 144.736C352.724 144.464 352.388 144.08 352.148 143.584C351.916 143.08 351.8 142.492 351.8 141.82C351.8 141.148 351.916 140.564 352.148 140.068C352.388 139.572 352.72 139.188 353.144 138.916C353.576 138.636 354.084 138.496 354.668 138.496C355.22 138.496 355.708 138.628 356.132 138.892C356.556 139.148 356.888 139.524 357.128 140.02C357.368 140.516 357.488 141.12 357.488 141.832V142.132H352.856C352.896 142.812 353.076 143.324 353.396 143.668C353.724 144.012 354.164 144.184 354.716 144.184C355.132 144.184 355.472 144.088 355.736 143.896C356.008 143.696 356.196 143.436 356.3 143.116L357.38 143.2C357.212 143.768 356.892 144.236 356.42 144.604C355.956 144.964 355.388 145.144 354.716 145.144ZM352.856 141.244H356.384C356.336 140.628 356.156 140.176 355.844 139.888C355.532 139.6 355.14 139.456 354.668 139.456C354.18 139.456 353.776 139.608 353.456 139.912C353.144 140.208 352.944 140.652 352.856 141.244ZM358.851 145L361.191 141.736L358.971 138.64H360.147L361.815 141.04L363.447 138.64H364.647L362.439 141.76L364.755 145H363.579L361.815 142.432L360.051 145H358.851ZM369.934 145C369.318 145 368.858 144.856 368.554 144.568C368.25 144.28 368.098 143.84 368.098 143.248V137.152H369.106V143.248C369.106 143.544 369.174 143.764 369.31 143.908C369.446 144.044 369.654 144.112 369.934 144.112H371.638V145H369.934ZM365.998 139.528V138.64H371.638V139.528H365.998ZM375.45 145V143.536H376.938V145H375.45ZM382.993 145.144C382.433 145.144 381.949 145.008 381.541 144.736C381.133 144.464 380.817 144.08 380.593 143.584C380.377 143.088 380.269 142.5 380.269 141.82C380.269 141.14 380.377 140.552 380.593 140.056C380.817 139.56 381.133 139.176 381.541 138.904C381.949 138.632 382.433 138.496 382.993 138.496C383.441 138.496 383.833 138.604 384.169 138.82C384.505 139.028 384.749 139.264 384.901 139.528V136.48H385.909V145H384.997L384.961 144.04C384.785 144.384 384.525 144.656 384.181 144.856C383.837 145.048 383.441 145.144 382.993 145.144ZM383.053 144.184C383.437 144.184 383.765 144.088 384.037 143.896C384.317 143.704 384.529 143.432 384.673 143.08C384.825 142.72 384.901 142.3 384.901 141.82C384.901 141.324 384.825 140.9 384.673 140.548C384.529 140.196 384.317 139.928 384.037 139.744C383.757 139.552 383.421 139.456 383.029 139.456C382.509 139.456 382.093 139.668 381.781 140.092C381.477 140.508 381.325 141.084 381.325 141.82C381.325 142.548 381.477 143.124 381.781 143.548C382.093 143.972 382.517 144.184 383.053 144.184ZM390.692 145.144C390.092 145.144 389.572 145.008 389.132 144.736C388.7 144.464 388.364 144.08 388.124 143.584C387.892 143.08 387.776 142.492 387.776 141.82C387.776 141.148 387.892 140.564 388.124 140.068C388.364 139.572 388.696 139.188 389.12 138.916C389.552 138.636 390.06 138.496 390.644 138.496C391.196 138.496 391.684 138.628 392.108 138.892C392.532 139.148 392.864 139.524 393.104 140.02C393.344 140.516 393.464 141.12 393.464 141.832V142.132H388.832C388.872 142.812 389.052 143.324 389.372 143.668C389.7 144.012 390.14 144.184 390.692 144.184C391.108 144.184 391.448 144.088 391.712 143.896C391.984 143.696 392.172 143.436 392.276 143.116L393.356 143.2C393.188 143.768 392.868 144.236 392.396 144.604C391.932 144.964 391.364 145.144 390.692 145.144ZM388.832 141.244H392.36C392.312 140.628 392.132 140.176 391.82 139.888C391.508 139.6 391.116 139.456 390.644 139.456C390.156 139.456 389.752 139.608 389.432 139.912C389.12 140.208 388.92 140.652 388.832 141.244ZM397.144 145L394.78 138.64H395.884L397.78 143.968L399.676 138.64H400.78L398.416 145H397.144Z" fill="#00573F"/>
</g>
<rect x="25.25" y="51.25" width="439.5" height="147.5" rx="9.75" stroke="black" stroke-opacity="0.25" stroke-width="0.5"/>
<g filter="url(#filter0_ddd_171_715)">
<rect x="79" y="224" width="60" height="60" rx="30" fill="white"/>
<rect x="79.25" y="224.25" width="59.5" height="59.5" rx="29.75" stroke="black" stroke-opacity="0.15" stroke-width="0.5"/>
<path opacity="0.05" d="M96.4573 240.695L91.8611 236.099" stroke="black" stroke-width="0.5"/>
<path opacity="0.05" d="M126.156 270.394L121.56 265.798" stroke="black" stroke-width="0.5"/>
<path opacity="0.05" d="M121.56 240.703L126.156 236.106" stroke="black" stroke-width="0.5"/>
<path opacity="0.05" d="M91.8611 270.401L96.4573 265.805" stroke="black" stroke-width="0.5"/>
<path d="M118.375 245.25H99.625C99.4592 245.25 99.3003 245.316 99.1831 245.433C99.0658 245.55 99 245.709 99 245.875V262.125C99 262.291 99.0658 262.45 99.1831 262.567C99.3003 262.684 99.4592 262.75 99.625 262.75H118.375C118.541 262.75 118.7 262.684 118.817 262.567C118.934 262.45 119 262.291 119 262.125V245.875C119 245.709 118.934 245.55 118.817 245.433C118.7 245.316 118.541 245.25 118.375 245.25ZM104 247.125C104.124 247.125 104.244 247.162 104.347 247.23C104.45 247.299 104.53 247.397 104.577 247.511C104.625 247.625 104.637 247.751 104.613 247.872C104.589 247.993 104.529 248.105 104.442 248.192C104.355 248.279 104.243 248.339 104.122 248.363C104.001 248.387 103.875 248.375 103.761 248.327C103.647 248.28 103.549 248.2 103.48 248.097C103.412 247.994 103.375 247.874 103.375 247.75C103.375 247.584 103.441 247.425 103.558 247.308C103.675 247.191 103.834 247.125 104 247.125ZM101.5 247.125C101.624 247.125 101.744 247.162 101.847 247.23C101.95 247.299 102.03 247.397 102.077 247.511C102.125 247.625 102.137 247.751 102.113 247.872C102.089 247.993 102.029 248.105 101.942 248.192C101.855 248.279 101.743 248.339 101.622 248.363C101.501 248.387 101.375 248.375 101.261 248.327C101.147 248.28 101.049 248.2 100.98 248.097C100.912 247.994 100.875 247.874 100.875 247.75C100.875 247.584 100.941 247.425 101.058 247.308C101.175 247.191 101.334 247.125 101.5 247.125ZM117.75 261.5H100.25V250.25H117.75V261.5Z" fill="#00573F"/>
<path d="M115.757 254.259C115.699 254.179 115.623 254.114 115.535 254.069C115.446 254.024 115.349 254 115.25 254H108.625C108.274 253.312 107.702 252.763 107.001 252.44C106.299 252.117 105.51 252.04 104.759 252.22C104.009 252.401 103.341 252.828 102.863 253.435C102.385 254.041 102.125 254.791 102.125 255.563C102.125 256.334 102.385 257.084 102.863 257.69C103.341 258.297 104.009 258.724 104.759 258.905C105.51 259.085 106.299 259.008 107.001 258.685C107.702 258.362 108.274 257.813 108.625 257.125H110.687L111.467 257.645C111.57 257.714 111.691 257.75 111.814 257.75C111.938 257.75 112.058 257.714 112.161 257.645L112.937 257.125H114.625C114.756 257.125 114.884 257.084 114.99 257.007C115.097 256.93 115.177 256.822 115.218 256.698L115.843 254.823C115.874 254.729 115.883 254.628 115.868 254.531C115.853 254.433 115.815 254.34 115.757 254.259ZM104.312 256.5C104.127 256.5 103.946 256.445 103.792 256.342C103.637 256.239 103.517 256.093 103.446 255.921C103.375 255.75 103.357 255.561 103.393 255.38C103.429 255.198 103.518 255.031 103.649 254.9C103.781 254.768 103.948 254.679 104.129 254.643C104.311 254.607 104.5 254.625 104.671 254.696C104.842 254.767 104.989 254.887 105.092 255.042C105.195 255.196 105.25 255.377 105.25 255.563C105.25 255.811 105.151 256.05 104.975 256.225C104.799 256.401 104.561 256.5 104.312 256.5Z" fill="#00573F"/>
</g>
<g filter="url(#filter1_ddd_171_715)">
<rect x="215" y="224" width="60" height="60" rx="30" fill="white"/>
<rect x="215.25" y="224.25" width="59.5" height="59.5" rx="29.75" stroke="black" stroke-opacity="0.15" stroke-width="0.5"/>
<g clip-path="url(#clip2_171_715)">
<path d="M254.009 262.805L252.835 258.694C252.38 257.103 251.097 255.928 249.488 255.63C249.046 255.547 248.597 255.501 248.15 255.445C247.321 255.873 246.382 256.119 245.387 256.119C244.392 256.119 243.453 255.873 242.623 255.445C242.176 255.501 241.728 255.547 241.286 255.63C239.701 255.923 238.387 257.126 237.939 258.694L236.764 262.805C236.698 263.035 236.73 263.281 236.852 263.485C236.973 263.69 237.174 263.835 237.407 263.887C240.022 264.476 242.707 264.774 245.387 264.774C248.067 264.774 250.752 264.475 253.367 263.887C253.6 263.835 253.8 263.689 253.922 263.485C254.044 263.281 254.074 263.034 254.009 262.805Z" fill="#00573F"/>
<path d="M245.387 254.388C243.001 254.388 241.059 252.446 241.059 250.06V248.328C241.059 245.942 243.001 244 245.387 244C247.774 244 249.715 245.942 249.715 248.328V250.06C249.715 252.446 247.774 254.388 245.387 254.388Z" fill="#00573F"/>
</g>
<path opacity="0.05" d="M232.457 240.695L227.861 236.099" stroke="black" stroke-width="0.5"/>
<path opacity="0.05" d="M262.156 270.394L257.56 265.798" stroke="black" stroke-width="0.5"/>
<path opacity="0.05" d="M257.56 240.703L262.156 236.106" stroke="black" stroke-width="0.5"/>
<path opacity="0.05" d="M227.861 270.401L232.457 265.805" stroke="black" stroke-width="0.5"/>
</g>
<g filter="url(#filter2_ddd_171_715)">
<rect x="351" y="224" width="60" height="60" rx="30" fill="white"/>
<rect x="351.25" y="224.25" width="59.5" height="59.5" rx="29.75" stroke="black" stroke-opacity="0.15" stroke-width="0.5"/>
<path opacity="0.05" d="M368.457 240.695L363.861 236.099" stroke="black" stroke-width="0.5"/>
<path opacity="0.05" d="M398.156 270.394L393.56 265.798" stroke="black" stroke-width="0.5"/>
<path opacity="0.05" d="M393.56 240.703L398.156 236.106" stroke="black" stroke-width="0.5"/>
<path opacity="0.05" d="M363.861 270.401L368.457 265.805" stroke="black" stroke-width="0.5"/>
<g clip-path="url(#clip3_171_715)">
<path d="M390.375 262.125H371.625C371.459 262.125 371.3 262.191 371.183 262.308C371.066 262.425 371 262.584 371 262.75C371 262.916 371.066 263.075 371.183 263.192C371.3 263.309 371.459 263.375 371.625 263.375H390.375C390.541 263.375 390.7 263.309 390.817 263.192C390.934 263.075 391 262.916 391 262.75C391 262.584 390.934 262.425 390.817 262.308C390.7 262.191 390.541 262.125 390.375 262.125Z" fill="#00573F"/>
<path d="M376 251.5H372.25C371.905 251.5 371.625 251.78 371.625 252.125V260.25C371.625 260.595 371.905 260.875 372.25 260.875H376C376.345 260.875 376.625 260.595 376.625 260.25V252.125C376.625 251.78 376.345 251.5 376 251.5Z" fill="#00573F"/>
<path d="M382.875 244.625H379.125C378.78 244.625 378.5 244.905 378.5 245.25V260.25C378.5 260.595 378.78 260.875 379.125 260.875H382.875C383.22 260.875 383.5 260.595 383.5 260.25V245.25C383.5 244.905 383.22 244.625 382.875 244.625Z" fill="#00573F"/>
<path d="M389.75 254.625H386C385.655 254.625 385.375 254.905 385.375 255.25V260.25C385.375 260.595 385.655 260.875 386 260.875H389.75C390.095 260.875 390.375 260.595 390.375 260.25V255.25C390.375 254.905 390.095 254.625 389.75 254.625Z" fill="#00573F"/>
</g>
</g>
</g>
<defs>
<filter id="filter0_ddd_171_715" x="73.5" y="218.5" width="71" height="71" filterUnits="userSpaceOnUse" color-interpolation-filters="sRGB">
<feFlood flood-opacity="0" result="BackgroundImageFix"/>
<feColorMatrix in="SourceAlpha" type="matrix" values="0 0 0 0 0 0 0 0 0 0 0 0 0 0 0 0 0 0 127 0" result="hardAlpha"/>
<feMorphology radius="5.5" operator="dilate" in="SourceAlpha" result="effect1_dropShadow_171_715"/>
<feOffset/>
<feComposite in2="hardAlpha" operator="out"/>
<feColorMatrix type="matrix" values="0 0 0 0 0 0 0 0 0 0 0 0 0 0 0 0 0 0 0.1 0"/>
<feBlend mode="normal" in2="BackgroundImageFix" result="effect1_dropShadow_171_715"/>
<feColorMatrix in="SourceAlpha" type="matrix" values="0 0 0 0 0 0 0 0 0 0 0 0 0 0 0 0 0 0 127 0" result="hardAlpha"/>
<feMorphology radius="5" operator="dilate" in="SourceAlpha" result="effect2_dropShadow_171_715"/>
<feOffset/>
<feComposite in2="hardAlpha" operator="out"/>
<feColorMatrix type="matrix" values="0 0 0 0 0.976471 0 0 0 0 0.984314 0 0 0 0 0.980392 0 0 0 1 0"/>
<feBlend mode="normal" in2="effect1_dropShadow_171_715" result="effect2_dropShadow_171_715"/>
<feColorMatrix in="SourceAlpha" type="matrix" values="0 0 0 0 0 0 0 0 0 0 0 0 0 0 0 0 0 0 127 0" result="hardAlpha"/>
<feOffset/>
<feComposite in2="hardAlpha" operator="out"/>
<feColorMatrix type="matrix" values="0 0 0 0 0 0 0 0 0 0 0 0 0 0 0 0 0 0 0.25 0"/>
<feBlend mode="normal" in2="effect2_dropShadow_171_715" result="effect3_dropShadow_171_715"/>
<feBlend mode="normal" in="SourceGraphic" in2="effect3_dropShadow_171_715" result="shape"/>
</filter>
<filter id="filter1_ddd_171_715" x="209.5" y="218.5" width="71" height="71" filterUnits="userSpaceOnUse" color-interpolation-filters="sRGB">
<feFlood flood-opacity="0" result="BackgroundImageFix"/>
<feColorMatrix in="SourceAlpha" type="matrix" values="0 0 0 0 0 0 0 0 0 0 0 0 0 0 0 0 0 0 127 0" result="hardAlpha"/>
<feMorphology radius="5.5" operator="dilate" in="SourceAlpha" result="effect1_dropShadow_171_715"/>
<feOffset/>
<feComposite in2="hardAlpha" operator="out"/>
<feColorMatrix type="matrix" values="0 0 0 0 0 0 0 0 0 0 0 0 0 0 0 0 0 0 0.1 0"/>
<feBlend mode="normal" in2="BackgroundImageFix" result="effect1_dropShadow_171_715"/>
<feColorMatrix in="SourceAlpha" type="matrix" values="0 0 0 0 0 0 0 0 0 0 0 0 0 0 0 0 0 0 127 0" result="hardAlpha"/>
<feMorphology radius="5" operator="dilate" in="SourceAlpha" result="effect2_dropShadow_171_715"/>
<feOffset/>
<feComposite in2="hardAlpha" operator="out"/>
<feColorMatrix type="matrix" values="0 0 0 0 0.976471 0 0 0 0 0.984314 0 0 0 0 0.980392 0 0 0 1 0"/>
<feBlend mode="normal" in2="effect1_dropShadow_171_715" result="effect2_dropShadow_171_715"/>
<feColorMatrix in="SourceAlpha" type="matrix" values="0 0 0 0 0 0 0 0 0 0 0 0 0 0 0 0 0 0 127 0" result="hardAlpha"/>
<feOffset/>
<feComposite in2="hardAlpha" operator="out"/>
<feColorMatrix type="matrix" values="0 0 0 0 0 0 0 0 0 0 0 0 0 0 0 0 0 0 0.25 0"/>
<feBlend mode="normal" in2="effect2_dropShadow_171_715" result="effect3_dropShadow_171_715"/>
<feBlend mode="normal" in="SourceGraphic" in2="effect3_dropShadow_171_715" result="shape"/>
</filter>
<filter id="filter2_ddd_171_715" x="345.5" y="218.5" width="71" height="71" filterUnits="userSpaceOnUse" color-interpolation-filters="sRGB">
<feFlood flood-opacity="0" result="BackgroundImageFix"/>
<feColorMatrix in="SourceAlpha" type="matrix" values="0 0 0 0 0 0 0 0 0 0 0 0 0 0 0 0 0 0 127 0" result="hardAlpha"/>
<feMorphology radius="5.5" operator="dilate" in="SourceAlpha" result="effect1_dropShadow_171_715"/>
<feOffset/>
<feComposite in2="hardAlpha" operator="out"/>
<feColorMatrix type="matrix" values="0 0 0 0 0 0 0 0 0 0 0 0 0 0 0 0 0 0 0.1 0"/>
<feBlend mode="normal" in2="BackgroundImageFix" result="effect1_dropShadow_171_715"/>
<feColorMatrix in="SourceAlpha" type="matrix" values="0 0 0 0 0 0 0 0 0 0 0 0 0 0 0 0 0 0 127 0" result="hardAlpha"/>
<feMorphology radius="5" operator="dilate" in="SourceAlpha" result="effect2_dropShadow_171_715"/>
<feOffset/>
<feComposite in2="hardAlpha" operator="out"/>
<feColorMatrix type="matrix" values="0 0 0 0 0.976471 0 0 0 0 0.984314 0 0 0 0 0.980392 0 0 0 1 0"/>
<feBlend mode="normal" in2="effect1_dropShadow_171_715" result="effect2_dropShadow_171_715"/>
<feColorMatrix in="SourceAlpha" type="matrix" values="0 0 0 0 0 0 0 0 0 0 0 0 0 0 0 0 0 0 127 0" result="hardAlpha"/>
<feOffset/>
<feComposite in2="hardAlpha" operator="out"/>
<feColorMatrix type="matrix" values="0 0 0 0 0 0 0 0 0 0 0 0 0 0 0 0 0 0 0.25 0"/>
<feBlend mode="normal" in2="effect2_dropShadow_171_715" result="effect3_dropShadow_171_715"/>
<feBlend mode="normal" in="SourceGraphic" in2="effect3_dropShadow_171_715" result="shape"/>
</filter>
<clipPath id="clip0_171_715">
<rect width="488" height="315" fill="white"/>
</clipPath>
<clipPath id="clip1_171_715">
<rect x="25" y="51" width="440" height="148" rx="10" fill="white"/>
</clipPath>
<clipPath id="clip2_171_715">
<rect width="20.7742" height="20.7742" fill="white" transform="translate(235 244)"/>
</clipPath>
<clipPath id="clip3_171_715">
<rect width="20" height="20" fill="white" transform="translate(371 244)"/>
</clipPath>
</defs>
</svg>
